G04*
G04 #@! TF.GenerationSoftware,Altium Limited,Altium Designer,22.6.1 (34)*
G04*
G04 Layer_Physical_Order=1*
G04 Layer_Color=255*
%FSLAX25Y25*%
%MOIN*%
G70*
G04*
G04 #@! TF.SameCoordinates,9ADE90FA-7DC8-4C6E-95E8-500F00D2387A*
G04*
G04*
G04 #@! TF.FilePolarity,Positive*
G04*
G01*
G75*
G04:AMPARAMS|DCode=10|XSize=31.5mil|YSize=25.59mil|CornerRadius=6.4mil|HoleSize=0mil|Usage=FLASHONLY|Rotation=270.000|XOffset=0mil|YOffset=0mil|HoleType=Round|Shape=RoundedRectangle|*
%AMROUNDEDRECTD10*
21,1,0.03150,0.01280,0,0,270.0*
21,1,0.01870,0.02559,0,0,270.0*
1,1,0.01280,-0.00640,-0.00935*
1,1,0.01280,-0.00640,0.00935*
1,1,0.01280,0.00640,0.00935*
1,1,0.01280,0.00640,-0.00935*
%
%ADD10ROUNDEDRECTD10*%
G04:AMPARAMS|DCode=11|XSize=23.62mil|YSize=47.24mil|CornerRadius=3.54mil|HoleSize=0mil|Usage=FLASHONLY|Rotation=270.000|XOffset=0mil|YOffset=0mil|HoleType=Round|Shape=RoundedRectangle|*
%AMROUNDEDRECTD11*
21,1,0.02362,0.04016,0,0,270.0*
21,1,0.01654,0.04724,0,0,270.0*
1,1,0.00709,-0.02008,-0.00827*
1,1,0.00709,-0.02008,0.00827*
1,1,0.00709,0.02008,0.00827*
1,1,0.00709,0.02008,-0.00827*
%
%ADD11ROUNDEDRECTD11*%
G04:AMPARAMS|DCode=12|XSize=11.81mil|YSize=51.18mil|CornerRadius=1.77mil|HoleSize=0mil|Usage=FLASHONLY|Rotation=0.000|XOffset=0mil|YOffset=0mil|HoleType=Round|Shape=RoundedRectangle|*
%AMROUNDEDRECTD12*
21,1,0.01181,0.04764,0,0,0.0*
21,1,0.00827,0.05118,0,0,0.0*
1,1,0.00354,0.00413,-0.02382*
1,1,0.00354,-0.00413,-0.02382*
1,1,0.00354,-0.00413,0.02382*
1,1,0.00354,0.00413,0.02382*
%
%ADD12ROUNDEDRECTD12*%
G04:AMPARAMS|DCode=13|XSize=11.81mil|YSize=51.18mil|CornerRadius=1.77mil|HoleSize=0mil|Usage=FLASHONLY|Rotation=90.000|XOffset=0mil|YOffset=0mil|HoleType=Round|Shape=RoundedRectangle|*
%AMROUNDEDRECTD13*
21,1,0.01181,0.04764,0,0,90.0*
21,1,0.00827,0.05118,0,0,90.0*
1,1,0.00354,0.02382,0.00413*
1,1,0.00354,0.02382,-0.00413*
1,1,0.00354,-0.02382,-0.00413*
1,1,0.00354,-0.02382,0.00413*
%
%ADD13ROUNDEDRECTD13*%
G04:AMPARAMS|DCode=14|XSize=31.5mil|YSize=25.59mil|CornerRadius=6.4mil|HoleSize=0mil|Usage=FLASHONLY|Rotation=180.000|XOffset=0mil|YOffset=0mil|HoleType=Round|Shape=RoundedRectangle|*
%AMROUNDEDRECTD14*
21,1,0.03150,0.01280,0,0,180.0*
21,1,0.01870,0.02559,0,0,180.0*
1,1,0.01280,-0.00935,0.00640*
1,1,0.01280,0.00935,0.00640*
1,1,0.01280,0.00935,-0.00640*
1,1,0.01280,-0.00935,-0.00640*
%
%ADD14ROUNDEDRECTD14*%
G04:AMPARAMS|DCode=15|XSize=27.56mil|YSize=43.31mil|CornerRadius=4.13mil|HoleSize=0mil|Usage=FLASHONLY|Rotation=270.000|XOffset=0mil|YOffset=0mil|HoleType=Round|Shape=RoundedRectangle|*
%AMROUNDEDRECTD15*
21,1,0.02756,0.03504,0,0,270.0*
21,1,0.01929,0.04331,0,0,270.0*
1,1,0.00827,-0.01752,-0.00965*
1,1,0.00827,-0.01752,0.00965*
1,1,0.00827,0.01752,0.00965*
1,1,0.00827,0.01752,-0.00965*
%
%ADD15ROUNDEDRECTD15*%
G04:AMPARAMS|DCode=16|XSize=106.3mil|YSize=66.93mil|CornerRadius=6.69mil|HoleSize=0mil|Usage=FLASHONLY|Rotation=270.000|XOffset=0mil|YOffset=0mil|HoleType=Round|Shape=RoundedRectangle|*
%AMROUNDEDRECTD16*
21,1,0.10630,0.05354,0,0,270.0*
21,1,0.09291,0.06693,0,0,270.0*
1,1,0.01339,-0.02677,-0.04646*
1,1,0.01339,-0.02677,0.04646*
1,1,0.01339,0.02677,0.04646*
1,1,0.01339,0.02677,-0.04646*
%
%ADD16ROUNDEDRECTD16*%
G04:AMPARAMS|DCode=17|XSize=33.47mil|YSize=23.62mil|CornerRadius=2.36mil|HoleSize=0mil|Usage=FLASHONLY|Rotation=180.000|XOffset=0mil|YOffset=0mil|HoleType=Round|Shape=RoundedRectangle|*
%AMROUNDEDRECTD17*
21,1,0.03347,0.01890,0,0,180.0*
21,1,0.02874,0.02362,0,0,180.0*
1,1,0.00472,-0.01437,0.00945*
1,1,0.00472,0.01437,0.00945*
1,1,0.00472,0.01437,-0.00945*
1,1,0.00472,-0.01437,-0.00945*
%
%ADD17ROUNDEDRECTD17*%
G04:AMPARAMS|DCode=18|XSize=23.62mil|YSize=31.5mil|CornerRadius=3.54mil|HoleSize=0mil|Usage=FLASHONLY|Rotation=90.000|XOffset=0mil|YOffset=0mil|HoleType=Round|Shape=RoundedRectangle|*
%AMROUNDEDRECTD18*
21,1,0.02362,0.02441,0,0,90.0*
21,1,0.01654,0.03150,0,0,90.0*
1,1,0.00709,0.01221,0.00827*
1,1,0.00709,0.01221,-0.00827*
1,1,0.00709,-0.01221,-0.00827*
1,1,0.00709,-0.01221,0.00827*
%
%ADD18ROUNDEDRECTD18*%
G04:AMPARAMS|DCode=19|XSize=33.47mil|YSize=23.62mil|CornerRadius=2.36mil|HoleSize=0mil|Usage=FLASHONLY|Rotation=90.000|XOffset=0mil|YOffset=0mil|HoleType=Round|Shape=RoundedRectangle|*
%AMROUNDEDRECTD19*
21,1,0.03347,0.01890,0,0,90.0*
21,1,0.02874,0.02362,0,0,90.0*
1,1,0.00472,0.00945,0.01437*
1,1,0.00472,0.00945,-0.01437*
1,1,0.00472,-0.00945,-0.01437*
1,1,0.00472,-0.00945,0.01437*
%
%ADD19ROUNDEDRECTD19*%
G04:AMPARAMS|DCode=20|XSize=55.12mil|YSize=35.43mil|CornerRadius=5.32mil|HoleSize=0mil|Usage=FLASHONLY|Rotation=90.000|XOffset=0mil|YOffset=0mil|HoleType=Round|Shape=RoundedRectangle|*
%AMROUNDEDRECTD20*
21,1,0.05512,0.02480,0,0,90.0*
21,1,0.04449,0.03543,0,0,90.0*
1,1,0.01063,0.01240,0.02224*
1,1,0.01063,0.01240,-0.02224*
1,1,0.01063,-0.01240,-0.02224*
1,1,0.01063,-0.01240,0.02224*
%
%ADD20ROUNDEDRECTD20*%
G04:AMPARAMS|DCode=21|XSize=19.68mil|YSize=35.43mil|CornerRadius=2.95mil|HoleSize=0mil|Usage=FLASHONLY|Rotation=90.000|XOffset=0mil|YOffset=0mil|HoleType=Round|Shape=RoundedRectangle|*
%AMROUNDEDRECTD21*
21,1,0.01968,0.02953,0,0,90.0*
21,1,0.01378,0.03543,0,0,90.0*
1,1,0.00591,0.01476,0.00689*
1,1,0.00591,0.01476,-0.00689*
1,1,0.00591,-0.01476,-0.00689*
1,1,0.00591,-0.01476,0.00689*
%
%ADD21ROUNDEDRECTD21*%
G04:AMPARAMS|DCode=22|XSize=31.5mil|YSize=35.43mil|CornerRadius=4.72mil|HoleSize=0mil|Usage=FLASHONLY|Rotation=90.000|XOffset=0mil|YOffset=0mil|HoleType=Round|Shape=RoundedRectangle|*
%AMROUNDEDRECTD22*
21,1,0.03150,0.02598,0,0,90.0*
21,1,0.02205,0.03543,0,0,90.0*
1,1,0.00945,0.01299,0.01102*
1,1,0.00945,0.01299,-0.01102*
1,1,0.00945,-0.01299,-0.01102*
1,1,0.00945,-0.01299,0.01102*
%
%ADD22ROUNDEDRECTD22*%
G04:AMPARAMS|DCode=23|XSize=49.21mil|YSize=27.56mil|CornerRadius=2.76mil|HoleSize=0mil|Usage=FLASHONLY|Rotation=270.000|XOffset=0mil|YOffset=0mil|HoleType=Round|Shape=RoundedRectangle|*
%AMROUNDEDRECTD23*
21,1,0.04921,0.02205,0,0,270.0*
21,1,0.04370,0.02756,0,0,270.0*
1,1,0.00551,-0.01102,-0.02185*
1,1,0.00551,-0.01102,0.02185*
1,1,0.00551,0.01102,0.02185*
1,1,0.00551,0.01102,-0.02185*
%
%ADD23ROUNDEDRECTD23*%
G04:AMPARAMS|DCode=24|XSize=13.78mil|YSize=23.62mil|CornerRadius=2.07mil|HoleSize=0mil|Usage=FLASHONLY|Rotation=270.000|XOffset=0mil|YOffset=0mil|HoleType=Round|Shape=RoundedRectangle|*
%AMROUNDEDRECTD24*
21,1,0.01378,0.01949,0,0,270.0*
21,1,0.00965,0.02362,0,0,270.0*
1,1,0.00413,-0.00974,-0.00482*
1,1,0.00413,-0.00974,0.00482*
1,1,0.00413,0.00974,0.00482*
1,1,0.00413,0.00974,-0.00482*
%
%ADD24ROUNDEDRECTD24*%
G04:AMPARAMS|DCode=25|XSize=49.21mil|YSize=27.56mil|CornerRadius=2.76mil|HoleSize=0mil|Usage=FLASHONLY|Rotation=0.000|XOffset=0mil|YOffset=0mil|HoleType=Round|Shape=RoundedRectangle|*
%AMROUNDEDRECTD25*
21,1,0.04921,0.02205,0,0,0.0*
21,1,0.04370,0.02756,0,0,0.0*
1,1,0.00551,0.02185,-0.01102*
1,1,0.00551,-0.02185,-0.01102*
1,1,0.00551,-0.02185,0.01102*
1,1,0.00551,0.02185,0.01102*
%
%ADD25ROUNDEDRECTD25*%
%ADD26R,0.00787X0.00787*%
%ADD27C,0.03937*%
G04:AMPARAMS|DCode=28|XSize=23.62mil|YSize=43.31mil|CornerRadius=2.36mil|HoleSize=0mil|Usage=FLASHONLY|Rotation=180.000|XOffset=0mil|YOffset=0mil|HoleType=Round|Shape=RoundedRectangle|*
%AMROUNDEDRECTD28*
21,1,0.02362,0.03858,0,0,180.0*
21,1,0.01890,0.04331,0,0,180.0*
1,1,0.00472,-0.00945,0.01929*
1,1,0.00472,0.00945,0.01929*
1,1,0.00472,0.00945,-0.01929*
1,1,0.00472,-0.00945,-0.01929*
%
%ADD28ROUNDEDRECTD28*%
G04:AMPARAMS|DCode=29|XSize=43.31mil|YSize=23.62mil|CornerRadius=3.54mil|HoleSize=0mil|Usage=FLASHONLY|Rotation=180.000|XOffset=0mil|YOffset=0mil|HoleType=Round|Shape=RoundedRectangle|*
%AMROUNDEDRECTD29*
21,1,0.04331,0.01654,0,0,180.0*
21,1,0.03622,0.02362,0,0,180.0*
1,1,0.00709,-0.01811,0.00827*
1,1,0.00709,0.01811,0.00827*
1,1,0.00709,0.01811,-0.00827*
1,1,0.00709,-0.01811,-0.00827*
%
%ADD29ROUNDEDRECTD29*%
G04:AMPARAMS|DCode=30|XSize=55.12mil|YSize=102.36mil|CornerRadius=8.27mil|HoleSize=0mil|Usage=FLASHONLY|Rotation=180.000|XOffset=0mil|YOffset=0mil|HoleType=Round|Shape=RoundedRectangle|*
%AMROUNDEDRECTD30*
21,1,0.05512,0.08583,0,0,180.0*
21,1,0.03858,0.10236,0,0,180.0*
1,1,0.01654,-0.01929,0.04291*
1,1,0.01654,0.01929,0.04291*
1,1,0.01654,0.01929,-0.04291*
1,1,0.01654,-0.01929,-0.04291*
%
%ADD30ROUNDEDRECTD30*%
G04:AMPARAMS|DCode=31|XSize=55.12mil|YSize=102.36mil|CornerRadius=8.27mil|HoleSize=0mil|Usage=FLASHONLY|Rotation=90.000|XOffset=0mil|YOffset=0mil|HoleType=Round|Shape=RoundedRectangle|*
%AMROUNDEDRECTD31*
21,1,0.05512,0.08583,0,0,90.0*
21,1,0.03858,0.10236,0,0,90.0*
1,1,0.01654,0.04291,0.01929*
1,1,0.01654,0.04291,-0.01929*
1,1,0.01654,-0.04291,-0.01929*
1,1,0.01654,-0.04291,0.01929*
%
%ADD31ROUNDEDRECTD31*%
%ADD32R,0.10630X0.02756*%
G04:AMPARAMS|DCode=33|XSize=27.56mil|YSize=106.3mil|CornerRadius=4.13mil|HoleSize=0mil|Usage=FLASHONLY|Rotation=270.000|XOffset=0mil|YOffset=0mil|HoleType=Round|Shape=RoundedRectangle|*
%AMROUNDEDRECTD33*
21,1,0.02756,0.09803,0,0,270.0*
21,1,0.01929,0.10630,0,0,270.0*
1,1,0.00827,-0.04902,-0.00965*
1,1,0.00827,-0.04902,0.00965*
1,1,0.00827,0.04902,0.00965*
1,1,0.00827,0.04902,-0.00965*
%
%ADD33ROUNDEDRECTD33*%
%ADD34C,0.01181*%
%ADD72C,0.01575*%
%ADD73C,0.01968*%
%ADD74C,0.02362*%
%ADD75C,0.06299*%
G04:AMPARAMS|DCode=76|XSize=62.99mil|YSize=62.99mil|CornerRadius=15.75mil|HoleSize=0mil|Usage=FLASHONLY|Rotation=0.000|XOffset=0mil|YOffset=0mil|HoleType=Round|Shape=RoundedRectangle|*
%AMROUNDEDRECTD76*
21,1,0.06299,0.03150,0,0,0.0*
21,1,0.03150,0.06299,0,0,0.0*
1,1,0.03150,0.01575,-0.01575*
1,1,0.03150,-0.01575,-0.01575*
1,1,0.03150,-0.01575,0.01575*
1,1,0.03150,0.01575,0.01575*
%
%ADD76ROUNDEDRECTD76*%
%ADD77P,0.06392X8X22.5*%
G04:AMPARAMS|DCode=78|XSize=59.06mil|YSize=59.06mil|CornerRadius=14.76mil|HoleSize=0mil|Usage=FLASHONLY|Rotation=0.000|XOffset=0mil|YOffset=0mil|HoleType=Round|Shape=RoundedRectangle|*
%AMROUNDEDRECTD78*
21,1,0.05906,0.02953,0,0,0.0*
21,1,0.02953,0.05906,0,0,0.0*
1,1,0.02953,0.01476,-0.01476*
1,1,0.02953,-0.01476,-0.01476*
1,1,0.02953,-0.01476,0.01476*
1,1,0.02953,0.01476,0.01476*
%
%ADD78ROUNDEDRECTD78*%
%ADD79C,0.06693*%
%ADD80R,0.06693X0.06693*%
%ADD81C,0.13386*%
%ADD82C,0.05512*%
G04:AMPARAMS|DCode=83|XSize=55.12mil|YSize=55.12mil|CornerRadius=13.78mil|HoleSize=0mil|Usage=FLASHONLY|Rotation=90.000|XOffset=0mil|YOffset=0mil|HoleType=Round|Shape=RoundedRectangle|*
%AMROUNDEDRECTD83*
21,1,0.05512,0.02756,0,0,90.0*
21,1,0.02756,0.05512,0,0,90.0*
1,1,0.02756,0.01378,0.01378*
1,1,0.02756,0.01378,-0.01378*
1,1,0.02756,-0.01378,-0.01378*
1,1,0.02756,-0.01378,0.01378*
%
%ADD83ROUNDEDRECTD83*%
%ADD84C,0.02756*%
D10*
X136713Y78740D02*
D03*
X131004D02*
D03*
X91634Y77756D02*
D03*
X97342D02*
D03*
X135728Y42323D02*
D03*
X130020D02*
D03*
X187894Y44291D02*
D03*
X182185D02*
D03*
X193799Y91535D02*
D03*
X188091D02*
D03*
X153642Y69882D02*
D03*
X159350D02*
D03*
X56201Y80709D02*
D03*
X61909D02*
D03*
X56201Y45276D02*
D03*
X61910D02*
D03*
X207579Y83661D02*
D03*
X201870D02*
D03*
D11*
X56890Y66555D02*
D03*
Y61555D02*
D03*
Y56555D02*
D03*
Y51555D02*
D03*
X78937Y66555D02*
D03*
Y61555D02*
D03*
Y56555D02*
D03*
Y51555D02*
D03*
X103150Y96083D02*
D03*
Y91083D02*
D03*
Y86083D02*
D03*
Y81083D02*
D03*
X125197Y96083D02*
D03*
Y91083D02*
D03*
Y86083D02*
D03*
Y81083D02*
D03*
X78937Y86988D02*
D03*
Y91988D02*
D03*
Y96988D02*
D03*
Y101988D02*
D03*
X56890Y86988D02*
D03*
Y91988D02*
D03*
Y96988D02*
D03*
Y101988D02*
D03*
X103150Y60650D02*
D03*
Y55650D02*
D03*
Y50650D02*
D03*
Y45650D02*
D03*
X125197Y60650D02*
D03*
Y55650D02*
D03*
Y50650D02*
D03*
Y45650D02*
D03*
D12*
X174669Y85043D02*
D03*
X176638D02*
D03*
X178606D02*
D03*
X180575D02*
D03*
X182543D02*
D03*
X184512D02*
D03*
X186480D02*
D03*
X188449D02*
D03*
X190417D02*
D03*
X192386D02*
D03*
X194354D02*
D03*
X196323D02*
D03*
Y51579D02*
D03*
X194354D02*
D03*
X192386D02*
D03*
X190417D02*
D03*
X188449D02*
D03*
X186480D02*
D03*
X184512D02*
D03*
X182543D02*
D03*
X180575D02*
D03*
X178606D02*
D03*
X176638D02*
D03*
X174669D02*
D03*
D13*
X202228Y79138D02*
D03*
Y77169D02*
D03*
Y75201D02*
D03*
Y73232D02*
D03*
Y71264D02*
D03*
Y69295D02*
D03*
Y67327D02*
D03*
Y65358D02*
D03*
Y63390D02*
D03*
Y61421D02*
D03*
Y59453D02*
D03*
Y57484D02*
D03*
X168764D02*
D03*
Y59453D02*
D03*
Y61421D02*
D03*
Y63390D02*
D03*
Y65358D02*
D03*
Y67327D02*
D03*
Y69295D02*
D03*
Y71264D02*
D03*
Y73232D02*
D03*
Y75201D02*
D03*
Y77169D02*
D03*
Y79138D02*
D03*
D14*
X208661Y46358D02*
D03*
Y52067D02*
D03*
X200787Y46358D02*
D03*
Y52067D02*
D03*
X183496Y95957D02*
D03*
Y101665D02*
D03*
X227496Y93957D02*
D03*
Y99665D02*
D03*
D15*
X127165Y68366D02*
D03*
Y73366D02*
D03*
X101181Y68366D02*
D03*
Y73366D02*
D03*
Y108799D02*
D03*
Y103799D02*
D03*
X127165Y108799D02*
D03*
Y103799D02*
D03*
D16*
X200394Y38386D02*
D03*
X209055D02*
D03*
D17*
X88583Y47244D02*
D03*
Y53150D02*
D03*
X65945Y43307D02*
D03*
Y37402D02*
D03*
X92520Y81693D02*
D03*
Y87598D02*
D03*
X141732Y60039D02*
D03*
Y65945D02*
D03*
X218504Y44291D02*
D03*
Y38386D02*
D03*
X223425D02*
D03*
Y44291D02*
D03*
X228346D02*
D03*
Y38386D02*
D03*
X233268D02*
D03*
Y44291D02*
D03*
Y54134D02*
D03*
Y48228D02*
D03*
X228346Y54134D02*
D03*
Y48228D02*
D03*
X223425Y54134D02*
D03*
Y48228D02*
D03*
X218504Y54134D02*
D03*
Y48228D02*
D03*
X233496Y99764D02*
D03*
Y93858D02*
D03*
D18*
X69685Y72835D02*
D03*
X60236D02*
D03*
X67716Y108268D02*
D03*
X58268D02*
D03*
D19*
X242543Y106811D02*
D03*
X248449D02*
D03*
X203949Y109311D02*
D03*
X198043D02*
D03*
X203949Y124311D02*
D03*
X198043D02*
D03*
X97441Y38386D02*
D03*
X103347D02*
D03*
X154528Y102362D02*
D03*
X148622D02*
D03*
X143701Y75787D02*
D03*
X149606D02*
D03*
X154449Y131811D02*
D03*
X148543D02*
D03*
Y126311D02*
D03*
X154449D02*
D03*
Y120811D02*
D03*
X148543D02*
D03*
Y115311D02*
D03*
X154449D02*
D03*
X159449Y38386D02*
D03*
X165354D02*
D03*
Y44291D02*
D03*
X159449D02*
D03*
X62008Y125197D02*
D03*
X56102D02*
D03*
X62008Y129921D02*
D03*
X56102D02*
D03*
X62008Y140945D02*
D03*
X56102D02*
D03*
X62008Y145669D02*
D03*
X56102D02*
D03*
X159449Y75787D02*
D03*
X153543D02*
D03*
D20*
X80512Y42717D02*
D03*
D21*
Y36614D02*
D03*
X71063D02*
D03*
Y44094D02*
D03*
D22*
Y40354D02*
D03*
D23*
X85827Y38386D02*
D03*
X93307D02*
D03*
X189173Y97441D02*
D03*
X196653D02*
D03*
X180315Y38386D02*
D03*
X187795D02*
D03*
X233236Y122811D02*
D03*
X225756D02*
D03*
D24*
X74803Y108268D02*
D03*
X80709Y110236D02*
D03*
Y106299D02*
D03*
X74803Y72835D02*
D03*
X80709Y74803D02*
D03*
Y70866D02*
D03*
D25*
X41339Y104134D02*
D03*
Y96653D02*
D03*
X49213Y33661D02*
D03*
Y41142D02*
D03*
X183071Y15551D02*
D03*
Y8071D02*
D03*
X41339Y65158D02*
D03*
Y72638D02*
D03*
X48228Y104134D02*
D03*
Y96653D02*
D03*
Y72638D02*
D03*
Y65158D02*
D03*
D26*
X15748Y145669D02*
D03*
X232283Y7874D02*
D03*
D27*
X15748Y145669D02*
D03*
X232283Y7874D02*
D03*
D28*
X227559Y79921D02*
D03*
X235039D02*
D03*
Y69685D02*
D03*
X231299D02*
D03*
X227559D02*
D03*
X225756Y105693D02*
D03*
X229496D02*
D03*
X233236D02*
D03*
Y115929D02*
D03*
X225756D02*
D03*
D29*
X211024Y76772D02*
D03*
X222047D02*
D03*
Y72835D02*
D03*
X211024D02*
D03*
D30*
X168110Y10827D02*
D03*
X158661D02*
D03*
D31*
X49213Y16929D02*
D03*
Y26378D02*
D03*
D32*
X171622Y129271D02*
D03*
D33*
X187370D02*
D03*
X171622Y124271D02*
D03*
X187370D02*
D03*
X171622Y119271D02*
D03*
Y114271D02*
D03*
Y109271D02*
D03*
X187370Y119271D02*
D03*
Y114271D02*
D03*
Y109271D02*
D03*
D34*
X143953Y120811D02*
X148543D01*
X123031Y141732D02*
X143953Y120811D01*
X73819Y141732D02*
X123031D01*
X142390Y126311D02*
X148543D01*
X64380Y143701D02*
X125000D01*
X142390Y126311D01*
X62008Y145669D02*
X126969D01*
X140748Y131890D01*
X148543D01*
X77756Y139764D02*
X121063D01*
X63583Y125591D02*
X77756Y139764D01*
X121063D02*
X145516Y115311D01*
X62008Y129921D02*
X73819Y141732D01*
X62008Y141339D02*
X63475Y142806D01*
X63544D02*
X64380Y143641D01*
X63475Y142806D02*
X63544D01*
X64380Y143641D02*
Y143701D01*
X129527Y149016D02*
X130905Y147638D01*
X64567Y149016D02*
X129527D01*
X62008Y125591D02*
X63583D01*
X180118Y74803D02*
X188976D01*
X171260Y83661D02*
Y86614D01*
Y83661D02*
X180118Y74803D01*
X141732Y60039D02*
X144287Y57484D01*
X131890Y53150D02*
X173098D01*
X129390Y55650D02*
X131890Y53150D01*
X125197Y55650D02*
X129390D01*
X125197Y50650D02*
X169823D01*
X155059Y86083D02*
X163972Y77169D01*
X125197Y86083D02*
X155059D01*
X125197Y91083D02*
X153996D01*
X145516Y115311D02*
X148543D01*
X92067Y68366D02*
X101181D01*
X80709Y70866D02*
X89567D01*
X92067Y68366D01*
X88583Y106299D02*
X91083Y103799D01*
X101181D01*
X80709Y106299D02*
X88583D01*
X61910Y45276D02*
X62008Y45374D01*
X80709Y74803D02*
X80709Y74803D01*
X78740Y74803D02*
X80709D01*
X75886Y77658D02*
X78740Y74803D01*
X64961Y77658D02*
X75886D01*
X64961D02*
X67913Y80610D01*
X69685Y72835D02*
X74803D01*
X67913Y80610D02*
Y97441D01*
X80709Y110236D01*
X67716Y108268D02*
X74803D01*
X183496Y95957D02*
Y97125D01*
X165354Y38386D02*
X171260D01*
X165354Y44291D02*
X174630D01*
X220075Y67327D02*
X233268Y54134D01*
X202228Y67327D02*
X220075D01*
X217122Y65358D02*
X228346Y54134D01*
X202228Y65358D02*
X217122D01*
X214169Y63390D02*
X223425Y54134D01*
X202228Y63390D02*
X214169D01*
X211216Y61421D02*
X218504Y54134D01*
X202228Y61421D02*
X211216D01*
X196850Y49213D02*
X205807D01*
X208661Y46358D01*
Y38780D02*
Y46358D01*
Y38780D02*
X209055Y38386D01*
X196323Y49740D02*
X196850Y49213D01*
X196323Y49740D02*
Y51579D01*
X200787Y38780D02*
Y46358D01*
X200394Y38386D02*
X200787Y38780D01*
X196752Y46358D02*
X200787D01*
X194354Y48756D02*
X196752Y46358D01*
X194354Y48756D02*
Y51579D01*
X163972Y77169D02*
X168764D01*
X165941Y79138D02*
X168764D01*
X153996Y91083D02*
X165941Y79138D01*
X176638Y48818D02*
Y51579D01*
X174630Y44291D02*
X178606Y48267D01*
Y51579D01*
X171260Y38386D02*
X180575Y47701D01*
X173228Y47244D02*
X175064D01*
X180575Y47701D02*
Y51579D01*
X175064Y47244D02*
X176638Y48818D01*
X190417Y34905D02*
Y51579D01*
X181102Y27559D02*
X183071D01*
X190417Y34905D01*
X169823Y50650D02*
X173228Y47244D01*
X181841Y44931D02*
X182543Y45634D01*
X163386Y65945D02*
X164768Y67327D01*
X168764D01*
X159350Y69882D02*
X159937Y69295D01*
X168764D01*
X173626Y71264D02*
X174213Y71850D01*
X168764Y71264D02*
X173626D01*
X196881Y78735D02*
X201808Y83661D01*
X173098Y53150D02*
X174669Y51579D01*
X144287Y57484D02*
X168764D01*
X159449Y75787D02*
X160035Y75201D01*
X168764D01*
X184055Y56102D02*
X184512Y55646D01*
Y51579D02*
Y55646D01*
X191102Y27559D02*
X192386Y28842D01*
Y51579D01*
X182543Y45634D02*
Y51579D01*
X157996Y106811D02*
X176638Y88169D01*
X185039Y79724D02*
X186480Y81165D01*
X186024Y76772D02*
X188449Y79197D01*
X186480Y81165D02*
Y85043D01*
X188976Y74803D02*
X192386Y78213D01*
X180118Y79724D02*
X183071Y76772D01*
X186024D01*
X188449Y79197D02*
Y85043D01*
X159996Y108311D02*
X175492Y92815D01*
X161996Y109311D02*
X172882Y98425D01*
X174213D01*
X159996Y108311D02*
Y120811D01*
X178606Y94265D02*
Y126921D01*
X180956Y129271D01*
X174669Y85043D02*
Y87138D01*
X154496Y107311D02*
Y115311D01*
Y107311D02*
X174669Y87138D01*
X176638Y85043D02*
Y88169D01*
X157996Y106811D02*
Y117311D01*
X178606Y85043D02*
Y94265D01*
X196653Y92716D02*
X196850Y92520D01*
X196653Y92716D02*
Y97441D01*
X195866Y91535D02*
X196850Y92520D01*
X193799Y91535D02*
X195866D01*
X188091Y96358D02*
X189173Y97441D01*
X188091Y91535D02*
Y96358D01*
X184512Y87957D02*
X188091Y91535D01*
X184512Y85043D02*
Y87957D01*
X192386Y78213D02*
Y85043D01*
X196923Y78693D02*
Y78735D01*
Y78693D02*
X198446Y77169D01*
X194882Y104331D02*
X198043Y107492D01*
Y109311D01*
X192913Y95473D02*
Y97441D01*
X190945Y93504D02*
X192913Y95473D01*
X190945Y89567D02*
Y93504D01*
X190417Y89039D02*
X190945Y89567D01*
X190417Y85043D02*
Y89039D01*
X201808Y83661D02*
X201870D01*
X198446Y77169D02*
X202228D01*
X180575Y85043D02*
Y122890D01*
X181956Y124271D01*
X161996Y109311D02*
Y123811D01*
X183496Y97125D02*
X187749Y101378D01*
X182543Y95004D02*
X183496Y95957D01*
X182543Y85043D02*
Y95004D01*
X207579Y81791D02*
Y83661D01*
Y81791D02*
X207677Y81693D01*
X205122Y79138D02*
X207677Y81693D01*
X202228Y79138D02*
X205122D01*
X215063Y101378D02*
X217496Y103811D01*
X187749Y101378D02*
X215063D01*
X209458Y75206D02*
X211024Y76772D01*
X208573Y75206D02*
X209458D01*
X202228Y75201D02*
X208567D01*
X208573Y75206D01*
X210626Y73232D02*
X211024Y72835D01*
X202228Y73232D02*
X210626D01*
X223024Y73811D02*
X232291D01*
X235039Y69685D02*
Y71063D01*
X232291Y73811D02*
X235039Y71063D01*
X238189Y76772D02*
X244291D01*
X235039Y79921D02*
X238189Y76772D01*
X244291D02*
X249213Y71850D01*
X231972Y75787D02*
X235039Y78854D01*
Y79921D01*
X222047Y72835D02*
X223024Y73811D01*
X222047Y76772D02*
X223031Y75787D01*
X231972D01*
X187370Y124271D02*
X187410Y124311D01*
X198043D01*
X187370Y109271D02*
X187410Y109311D01*
X198043D01*
X203949D02*
Y124311D01*
Y130358D01*
X183496Y101665D02*
Y104811D01*
X56102Y141339D02*
Y145669D01*
Y125591D02*
Y129921D01*
Y141339D01*
X59449Y149016D02*
X64567D01*
X56102Y145669D02*
X59449Y149016D01*
X154575Y131232D02*
X161996Y123811D01*
X154449Y126311D02*
X154496D01*
X159996Y120811D01*
X154472Y120835D02*
X157996Y117311D01*
X164996Y121311D02*
X167956Y124271D01*
X171622D01*
X164996Y121311D02*
X167036Y119271D01*
X171622D01*
X164996Y112311D02*
X168036Y109271D01*
X171622D01*
X164996Y112311D02*
Y121311D01*
X181956Y124271D02*
X187370D01*
X180956Y129271D02*
X187370D01*
X201496Y132811D02*
X203949Y130358D01*
X179496Y132811D02*
X201496D01*
X175956Y129271D02*
X179496Y132811D01*
X171622Y129271D02*
X175956D01*
X235736Y70193D02*
X237394Y71850D01*
X241339D01*
X211842Y76638D02*
X211984Y76780D01*
X48425Y125197D02*
X50262D01*
X49343D01*
Y130707D01*
X48425Y129788D01*
Y145537D02*
X49343Y146455D01*
X51180D01*
X52099Y145537D01*
Y141863D01*
X51180Y140945D01*
X49343D01*
X48425Y141863D01*
Y145537D01*
X162598Y128150D02*
X164173Y129724D01*
X162598Y131298D01*
X47441Y53347D02*
X49278D01*
X48359D01*
Y58856D01*
X47441Y57938D01*
X46457Y91403D02*
X47375Y92321D01*
X49212D01*
X50130Y91403D01*
Y87729D01*
X49212Y86811D01*
X47375D01*
X46457Y87729D01*
Y91403D01*
D72*
X129921Y42421D02*
X130020Y42323D01*
X129921Y42421D02*
Y44291D01*
X128563Y45650D02*
X129921Y44291D01*
X125197Y45650D02*
X128563D01*
X139311Y68366D02*
X141732Y65945D01*
X127165Y68366D02*
X139311D01*
X134390Y103799D02*
X135827Y102362D01*
X127165Y103799D02*
X134390D01*
X151496Y134311D02*
X151496Y113189D01*
X151496Y98504D01*
X148543Y110236D02*
X151496Y113189D01*
X137795Y110236D02*
X148543D01*
X135827Y112205D02*
X137795Y110236D01*
X123031Y112205D02*
X135827D01*
X121063Y110236D02*
X123031Y112205D01*
X121063Y79724D02*
Y110236D01*
Y43307D02*
Y79724D01*
Y43307D02*
X122047Y42323D01*
X130020D01*
X128661Y81083D02*
X131004Y78740D01*
X125197Y81083D02*
X128661D01*
X130020Y77756D02*
X131004Y78740D01*
X121063Y79724D02*
X123031Y77756D01*
X130020D01*
X135827Y102362D02*
X148622D01*
X73819Y49213D02*
Y55118D01*
X75256Y56555D02*
X78937D01*
X73819Y55118D02*
X75256Y56555D01*
X73819Y49213D02*
X75787Y47244D01*
X78937Y66555D02*
X86004D01*
X96909Y55650D01*
X103150D01*
X88681Y41240D02*
X93090Y45650D01*
X85827Y38386D02*
X88681Y41240D01*
X88583Y41339D02*
X88681Y41240D01*
X88583Y41339D02*
Y47244D01*
X84055Y36614D02*
X85827Y38386D01*
X80512Y36614D02*
X84055D01*
X93090Y45650D02*
X103150D01*
X75787Y47244D02*
X88583D01*
X86988Y51555D02*
X88583Y53150D01*
X78937Y51555D02*
X86988D01*
X88583Y53150D02*
X91083Y50650D01*
X103150D01*
X96457Y61024D02*
X96831Y60650D01*
X103150D01*
X107283Y47244D02*
Y75787D01*
X105315Y77756D02*
X107283Y75787D01*
X97342Y77756D02*
X105315D01*
X105689Y45650D02*
X107283Y47244D01*
X103150Y45650D02*
X105689D01*
X96457Y72835D02*
Y72933D01*
X91634Y77756D02*
X96457Y72933D01*
Y72835D02*
X96988Y73366D01*
X101181D01*
X93405Y81693D02*
X97342Y77756D01*
X92520Y81693D02*
X93405D01*
X97342Y77756D02*
X100669Y81083D01*
X103150D01*
X74803Y83661D02*
Y90551D01*
X76240Y91988D01*
X78937D01*
X74803Y83661D02*
X76772Y81693D01*
X92520D01*
X91909Y86988D02*
X92520Y87598D01*
X78937Y86988D02*
X91909D01*
X92520Y87598D02*
X94035Y86083D01*
X103150D01*
X78937Y101988D02*
X85020D01*
X95925Y91083D01*
X103150D01*
X96457Y95472D02*
X97067Y96083D01*
X103150D01*
X93307Y38386D02*
X97441D01*
X65945Y43307D02*
X66732Y44094D01*
X71063D01*
X65945Y37402D02*
X66732Y36614D01*
X71063D01*
X49213Y41142D02*
Y42323D01*
X52165Y45276D01*
X61910D02*
X62008Y45177D01*
Y37402D02*
Y45177D01*
X49213Y26378D02*
Y33661D01*
X58268D02*
X62008Y37402D01*
X49213Y33661D02*
X58268D01*
X62008Y37402D02*
X65945D01*
X59587Y56555D02*
X62008Y54134D01*
X56890Y56555D02*
X59587D01*
X62008Y45374D02*
X64961Y48327D01*
X62008Y45374D02*
Y54134D01*
X51831Y61555D02*
X56890D01*
X64961Y48327D02*
Y77658D01*
X61909Y80709D02*
X64961Y77658D01*
X61909Y80709D02*
Y89665D01*
X56890Y91988D02*
X59587D01*
X61909Y89665D01*
X48228Y72638D02*
X48425Y72835D01*
X60236D01*
X17500Y71378D02*
X35118D01*
X41339Y65158D01*
Y88583D02*
Y96653D01*
X34921Y82165D02*
X41339Y88583D01*
X17500Y82165D02*
X34921D01*
X48228Y104134D02*
X52362Y108268D01*
X58268D01*
X200787Y52067D02*
X200886Y52165D01*
X204724D01*
X208563D02*
X208661Y52067D01*
X204724Y52165D02*
X208563D01*
X53150Y80709D02*
X56201D01*
X52165Y45276D02*
X56201D01*
X60650Y66555D02*
X61024Y66929D01*
X56890Y66555D02*
X60650D01*
X41339Y72638D02*
Y75787D01*
X48228Y65158D02*
X51831Y61555D01*
X41339Y65158D02*
X48228D01*
Y96653D02*
X48563Y96988D01*
X41339Y96653D02*
X48228D01*
X48563Y96988D02*
X56890D01*
X41339Y104134D02*
Y107283D01*
X60650Y101988D02*
X61024Y102362D01*
X56890Y101988D02*
X60650D01*
X159449Y38386D02*
X159449Y38386D01*
Y41339D01*
X180315Y42421D02*
X182185Y44291D01*
X176378Y34449D02*
X180315Y38386D01*
Y42421D01*
X187795Y44193D02*
X187894Y44291D01*
X187795Y38386D02*
Y44193D01*
X185039Y38386D02*
X187795D01*
X168307Y34449D02*
X176378D01*
X165354Y31496D02*
X168307Y34449D01*
X165354Y23622D02*
Y31496D01*
Y23622D02*
X167323Y21654D01*
X163386Y86614D02*
Y93504D01*
X154528Y102362D02*
X163386Y93504D01*
X156496Y72736D02*
Y79724D01*
Y72736D02*
X159350Y69882D01*
X150591D02*
X153642D01*
X219298Y96624D02*
X243928D01*
X151496Y98504D02*
X156496Y93504D01*
X218504Y44291D02*
Y48228D01*
X223425Y44291D02*
Y48228D01*
X228346Y44291D02*
Y48228D01*
X233268Y44291D02*
Y48228D01*
X218504Y38386D02*
X223425D01*
X228346D01*
X233268D01*
Y35433D02*
Y38386D01*
X149606Y75787D02*
X153543D01*
X227362Y21654D02*
X245079Y39370D01*
X167323Y21654D02*
X227362Y21654D01*
X227559Y79921D02*
Y81890D01*
X230592Y84923D01*
X231299Y65945D02*
Y69685D01*
X207579Y83661D02*
X217496Y93579D01*
Y98425D01*
X219298Y96624D01*
X243928D02*
X254921Y85630D01*
X245079Y39370D02*
Y57087D01*
X254921Y66929D01*
X217496Y98425D02*
Y103811D01*
X254921Y66929D02*
Y85630D01*
X227496Y90811D02*
Y93957D01*
X203949Y109311D02*
X214996D01*
X151496Y134311D02*
X153496Y136311D01*
X207996D01*
X225756Y122811D02*
X225953D01*
X221496D02*
X225756D01*
X217496Y103811D02*
Y111811D01*
Y118811D01*
X214996Y109311D02*
X217496Y111811D01*
X230592Y84923D02*
X238108D01*
X207996Y136311D02*
X221496Y122811D01*
X217496Y118811D02*
X221496Y122811D01*
D73*
X135728Y42323D02*
X138779D01*
X131280Y60650D02*
X131890Y60039D01*
X125197Y60650D02*
X131280D01*
X131358Y73366D02*
X131890Y72835D01*
X127165Y73366D02*
X131358D01*
X139764Y78740D02*
X142717Y75787D01*
X143701D01*
X136713Y78740D02*
X139764D01*
X225953Y116126D02*
Y122811D01*
X131280Y96083D02*
X131890Y95472D01*
X125197Y96083D02*
X131280D01*
X131358Y108799D02*
X131890Y108268D01*
X127165Y108799D02*
X131358D01*
X96457Y108268D02*
X96988Y108799D01*
X101181D01*
X103347Y34449D02*
Y38386D01*
X75787Y40354D02*
X78150Y42717D01*
X80512D01*
X71063Y40354D02*
X75787D01*
X49114Y16831D02*
X55118Y10827D01*
X72362D02*
X82362D01*
X55118D02*
X72362D01*
X187795Y15551D02*
X187992Y15748D01*
X183071Y15551D02*
X187795D01*
X229496Y110811D02*
Y119268D01*
X233039Y122811D01*
X225756Y115929D02*
X225953Y116126D01*
X229496Y105693D02*
Y110811D01*
X233236Y100024D02*
X233496Y99764D01*
X233236Y100024D02*
Y105693D01*
D74*
X158661Y10827D02*
X158661Y10827D01*
X132362Y10827D02*
X158661D01*
X170866Y8071D02*
X183071D01*
X168110Y10827D02*
X170866Y8071D01*
X183071D02*
X220669D01*
X249016Y36417D01*
Y56102D02*
X258858Y65945D01*
X249016Y36417D02*
Y56102D01*
X258858Y65945D02*
Y87598D01*
X246693Y99764D02*
X258858Y87598D01*
X225756Y101406D02*
Y105693D01*
Y101406D02*
X227496Y99665D01*
X233496Y99764D02*
X246693D01*
X227496Y99665D02*
X227594Y99764D01*
X233496D01*
X238108Y84923D02*
X241339Y81693D01*
X233496Y89535D02*
X238108Y84923D01*
X238496Y106811D02*
X242543D01*
X253425D02*
X259842Y100394D01*
X248449Y106811D02*
X253425D01*
X233496Y89535D02*
Y93858D01*
D75*
X122362Y10827D02*
D03*
X82362D02*
D03*
X102362D02*
D03*
X92362D02*
D03*
X72362D02*
D03*
D76*
X132362Y10827D02*
D03*
D77*
X191102Y27559D02*
D03*
X181102D02*
D03*
D78*
X171102D02*
D03*
D79*
X17500Y60590D02*
D03*
Y71378D02*
D03*
Y82165D02*
D03*
Y92953D02*
D03*
X27500Y55197D02*
D03*
Y65984D02*
D03*
Y76772D02*
D03*
Y87559D02*
D03*
D80*
Y98347D02*
D03*
D81*
X259842Y53150D02*
D03*
Y100394D02*
D03*
D82*
X249213Y71850D02*
D03*
Y81693D02*
D03*
X241339Y71850D02*
D03*
D83*
Y81693D02*
D03*
D84*
X138779Y42323D02*
D03*
X131890Y60039D02*
D03*
Y72835D02*
D03*
Y95472D02*
D03*
X96457Y61024D02*
D03*
X131890Y108268D02*
D03*
X75787Y40354D02*
D03*
X96457Y108268D02*
D03*
X159449Y41339D02*
D03*
X163386Y86614D02*
D03*
X156496Y93504D02*
D03*
X163386Y65945D02*
D03*
X156496Y79724D02*
D03*
X150591Y69882D02*
D03*
X139764Y78740D02*
D03*
X187992Y15748D02*
D03*
X171260Y86614D02*
D03*
X185039Y79724D02*
D03*
X180118D02*
D03*
X174213Y98425D02*
D03*
X175558Y92881D02*
D03*
X196850Y92520D02*
D03*
X196923Y78735D02*
D03*
X227496Y90811D02*
D03*
X194882Y104331D02*
D03*
X192913Y97441D02*
D03*
X233268Y35433D02*
D03*
X174213Y71850D02*
D03*
X96457Y72835D02*
D03*
X53150Y80709D02*
D03*
X61024Y66929D02*
D03*
Y102362D02*
D03*
X41339Y107283D02*
D03*
X96457Y95472D02*
D03*
X204724Y52165D02*
D03*
X184055Y56102D02*
D03*
X52165Y45276D02*
D03*
X130905Y147638D02*
D03*
X183496Y104811D02*
D03*
X164996Y121311D02*
D03*
X103347Y34449D02*
D03*
X41339Y75787D02*
D03*
X229496Y110811D02*
D03*
X238496Y106811D02*
D03*
X231299Y65945D02*
D03*
X185039Y38386D02*
D03*
M02*
