M48
;Layer_Color=9474304
;FILE_FORMAT=2:5
INCH,LZ
;TYPE=PLATED
T1F00S00C0.01181
T2F00S00C0.03543
T3F00S00C0.03937
T4F00S00C0.09055
%
T01
X0187992Y0015748
X0233268Y0035433
X0231299Y0065945
X0227496Y0090811
X0229496Y0110811
X0238496Y0106811
X0194882Y0104331
X0192913Y0097441
X019685Y009252
X0196923Y0078735
X0185039Y0079724
X0180118
X0174213Y007185
X0163386Y0065945
X0150591Y0069882
X0156496Y0079724
X0163386Y0086614
X017126
X0175558Y0092881
X0174213Y0098425
X0183496Y0104811
X0164996Y0121311
X0156496Y0093504
X013189Y0095472
Y0108268
Y0072835
Y0060039
X0138779Y0042323
X0159449Y0041339
X0185039Y0038386
X0184055Y0056102
X0204724Y0052165
X0139764Y007874
X0096457Y0072835
Y0061024
X0103347Y0034449
X0075787Y0040354
X0052165Y0045276
X0061024Y0066929
X005315Y0080709
X0061024Y0102362
X0096457Y0108268
Y0095472
X0130905Y0147638
X0041339Y0107283
Y0075787
T02
X0241339Y007185
X0249213
Y0081693
X0241339
X0191102Y0027559
X0181102
X0171102
X00275Y0055197
Y0065984
Y0076772
Y0087559
Y0098347
X00175Y0092953
Y0082165
Y0071378
Y006059
T03
X0072362Y0010827
X0082362
X0092362
X0102362
X0122362
X0132362Y0010827
T04
X0259842Y005315
Y0100394
M30
