G04*
G04 #@! TF.GenerationSoftware,Altium Limited,Altium Designer,22.3.1 (43)*
G04*
G04 Layer_Color=8388736*
%FSLAX25Y25*%
%MOIN*%
G70*
G04*
G04 #@! TF.SameCoordinates,38A5807E-C0B9-4130-B18F-62B70C513CF8*
G04*
G04*
G04 #@! TF.FilePolarity,Negative*
G04*
G01*
G75*
%ADD34C,0.01181*%
%ADD35R,0.07874X0.86614*%
G04:AMPARAMS|DCode=36|XSize=35.5mil|YSize=29.59mil|CornerRadius=8.4mil|HoleSize=0mil|Usage=FLASHONLY|Rotation=180.000|XOffset=0mil|YOffset=0mil|HoleType=Round|Shape=RoundedRectangle|*
%AMROUNDEDRECTD36*
21,1,0.03550,0.01280,0,0,180.0*
21,1,0.01870,0.02959,0,0,180.0*
1,1,0.01680,-0.00935,0.00640*
1,1,0.01680,0.00935,0.00640*
1,1,0.01680,0.00935,-0.00640*
1,1,0.01680,-0.00935,-0.00640*
%
%ADD36ROUNDEDRECTD36*%
G04:AMPARAMS|DCode=37|XSize=15.81mil|YSize=55.18mil|CornerRadius=3.77mil|HoleSize=0mil|Usage=FLASHONLY|Rotation=90.000|XOffset=0mil|YOffset=0mil|HoleType=Round|Shape=RoundedRectangle|*
%AMROUNDEDRECTD37*
21,1,0.01581,0.04764,0,0,90.0*
21,1,0.00827,0.05518,0,0,90.0*
1,1,0.00754,0.02382,0.00413*
1,1,0.00754,0.02382,-0.00413*
1,1,0.00754,-0.02382,-0.00413*
1,1,0.00754,-0.02382,0.00413*
%
%ADD37ROUNDEDRECTD37*%
G04:AMPARAMS|DCode=38|XSize=15.81mil|YSize=55.18mil|CornerRadius=3.77mil|HoleSize=0mil|Usage=FLASHONLY|Rotation=0.000|XOffset=0mil|YOffset=0mil|HoleType=Round|Shape=RoundedRectangle|*
%AMROUNDEDRECTD38*
21,1,0.01581,0.04764,0,0,0.0*
21,1,0.00827,0.05518,0,0,0.0*
1,1,0.00754,0.00413,-0.02382*
1,1,0.00754,-0.00413,-0.02382*
1,1,0.00754,-0.00413,0.02382*
1,1,0.00754,0.00413,0.02382*
%
%ADD38ROUNDEDRECTD38*%
G04:AMPARAMS|DCode=39|XSize=37.47mil|YSize=27.62mil|CornerRadius=4.36mil|HoleSize=0mil|Usage=FLASHONLY|Rotation=0.000|XOffset=0mil|YOffset=0mil|HoleType=Round|Shape=RoundedRectangle|*
%AMROUNDEDRECTD39*
21,1,0.03747,0.01890,0,0,0.0*
21,1,0.02874,0.02762,0,0,0.0*
1,1,0.00872,0.01437,-0.00945*
1,1,0.00872,-0.01437,-0.00945*
1,1,0.00872,-0.01437,0.00945*
1,1,0.00872,0.01437,0.00945*
%
%ADD39ROUNDEDRECTD39*%
G04:AMPARAMS|DCode=40|XSize=31.56mil|YSize=47.31mil|CornerRadius=6.13mil|HoleSize=0mil|Usage=FLASHONLY|Rotation=270.000|XOffset=0mil|YOffset=0mil|HoleType=Round|Shape=RoundedRectangle|*
%AMROUNDEDRECTD40*
21,1,0.03156,0.03504,0,0,270.0*
21,1,0.01929,0.04731,0,0,270.0*
1,1,0.01227,-0.01752,-0.00965*
1,1,0.01227,-0.01752,0.00965*
1,1,0.01227,0.01752,0.00965*
1,1,0.01227,0.01752,-0.00965*
%
%ADD40ROUNDEDRECTD40*%
G04:AMPARAMS|DCode=41|XSize=37.47mil|YSize=27.62mil|CornerRadius=4.36mil|HoleSize=0mil|Usage=FLASHONLY|Rotation=270.000|XOffset=0mil|YOffset=0mil|HoleType=Round|Shape=RoundedRectangle|*
%AMROUNDEDRECTD41*
21,1,0.03747,0.01890,0,0,270.0*
21,1,0.02874,0.02762,0,0,270.0*
1,1,0.00872,-0.00945,-0.01437*
1,1,0.00872,-0.00945,0.01437*
1,1,0.00872,0.00945,0.01437*
1,1,0.00872,0.00945,-0.01437*
%
%ADD41ROUNDEDRECTD41*%
G04:AMPARAMS|DCode=42|XSize=110.3mil|YSize=70.93mil|CornerRadius=8.69mil|HoleSize=0mil|Usage=FLASHONLY|Rotation=270.000|XOffset=0mil|YOffset=0mil|HoleType=Round|Shape=RoundedRectangle|*
%AMROUNDEDRECTD42*
21,1,0.11030,0.05354,0,0,270.0*
21,1,0.09291,0.07093,0,0,270.0*
1,1,0.01739,-0.02677,-0.04646*
1,1,0.01739,-0.02677,0.04646*
1,1,0.01739,0.02677,0.04646*
1,1,0.01739,0.02677,-0.04646*
%
%ADD42ROUNDEDRECTD42*%
G04:AMPARAMS|DCode=43|XSize=27.62mil|YSize=35.5mil|CornerRadius=5.54mil|HoleSize=0mil|Usage=FLASHONLY|Rotation=90.000|XOffset=0mil|YOffset=0mil|HoleType=Round|Shape=RoundedRectangle|*
%AMROUNDEDRECTD43*
21,1,0.02762,0.02441,0,0,90.0*
21,1,0.01654,0.03550,0,0,90.0*
1,1,0.01109,0.01221,0.00827*
1,1,0.01109,0.01221,-0.00827*
1,1,0.01109,-0.01221,-0.00827*
1,1,0.01109,-0.01221,0.00827*
%
%ADD43ROUNDEDRECTD43*%
G04:AMPARAMS|DCode=44|XSize=27.62mil|YSize=51.24mil|CornerRadius=5.54mil|HoleSize=0mil|Usage=FLASHONLY|Rotation=270.000|XOffset=0mil|YOffset=0mil|HoleType=Round|Shape=RoundedRectangle|*
%AMROUNDEDRECTD44*
21,1,0.02762,0.04016,0,0,270.0*
21,1,0.01654,0.05124,0,0,270.0*
1,1,0.01109,-0.02008,-0.00827*
1,1,0.01109,-0.02008,0.00827*
1,1,0.01109,0.02008,0.00827*
1,1,0.01109,0.02008,-0.00827*
%
%ADD44ROUNDEDRECTD44*%
G04:AMPARAMS|DCode=45|XSize=59.12mil|YSize=39.43mil|CornerRadius=7.32mil|HoleSize=0mil|Usage=FLASHONLY|Rotation=90.000|XOffset=0mil|YOffset=0mil|HoleType=Round|Shape=RoundedRectangle|*
%AMROUNDEDRECTD45*
21,1,0.05912,0.02480,0,0,90.0*
21,1,0.04449,0.03943,0,0,90.0*
1,1,0.01463,0.01240,0.02224*
1,1,0.01463,0.01240,-0.02224*
1,1,0.01463,-0.01240,-0.02224*
1,1,0.01463,-0.01240,0.02224*
%
%ADD45ROUNDEDRECTD45*%
G04:AMPARAMS|DCode=46|XSize=23.68mil|YSize=39.43mil|CornerRadius=4.95mil|HoleSize=0mil|Usage=FLASHONLY|Rotation=90.000|XOffset=0mil|YOffset=0mil|HoleType=Round|Shape=RoundedRectangle|*
%AMROUNDEDRECTD46*
21,1,0.02368,0.02953,0,0,90.0*
21,1,0.01378,0.03943,0,0,90.0*
1,1,0.00991,0.01476,0.00689*
1,1,0.00991,0.01476,-0.00689*
1,1,0.00991,-0.01476,-0.00689*
1,1,0.00991,-0.01476,0.00689*
%
%ADD46ROUNDEDRECTD46*%
G04:AMPARAMS|DCode=47|XSize=35.5mil|YSize=39.43mil|CornerRadius=6.72mil|HoleSize=0mil|Usage=FLASHONLY|Rotation=90.000|XOffset=0mil|YOffset=0mil|HoleType=Round|Shape=RoundedRectangle|*
%AMROUNDEDRECTD47*
21,1,0.03550,0.02598,0,0,90.0*
21,1,0.02205,0.03943,0,0,90.0*
1,1,0.01345,0.01299,0.01102*
1,1,0.01345,0.01299,-0.01102*
1,1,0.01345,-0.01299,-0.01102*
1,1,0.01345,-0.01299,0.01102*
%
%ADD47ROUNDEDRECTD47*%
G04:AMPARAMS|DCode=48|XSize=53.21mil|YSize=31.56mil|CornerRadius=4.76mil|HoleSize=0mil|Usage=FLASHONLY|Rotation=270.000|XOffset=0mil|YOffset=0mil|HoleType=Round|Shape=RoundedRectangle|*
%AMROUNDEDRECTD48*
21,1,0.05321,0.02205,0,0,270.0*
21,1,0.04370,0.03156,0,0,270.0*
1,1,0.00951,-0.01102,-0.02185*
1,1,0.00951,-0.01102,0.02185*
1,1,0.00951,0.01102,0.02185*
1,1,0.00951,0.01102,-0.02185*
%
%ADD48ROUNDEDRECTD48*%
G04:AMPARAMS|DCode=49|XSize=17.78mil|YSize=27.62mil|CornerRadius=4.07mil|HoleSize=0mil|Usage=FLASHONLY|Rotation=270.000|XOffset=0mil|YOffset=0mil|HoleType=Round|Shape=RoundedRectangle|*
%AMROUNDEDRECTD49*
21,1,0.01778,0.01949,0,0,270.0*
21,1,0.00965,0.02762,0,0,270.0*
1,1,0.00813,-0.00974,-0.00482*
1,1,0.00813,-0.00974,0.00482*
1,1,0.00813,0.00974,0.00482*
1,1,0.00813,0.00974,-0.00482*
%
%ADD49ROUNDEDRECTD49*%
G04:AMPARAMS|DCode=50|XSize=53.21mil|YSize=31.56mil|CornerRadius=4.76mil|HoleSize=0mil|Usage=FLASHONLY|Rotation=0.000|XOffset=0mil|YOffset=0mil|HoleType=Round|Shape=RoundedRectangle|*
%AMROUNDEDRECTD50*
21,1,0.05321,0.02205,0,0,0.0*
21,1,0.04370,0.03156,0,0,0.0*
1,1,0.00951,0.02185,-0.01102*
1,1,0.00951,-0.02185,-0.01102*
1,1,0.00951,-0.02185,0.01102*
1,1,0.00951,0.02185,0.01102*
%
%ADD50ROUNDEDRECTD50*%
G04:AMPARAMS|DCode=51|XSize=35.5mil|YSize=29.59mil|CornerRadius=8.4mil|HoleSize=0mil|Usage=FLASHONLY|Rotation=270.000|XOffset=0mil|YOffset=0mil|HoleType=Round|Shape=RoundedRectangle|*
%AMROUNDEDRECTD51*
21,1,0.03550,0.01280,0,0,270.0*
21,1,0.01870,0.02959,0,0,270.0*
1,1,0.01680,-0.00640,-0.00935*
1,1,0.01680,-0.00640,0.00935*
1,1,0.01680,0.00640,0.00935*
1,1,0.01680,0.00640,-0.00935*
%
%ADD51ROUNDEDRECTD51*%
%ADD52R,0.08661X0.08661*%
%ADD53C,0.04337*%
G04:AMPARAMS|DCode=54|XSize=27.62mil|YSize=47.31mil|CornerRadius=4.36mil|HoleSize=0mil|Usage=FLASHONLY|Rotation=180.000|XOffset=0mil|YOffset=0mil|HoleType=Round|Shape=RoundedRectangle|*
%AMROUNDEDRECTD54*
21,1,0.02762,0.03858,0,0,180.0*
21,1,0.01890,0.04731,0,0,180.0*
1,1,0.00872,-0.00945,0.01929*
1,1,0.00872,0.00945,0.01929*
1,1,0.00872,0.00945,-0.01929*
1,1,0.00872,-0.00945,-0.01929*
%
%ADD54ROUNDEDRECTD54*%
G04:AMPARAMS|DCode=55|XSize=47.31mil|YSize=27.62mil|CornerRadius=5.54mil|HoleSize=0mil|Usage=FLASHONLY|Rotation=180.000|XOffset=0mil|YOffset=0mil|HoleType=Round|Shape=RoundedRectangle|*
%AMROUNDEDRECTD55*
21,1,0.04731,0.01654,0,0,180.0*
21,1,0.03622,0.02762,0,0,180.0*
1,1,0.01109,-0.01811,0.00827*
1,1,0.01109,0.01811,0.00827*
1,1,0.01109,0.01811,-0.00827*
1,1,0.01109,-0.01811,-0.00827*
%
%ADD55ROUNDEDRECTD55*%
G04:AMPARAMS|DCode=56|XSize=63.12mil|YSize=110.36mil|CornerRadius=12.27mil|HoleSize=0mil|Usage=FLASHONLY|Rotation=180.000|XOffset=0mil|YOffset=0mil|HoleType=Round|Shape=RoundedRectangle|*
%AMROUNDEDRECTD56*
21,1,0.06312,0.08583,0,0,180.0*
21,1,0.03858,0.11036,0,0,180.0*
1,1,0.02454,-0.01929,0.04291*
1,1,0.02454,0.01929,0.04291*
1,1,0.02454,0.01929,-0.04291*
1,1,0.02454,-0.01929,-0.04291*
%
%ADD56ROUNDEDRECTD56*%
G04:AMPARAMS|DCode=57|XSize=59.12mil|YSize=106.36mil|CornerRadius=10.27mil|HoleSize=0mil|Usage=FLASHONLY|Rotation=180.000|XOffset=0mil|YOffset=0mil|HoleType=Round|Shape=RoundedRectangle|*
%AMROUNDEDRECTD57*
21,1,0.05912,0.08583,0,0,180.0*
21,1,0.03858,0.10636,0,0,180.0*
1,1,0.02054,-0.01929,0.04291*
1,1,0.02054,0.01929,0.04291*
1,1,0.02054,0.01929,-0.04291*
1,1,0.02054,-0.01929,-0.04291*
%
%ADD57ROUNDEDRECTD57*%
G04:AMPARAMS|DCode=58|XSize=63.12mil|YSize=110.36mil|CornerRadius=12.27mil|HoleSize=0mil|Usage=FLASHONLY|Rotation=90.000|XOffset=0mil|YOffset=0mil|HoleType=Round|Shape=RoundedRectangle|*
%AMROUNDEDRECTD58*
21,1,0.06312,0.08583,0,0,90.0*
21,1,0.03858,0.11036,0,0,90.0*
1,1,0.02454,0.04291,0.01929*
1,1,0.02454,0.04291,-0.01929*
1,1,0.02454,-0.04291,-0.01929*
1,1,0.02454,-0.04291,0.01929*
%
%ADD58ROUNDEDRECTD58*%
G04:AMPARAMS|DCode=59|XSize=59.12mil|YSize=106.36mil|CornerRadius=10.27mil|HoleSize=0mil|Usage=FLASHONLY|Rotation=90.000|XOffset=0mil|YOffset=0mil|HoleType=Round|Shape=RoundedRectangle|*
%AMROUNDEDRECTD59*
21,1,0.05912,0.08583,0,0,90.0*
21,1,0.03858,0.10636,0,0,90.0*
1,1,0.02054,0.04291,0.01929*
1,1,0.02054,0.04291,-0.01929*
1,1,0.02054,-0.04291,-0.01929*
1,1,0.02054,-0.04291,0.01929*
%
%ADD59ROUNDEDRECTD59*%
%ADD60R,0.11030X0.03156*%
G04:AMPARAMS|DCode=61|XSize=31.56mil|YSize=110.3mil|CornerRadius=6.13mil|HoleSize=0mil|Usage=FLASHONLY|Rotation=270.000|XOffset=0mil|YOffset=0mil|HoleType=Round|Shape=RoundedRectangle|*
%AMROUNDEDRECTD61*
21,1,0.03156,0.09803,0,0,270.0*
21,1,0.01929,0.11030,0,0,270.0*
1,1,0.01227,-0.04902,-0.00965*
1,1,0.01227,-0.04902,0.00965*
1,1,0.01227,0.04902,0.00965*
1,1,0.01227,0.04902,-0.00965*
%
%ADD61ROUNDEDRECTD61*%
%ADD62C,0.06699*%
G04:AMPARAMS|DCode=63|XSize=66.99mil|YSize=66.99mil|CornerRadius=17.75mil|HoleSize=0mil|Usage=FLASHONLY|Rotation=0.000|XOffset=0mil|YOffset=0mil|HoleType=Round|Shape=RoundedRectangle|*
%AMROUNDEDRECTD63*
21,1,0.06699,0.03150,0,0,0.0*
21,1,0.03150,0.06699,0,0,0.0*
1,1,0.03550,0.01575,-0.01575*
1,1,0.03550,-0.01575,-0.01575*
1,1,0.03550,-0.01575,0.01575*
1,1,0.03550,0.01575,0.01575*
%
%ADD63ROUNDEDRECTD63*%
%ADD64P,0.06825X8X22.5*%
G04:AMPARAMS|DCode=65|XSize=63.06mil|YSize=63.06mil|CornerRadius=16.76mil|HoleSize=0mil|Usage=FLASHONLY|Rotation=0.000|XOffset=0mil|YOffset=0mil|HoleType=Round|Shape=RoundedRectangle|*
%AMROUNDEDRECTD65*
21,1,0.06306,0.02953,0,0,0.0*
21,1,0.02953,0.06306,0,0,0.0*
1,1,0.03353,0.01476,-0.01476*
1,1,0.03353,-0.01476,-0.01476*
1,1,0.03353,-0.01476,0.01476*
1,1,0.03353,0.01476,0.01476*
%
%ADD65ROUNDEDRECTD65*%
%ADD66C,0.00400*%
%ADD67C,0.07093*%
%ADD68R,0.07093X0.07093*%
%ADD69C,0.13786*%
%ADD70C,0.05912*%
G04:AMPARAMS|DCode=71|XSize=59.12mil|YSize=59.12mil|CornerRadius=15.78mil|HoleSize=0mil|Usage=FLASHONLY|Rotation=90.000|XOffset=0mil|YOffset=0mil|HoleType=Round|Shape=RoundedRectangle|*
%AMROUNDEDRECTD71*
21,1,0.05912,0.02756,0,0,90.0*
21,1,0.02756,0.05912,0,0,90.0*
1,1,0.03156,0.01378,0.01378*
1,1,0.03156,0.01378,-0.01378*
1,1,0.03156,-0.01378,-0.01378*
1,1,0.03156,-0.01378,0.01378*
%
%ADD71ROUNDEDRECTD71*%
D34*
X48425Y125197D02*
X50262D01*
X49343D01*
Y130707D01*
X48425Y129788D01*
Y145537D02*
X49343Y146455D01*
X51180D01*
X52099Y145537D01*
Y141863D01*
X51180Y140945D01*
X49343D01*
X48425Y141863D01*
Y145537D01*
X162598Y128150D02*
X164173Y129724D01*
X162598Y131298D01*
X46457Y91403D02*
X47375Y92321D01*
X49212D01*
X50130Y91403D01*
Y87729D01*
X49212Y86811D01*
X47375D01*
X46457Y87729D01*
Y91403D01*
Y53347D02*
X48293D01*
X47375D01*
Y58856D01*
X46457Y57938D01*
D35*
X114173Y82677D02*
D03*
D36*
X208661Y46358D02*
D03*
Y52067D02*
D03*
X200787Y46358D02*
D03*
Y52067D02*
D03*
X183496Y95957D02*
D03*
Y101665D02*
D03*
X227496Y93957D02*
D03*
Y99665D02*
D03*
D37*
X168764Y79138D02*
D03*
Y77169D02*
D03*
Y75201D02*
D03*
Y73232D02*
D03*
Y71264D02*
D03*
Y69295D02*
D03*
Y67327D02*
D03*
Y65358D02*
D03*
Y63390D02*
D03*
Y61421D02*
D03*
Y59453D02*
D03*
Y57484D02*
D03*
X202228D02*
D03*
Y59453D02*
D03*
Y61421D02*
D03*
Y63390D02*
D03*
Y65358D02*
D03*
Y67327D02*
D03*
Y69295D02*
D03*
Y71264D02*
D03*
Y73232D02*
D03*
Y75201D02*
D03*
Y77169D02*
D03*
Y79138D02*
D03*
D38*
X174669Y51579D02*
D03*
X176638D02*
D03*
X178606D02*
D03*
X180575D02*
D03*
X182543D02*
D03*
X184512D02*
D03*
X186480D02*
D03*
X188449D02*
D03*
X190417D02*
D03*
X192386D02*
D03*
X194354D02*
D03*
X196323D02*
D03*
Y85043D02*
D03*
X194354D02*
D03*
X192386D02*
D03*
X190417D02*
D03*
X188449D02*
D03*
X186480D02*
D03*
X184512D02*
D03*
X182543D02*
D03*
X180575D02*
D03*
X178606D02*
D03*
X176638D02*
D03*
X174669D02*
D03*
D39*
X87598Y62992D02*
D03*
Y57087D02*
D03*
X93504Y52165D02*
D03*
Y58071D02*
D03*
Y95473D02*
D03*
Y89567D02*
D03*
X66929Y43307D02*
D03*
Y37402D02*
D03*
X87598Y92520D02*
D03*
Y98425D02*
D03*
X218504Y44291D02*
D03*
Y38386D02*
D03*
X223425D02*
D03*
Y44291D02*
D03*
X228346D02*
D03*
Y38386D02*
D03*
X233268D02*
D03*
Y44291D02*
D03*
Y54134D02*
D03*
Y48228D02*
D03*
X228346Y54134D02*
D03*
Y48228D02*
D03*
X223425Y54134D02*
D03*
Y48228D02*
D03*
X218504Y54134D02*
D03*
Y48228D02*
D03*
X233496Y99764D02*
D03*
Y93858D02*
D03*
D40*
X127165Y60492D02*
D03*
Y65492D02*
D03*
X101181Y60492D02*
D03*
Y65492D02*
D03*
Y52697D02*
D03*
Y47697D02*
D03*
X127165Y52697D02*
D03*
Y47697D02*
D03*
Y73287D02*
D03*
Y78287D02*
D03*
X101181Y73287D02*
D03*
Y78287D02*
D03*
X127165Y98878D02*
D03*
Y103878D02*
D03*
X101181Y98878D02*
D03*
Y103878D02*
D03*
Y116673D02*
D03*
Y111673D02*
D03*
X127165Y116673D02*
D03*
Y111673D02*
D03*
Y86083D02*
D03*
Y91083D02*
D03*
X101181Y86083D02*
D03*
Y91083D02*
D03*
D41*
X140748Y60039D02*
D03*
X134843D02*
D03*
X162402Y62008D02*
D03*
X156496D02*
D03*
X140748Y95472D02*
D03*
X134843D02*
D03*
X140748Y90551D02*
D03*
X134843D02*
D03*
X242543Y106811D02*
D03*
X248449D02*
D03*
X203949Y109311D02*
D03*
X198043D02*
D03*
X203949Y124311D02*
D03*
X198043D02*
D03*
X97441Y33465D02*
D03*
X91535D02*
D03*
X139764Y71850D02*
D03*
X133858D02*
D03*
X154528Y102362D02*
D03*
X148622D02*
D03*
X143701Y75787D02*
D03*
X149606D02*
D03*
X154449Y131811D02*
D03*
X148543D02*
D03*
Y126311D02*
D03*
X154449D02*
D03*
Y120811D02*
D03*
X148543D02*
D03*
Y115311D02*
D03*
X154449D02*
D03*
X159449Y38386D02*
D03*
X165354D02*
D03*
Y44291D02*
D03*
X159449D02*
D03*
X62008Y125591D02*
D03*
X56102D02*
D03*
X62008Y129921D02*
D03*
X56102D02*
D03*
X62008Y141339D02*
D03*
X56102D02*
D03*
X62008Y145669D02*
D03*
X56102D02*
D03*
X159449Y75787D02*
D03*
X153543D02*
D03*
D42*
X200394Y38386D02*
D03*
X209055D02*
D03*
D43*
X69685Y74803D02*
D03*
X60236D02*
D03*
X69685Y110236D02*
D03*
X60236D02*
D03*
D44*
X78937Y86988D02*
D03*
Y91988D02*
D03*
Y96988D02*
D03*
Y101988D02*
D03*
X56890Y86988D02*
D03*
Y91988D02*
D03*
Y96988D02*
D03*
Y101988D02*
D03*
X56890Y66555D02*
D03*
Y61555D02*
D03*
Y56555D02*
D03*
Y51555D02*
D03*
X78937Y66555D02*
D03*
Y61555D02*
D03*
Y56555D02*
D03*
Y51555D02*
D03*
D45*
X82480Y42717D02*
D03*
D46*
Y36614D02*
D03*
X73032D02*
D03*
Y44094D02*
D03*
D47*
Y40354D02*
D03*
D48*
X89764Y39370D02*
D03*
X97244D02*
D03*
X189173Y97441D02*
D03*
X196653D02*
D03*
X180315Y38386D02*
D03*
X187795D02*
D03*
X233236Y122811D02*
D03*
X225756D02*
D03*
D49*
X74803Y110236D02*
D03*
X80709Y112205D02*
D03*
Y108268D02*
D03*
X74803Y74803D02*
D03*
X80709Y76772D02*
D03*
Y72835D02*
D03*
D50*
X41339Y104134D02*
D03*
Y96653D02*
D03*
X49213Y34646D02*
D03*
Y42126D02*
D03*
X172244Y16535D02*
D03*
Y9055D02*
D03*
X41339Y65158D02*
D03*
Y72638D02*
D03*
X48228Y104134D02*
D03*
Y96653D02*
D03*
Y72638D02*
D03*
Y65158D02*
D03*
D51*
X187894Y44291D02*
D03*
X182185D02*
D03*
X193799Y91535D02*
D03*
X188091D02*
D03*
X153642Y69882D02*
D03*
X159350D02*
D03*
X56201Y80709D02*
D03*
X61909D02*
D03*
X56201Y45276D02*
D03*
X61910D02*
D03*
X207579Y83661D02*
D03*
X201870D02*
D03*
D52*
X15748Y145669D02*
D03*
X232283Y7874D02*
D03*
D53*
X15748Y145669D02*
D03*
X232283Y7874D02*
D03*
D54*
X227559Y79921D02*
D03*
X235039D02*
D03*
Y69685D02*
D03*
X231299D02*
D03*
X227559D02*
D03*
X225756Y105693D02*
D03*
X229496D02*
D03*
X233236D02*
D03*
Y115929D02*
D03*
X225756D02*
D03*
D55*
X211024Y76772D02*
D03*
X222047D02*
D03*
Y72835D02*
D03*
X211024D02*
D03*
D56*
X159252Y11811D02*
D03*
D57*
X149803D02*
D03*
D58*
X49213Y17913D02*
D03*
D59*
Y27362D02*
D03*
D60*
X171622Y129271D02*
D03*
D61*
X187370D02*
D03*
X171622Y124271D02*
D03*
X187370D02*
D03*
X171622Y119271D02*
D03*
Y114271D02*
D03*
Y109271D02*
D03*
X187370Y119271D02*
D03*
Y114271D02*
D03*
Y109271D02*
D03*
D62*
X118425Y11811D02*
D03*
X78425D02*
D03*
X98425D02*
D03*
D63*
X128425Y11811D02*
D03*
D64*
X191102Y27559D02*
D03*
X181102D02*
D03*
D65*
X171102D02*
D03*
D66*
X22500Y27559D02*
D03*
Y125984D02*
D03*
X255906Y15748D02*
D03*
Y137795D02*
D03*
D67*
X17500Y60590D02*
D03*
Y71378D02*
D03*
Y82165D02*
D03*
Y92953D02*
D03*
X27500Y55197D02*
D03*
Y65984D02*
D03*
Y76772D02*
D03*
Y87559D02*
D03*
D68*
Y98347D02*
D03*
D69*
X259842Y53150D02*
D03*
Y100394D02*
D03*
D70*
X249213Y71850D02*
D03*
Y81693D02*
D03*
X241339Y71850D02*
D03*
D71*
Y81693D02*
D03*
M02*
