M48
;Layer_Color=9474304
;FILE_FORMAT=2:5
INCH,LZ
;TYPE=PLATED
T1F00S00C0.01181
T2F00S00C0.03543
T3F00S00C0.03937
T4F00S00C0.09055
%
T01
X0127953Y0005906
X0172244Y001378
X0233268Y0035433
X0231299Y0065945
X0227496Y0090811
X0229496Y0110811
X0238496Y0106811
X0194882Y0104331
X0192913Y0097441
X019685Y009252
X0196923Y0078735
X0185039Y0079724
X0180118
X0174213Y007185
X0163386Y0065945
X0153543Y0062008
X0150591Y0069882
X0156496Y0079724
X0163386Y0086614
X017126
X0175558Y0092881
X0174213Y0098425
X0183496Y0104811
X0164996Y0121311
X0156496Y0093504
X0151496Y0098504
X0143701Y0095472
X0140748Y0075787
X0128937Y0081693
X0097441Y0077756
Y0064961
X0061024Y0066929
X005315Y0080709
X0061024Y0102362
X0097441Y0103347
Y0116142
X0130905Y0117126
Y0147638
X0143701Y0060039
X0130905Y0047244
X0159449Y0041339
X0185039Y0038386
X0184055Y0056102
X0204724Y0052165
X0088583Y0033465
X0077756Y0040354
X0052165Y0045276
X0041339Y0075787
Y0107283
T02
X0241339Y007185
X0249213
Y0081693
X0241339
X0191102Y0027559
X0181102
X0171102
X00275Y0055197
Y0065984
Y0076772
Y0087559
Y0098347
X00175Y0092953
Y0082165
Y0071378
Y006059
T03
X0078425Y0011811
X0098425
X0118425
X0128425Y0011811
T04
X0259842Y005315
Y0100394
M30
