G04*
G04 #@! TF.GenerationSoftware,Altium Limited,Altium Designer,22.3.1 (43)*
G04*
G04 Layer_Physical_Order=1*
G04 Layer_Color=255*
%FSLAX25Y25*%
%MOIN*%
G70*
G04*
G04 #@! TF.SameCoordinates,38A5807E-C0B9-4130-B18F-62B70C513CF8*
G04*
G04*
G04 #@! TF.FilePolarity,Positive*
G04*
G01*
G75*
G04:AMPARAMS|DCode=10|XSize=31.5mil|YSize=25.59mil|CornerRadius=6.4mil|HoleSize=0mil|Usage=FLASHONLY|Rotation=180.000|XOffset=0mil|YOffset=0mil|HoleType=Round|Shape=RoundedRectangle|*
%AMROUNDEDRECTD10*
21,1,0.03150,0.01280,0,0,180.0*
21,1,0.01870,0.02559,0,0,180.0*
1,1,0.01280,-0.00935,0.00640*
1,1,0.01280,0.00935,0.00640*
1,1,0.01280,0.00935,-0.00640*
1,1,0.01280,-0.00935,-0.00640*
%
%ADD10ROUNDEDRECTD10*%
G04:AMPARAMS|DCode=11|XSize=11.81mil|YSize=51.18mil|CornerRadius=1.77mil|HoleSize=0mil|Usage=FLASHONLY|Rotation=90.000|XOffset=0mil|YOffset=0mil|HoleType=Round|Shape=RoundedRectangle|*
%AMROUNDEDRECTD11*
21,1,0.01181,0.04764,0,0,90.0*
21,1,0.00827,0.05118,0,0,90.0*
1,1,0.00354,0.02382,0.00413*
1,1,0.00354,0.02382,-0.00413*
1,1,0.00354,-0.02382,-0.00413*
1,1,0.00354,-0.02382,0.00413*
%
%ADD11ROUNDEDRECTD11*%
G04:AMPARAMS|DCode=12|XSize=11.81mil|YSize=51.18mil|CornerRadius=1.77mil|HoleSize=0mil|Usage=FLASHONLY|Rotation=0.000|XOffset=0mil|YOffset=0mil|HoleType=Round|Shape=RoundedRectangle|*
%AMROUNDEDRECTD12*
21,1,0.01181,0.04764,0,0,0.0*
21,1,0.00827,0.05118,0,0,0.0*
1,1,0.00354,0.00413,-0.02382*
1,1,0.00354,-0.00413,-0.02382*
1,1,0.00354,-0.00413,0.02382*
1,1,0.00354,0.00413,0.02382*
%
%ADD12ROUNDEDRECTD12*%
G04:AMPARAMS|DCode=13|XSize=33.47mil|YSize=23.62mil|CornerRadius=2.36mil|HoleSize=0mil|Usage=FLASHONLY|Rotation=0.000|XOffset=0mil|YOffset=0mil|HoleType=Round|Shape=RoundedRectangle|*
%AMROUNDEDRECTD13*
21,1,0.03347,0.01890,0,0,0.0*
21,1,0.02874,0.02362,0,0,0.0*
1,1,0.00472,0.01437,-0.00945*
1,1,0.00472,-0.01437,-0.00945*
1,1,0.00472,-0.01437,0.00945*
1,1,0.00472,0.01437,0.00945*
%
%ADD13ROUNDEDRECTD13*%
G04:AMPARAMS|DCode=14|XSize=27.56mil|YSize=43.31mil|CornerRadius=4.13mil|HoleSize=0mil|Usage=FLASHONLY|Rotation=270.000|XOffset=0mil|YOffset=0mil|HoleType=Round|Shape=RoundedRectangle|*
%AMROUNDEDRECTD14*
21,1,0.02756,0.03504,0,0,270.0*
21,1,0.01929,0.04331,0,0,270.0*
1,1,0.00827,-0.01752,-0.00965*
1,1,0.00827,-0.01752,0.00965*
1,1,0.00827,0.01752,0.00965*
1,1,0.00827,0.01752,-0.00965*
%
%ADD14ROUNDEDRECTD14*%
G04:AMPARAMS|DCode=15|XSize=33.47mil|YSize=23.62mil|CornerRadius=2.36mil|HoleSize=0mil|Usage=FLASHONLY|Rotation=270.000|XOffset=0mil|YOffset=0mil|HoleType=Round|Shape=RoundedRectangle|*
%AMROUNDEDRECTD15*
21,1,0.03347,0.01890,0,0,270.0*
21,1,0.02874,0.02362,0,0,270.0*
1,1,0.00472,-0.00945,-0.01437*
1,1,0.00472,-0.00945,0.01437*
1,1,0.00472,0.00945,0.01437*
1,1,0.00472,0.00945,-0.01437*
%
%ADD15ROUNDEDRECTD15*%
G04:AMPARAMS|DCode=16|XSize=106.3mil|YSize=66.93mil|CornerRadius=6.69mil|HoleSize=0mil|Usage=FLASHONLY|Rotation=270.000|XOffset=0mil|YOffset=0mil|HoleType=Round|Shape=RoundedRectangle|*
%AMROUNDEDRECTD16*
21,1,0.10630,0.05354,0,0,270.0*
21,1,0.09291,0.06693,0,0,270.0*
1,1,0.01339,-0.02677,-0.04646*
1,1,0.01339,-0.02677,0.04646*
1,1,0.01339,0.02677,0.04646*
1,1,0.01339,0.02677,-0.04646*
%
%ADD16ROUNDEDRECTD16*%
G04:AMPARAMS|DCode=17|XSize=23.62mil|YSize=31.5mil|CornerRadius=3.54mil|HoleSize=0mil|Usage=FLASHONLY|Rotation=90.000|XOffset=0mil|YOffset=0mil|HoleType=Round|Shape=RoundedRectangle|*
%AMROUNDEDRECTD17*
21,1,0.02362,0.02441,0,0,90.0*
21,1,0.01654,0.03150,0,0,90.0*
1,1,0.00709,0.01221,0.00827*
1,1,0.00709,0.01221,-0.00827*
1,1,0.00709,-0.01221,-0.00827*
1,1,0.00709,-0.01221,0.00827*
%
%ADD17ROUNDEDRECTD17*%
G04:AMPARAMS|DCode=18|XSize=23.62mil|YSize=47.24mil|CornerRadius=3.54mil|HoleSize=0mil|Usage=FLASHONLY|Rotation=270.000|XOffset=0mil|YOffset=0mil|HoleType=Round|Shape=RoundedRectangle|*
%AMROUNDEDRECTD18*
21,1,0.02362,0.04016,0,0,270.0*
21,1,0.01654,0.04724,0,0,270.0*
1,1,0.00709,-0.02008,-0.00827*
1,1,0.00709,-0.02008,0.00827*
1,1,0.00709,0.02008,0.00827*
1,1,0.00709,0.02008,-0.00827*
%
%ADD18ROUNDEDRECTD18*%
G04:AMPARAMS|DCode=19|XSize=55.12mil|YSize=35.43mil|CornerRadius=5.32mil|HoleSize=0mil|Usage=FLASHONLY|Rotation=90.000|XOffset=0mil|YOffset=0mil|HoleType=Round|Shape=RoundedRectangle|*
%AMROUNDEDRECTD19*
21,1,0.05512,0.02480,0,0,90.0*
21,1,0.04449,0.03543,0,0,90.0*
1,1,0.01063,0.01240,0.02224*
1,1,0.01063,0.01240,-0.02224*
1,1,0.01063,-0.01240,-0.02224*
1,1,0.01063,-0.01240,0.02224*
%
%ADD19ROUNDEDRECTD19*%
G04:AMPARAMS|DCode=20|XSize=19.68mil|YSize=35.43mil|CornerRadius=2.95mil|HoleSize=0mil|Usage=FLASHONLY|Rotation=90.000|XOffset=0mil|YOffset=0mil|HoleType=Round|Shape=RoundedRectangle|*
%AMROUNDEDRECTD20*
21,1,0.01968,0.02953,0,0,90.0*
21,1,0.01378,0.03543,0,0,90.0*
1,1,0.00591,0.01476,0.00689*
1,1,0.00591,0.01476,-0.00689*
1,1,0.00591,-0.01476,-0.00689*
1,1,0.00591,-0.01476,0.00689*
%
%ADD20ROUNDEDRECTD20*%
G04:AMPARAMS|DCode=21|XSize=31.5mil|YSize=35.43mil|CornerRadius=4.72mil|HoleSize=0mil|Usage=FLASHONLY|Rotation=90.000|XOffset=0mil|YOffset=0mil|HoleType=Round|Shape=RoundedRectangle|*
%AMROUNDEDRECTD21*
21,1,0.03150,0.02598,0,0,90.0*
21,1,0.02205,0.03543,0,0,90.0*
1,1,0.00945,0.01299,0.01102*
1,1,0.00945,0.01299,-0.01102*
1,1,0.00945,-0.01299,-0.01102*
1,1,0.00945,-0.01299,0.01102*
%
%ADD21ROUNDEDRECTD21*%
G04:AMPARAMS|DCode=22|XSize=49.21mil|YSize=27.56mil|CornerRadius=2.76mil|HoleSize=0mil|Usage=FLASHONLY|Rotation=270.000|XOffset=0mil|YOffset=0mil|HoleType=Round|Shape=RoundedRectangle|*
%AMROUNDEDRECTD22*
21,1,0.04921,0.02205,0,0,270.0*
21,1,0.04370,0.02756,0,0,270.0*
1,1,0.00551,-0.01102,-0.02185*
1,1,0.00551,-0.01102,0.02185*
1,1,0.00551,0.01102,0.02185*
1,1,0.00551,0.01102,-0.02185*
%
%ADD22ROUNDEDRECTD22*%
G04:AMPARAMS|DCode=23|XSize=13.78mil|YSize=23.62mil|CornerRadius=2.07mil|HoleSize=0mil|Usage=FLASHONLY|Rotation=270.000|XOffset=0mil|YOffset=0mil|HoleType=Round|Shape=RoundedRectangle|*
%AMROUNDEDRECTD23*
21,1,0.01378,0.01949,0,0,270.0*
21,1,0.00965,0.02362,0,0,270.0*
1,1,0.00413,-0.00974,-0.00482*
1,1,0.00413,-0.00974,0.00482*
1,1,0.00413,0.00974,0.00482*
1,1,0.00413,0.00974,-0.00482*
%
%ADD23ROUNDEDRECTD23*%
G04:AMPARAMS|DCode=24|XSize=49.21mil|YSize=27.56mil|CornerRadius=2.76mil|HoleSize=0mil|Usage=FLASHONLY|Rotation=0.000|XOffset=0mil|YOffset=0mil|HoleType=Round|Shape=RoundedRectangle|*
%AMROUNDEDRECTD24*
21,1,0.04921,0.02205,0,0,0.0*
21,1,0.04370,0.02756,0,0,0.0*
1,1,0.00551,0.02185,-0.01102*
1,1,0.00551,-0.02185,-0.01102*
1,1,0.00551,-0.02185,0.01102*
1,1,0.00551,0.02185,0.01102*
%
%ADD24ROUNDEDRECTD24*%
G04:AMPARAMS|DCode=25|XSize=31.5mil|YSize=25.59mil|CornerRadius=6.4mil|HoleSize=0mil|Usage=FLASHONLY|Rotation=270.000|XOffset=0mil|YOffset=0mil|HoleType=Round|Shape=RoundedRectangle|*
%AMROUNDEDRECTD25*
21,1,0.03150,0.01280,0,0,270.0*
21,1,0.01870,0.02559,0,0,270.0*
1,1,0.01280,-0.00640,-0.00935*
1,1,0.01280,-0.00640,0.00935*
1,1,0.01280,0.00640,0.00935*
1,1,0.01280,0.00640,-0.00935*
%
%ADD25ROUNDEDRECTD25*%
%ADD26R,0.00787X0.00787*%
%ADD27C,0.03937*%
G04:AMPARAMS|DCode=28|XSize=23.62mil|YSize=43.31mil|CornerRadius=2.36mil|HoleSize=0mil|Usage=FLASHONLY|Rotation=180.000|XOffset=0mil|YOffset=0mil|HoleType=Round|Shape=RoundedRectangle|*
%AMROUNDEDRECTD28*
21,1,0.02362,0.03858,0,0,180.0*
21,1,0.01890,0.04331,0,0,180.0*
1,1,0.00472,-0.00945,0.01929*
1,1,0.00472,0.00945,0.01929*
1,1,0.00472,0.00945,-0.01929*
1,1,0.00472,-0.00945,-0.01929*
%
%ADD28ROUNDEDRECTD28*%
G04:AMPARAMS|DCode=29|XSize=43.31mil|YSize=23.62mil|CornerRadius=3.54mil|HoleSize=0mil|Usage=FLASHONLY|Rotation=180.000|XOffset=0mil|YOffset=0mil|HoleType=Round|Shape=RoundedRectangle|*
%AMROUNDEDRECTD29*
21,1,0.04331,0.01654,0,0,180.0*
21,1,0.03622,0.02362,0,0,180.0*
1,1,0.00709,-0.01811,0.00827*
1,1,0.00709,0.01811,0.00827*
1,1,0.00709,0.01811,-0.00827*
1,1,0.00709,-0.01811,-0.00827*
%
%ADD29ROUNDEDRECTD29*%
G04:AMPARAMS|DCode=30|XSize=55.12mil|YSize=102.36mil|CornerRadius=8.27mil|HoleSize=0mil|Usage=FLASHONLY|Rotation=180.000|XOffset=0mil|YOffset=0mil|HoleType=Round|Shape=RoundedRectangle|*
%AMROUNDEDRECTD30*
21,1,0.05512,0.08583,0,0,180.0*
21,1,0.03858,0.10236,0,0,180.0*
1,1,0.01654,-0.01929,0.04291*
1,1,0.01654,0.01929,0.04291*
1,1,0.01654,0.01929,-0.04291*
1,1,0.01654,-0.01929,-0.04291*
%
%ADD30ROUNDEDRECTD30*%
G04:AMPARAMS|DCode=31|XSize=55.12mil|YSize=102.36mil|CornerRadius=8.27mil|HoleSize=0mil|Usage=FLASHONLY|Rotation=90.000|XOffset=0mil|YOffset=0mil|HoleType=Round|Shape=RoundedRectangle|*
%AMROUNDEDRECTD31*
21,1,0.05512,0.08583,0,0,90.0*
21,1,0.03858,0.10236,0,0,90.0*
1,1,0.01654,0.04291,0.01929*
1,1,0.01654,0.04291,-0.01929*
1,1,0.01654,-0.04291,-0.01929*
1,1,0.01654,-0.04291,0.01929*
%
%ADD31ROUNDEDRECTD31*%
%ADD32R,0.10630X0.02756*%
G04:AMPARAMS|DCode=33|XSize=27.56mil|YSize=106.3mil|CornerRadius=4.13mil|HoleSize=0mil|Usage=FLASHONLY|Rotation=270.000|XOffset=0mil|YOffset=0mil|HoleType=Round|Shape=RoundedRectangle|*
%AMROUNDEDRECTD33*
21,1,0.02756,0.09803,0,0,270.0*
21,1,0.01929,0.10630,0,0,270.0*
1,1,0.00827,-0.04902,-0.00965*
1,1,0.00827,-0.04902,0.00965*
1,1,0.00827,0.04902,0.00965*
1,1,0.00827,0.04902,-0.00965*
%
%ADD33ROUNDEDRECTD33*%
%ADD34C,0.01181*%
%ADD72C,0.01575*%
%ADD73C,0.02362*%
%ADD74C,0.01968*%
%ADD75C,0.06299*%
G04:AMPARAMS|DCode=76|XSize=62.99mil|YSize=62.99mil|CornerRadius=15.75mil|HoleSize=0mil|Usage=FLASHONLY|Rotation=0.000|XOffset=0mil|YOffset=0mil|HoleType=Round|Shape=RoundedRectangle|*
%AMROUNDEDRECTD76*
21,1,0.06299,0.03150,0,0,0.0*
21,1,0.03150,0.06299,0,0,0.0*
1,1,0.03150,0.01575,-0.01575*
1,1,0.03150,-0.01575,-0.01575*
1,1,0.03150,-0.01575,0.01575*
1,1,0.03150,0.01575,0.01575*
%
%ADD76ROUNDEDRECTD76*%
%ADD77P,0.06392X8X22.5*%
G04:AMPARAMS|DCode=78|XSize=59.06mil|YSize=59.06mil|CornerRadius=14.76mil|HoleSize=0mil|Usage=FLASHONLY|Rotation=0.000|XOffset=0mil|YOffset=0mil|HoleType=Round|Shape=RoundedRectangle|*
%AMROUNDEDRECTD78*
21,1,0.05906,0.02953,0,0,0.0*
21,1,0.02953,0.05906,0,0,0.0*
1,1,0.02953,0.01476,-0.01476*
1,1,0.02953,-0.01476,-0.01476*
1,1,0.02953,-0.01476,0.01476*
1,1,0.02953,0.01476,0.01476*
%
%ADD78ROUNDEDRECTD78*%
%ADD79C,0.06693*%
%ADD80R,0.06693X0.06693*%
%ADD81C,0.13386*%
%ADD82C,0.05512*%
G04:AMPARAMS|DCode=83|XSize=55.12mil|YSize=55.12mil|CornerRadius=13.78mil|HoleSize=0mil|Usage=FLASHONLY|Rotation=90.000|XOffset=0mil|YOffset=0mil|HoleType=Round|Shape=RoundedRectangle|*
%AMROUNDEDRECTD83*
21,1,0.05512,0.02756,0,0,90.0*
21,1,0.02756,0.05512,0,0,90.0*
1,1,0.02756,0.01378,0.01378*
1,1,0.02756,0.01378,-0.01378*
1,1,0.02756,-0.01378,-0.01378*
1,1,0.02756,-0.01378,0.01378*
%
%ADD83ROUNDEDRECTD83*%
%ADD84C,0.02756*%
D10*
X208661Y46358D02*
D03*
Y52067D02*
D03*
X200787Y46358D02*
D03*
Y52067D02*
D03*
X183496Y95957D02*
D03*
Y101665D02*
D03*
X227496Y93957D02*
D03*
Y99665D02*
D03*
D11*
X168764Y79138D02*
D03*
Y77169D02*
D03*
Y75201D02*
D03*
Y73232D02*
D03*
Y71264D02*
D03*
Y69295D02*
D03*
Y67327D02*
D03*
Y65358D02*
D03*
Y63390D02*
D03*
Y61421D02*
D03*
Y59453D02*
D03*
Y57484D02*
D03*
X202228D02*
D03*
Y59453D02*
D03*
Y61421D02*
D03*
Y63390D02*
D03*
Y65358D02*
D03*
Y67327D02*
D03*
Y69295D02*
D03*
Y71264D02*
D03*
Y73232D02*
D03*
Y75201D02*
D03*
Y77169D02*
D03*
Y79138D02*
D03*
D12*
X174669Y51579D02*
D03*
X176638D02*
D03*
X178606D02*
D03*
X180575D02*
D03*
X182543D02*
D03*
X184512D02*
D03*
X186480D02*
D03*
X188449D02*
D03*
X190417D02*
D03*
X192386D02*
D03*
X194354D02*
D03*
X196323D02*
D03*
Y85043D02*
D03*
X194354D02*
D03*
X192386D02*
D03*
X190417D02*
D03*
X188449D02*
D03*
X186480D02*
D03*
X184512D02*
D03*
X182543D02*
D03*
X180575D02*
D03*
X178606D02*
D03*
X176638D02*
D03*
X174669D02*
D03*
D13*
X87598Y62992D02*
D03*
Y57087D02*
D03*
X93504Y52165D02*
D03*
Y58071D02*
D03*
Y95473D02*
D03*
Y89567D02*
D03*
X66929Y43307D02*
D03*
Y37402D02*
D03*
X87598Y92520D02*
D03*
Y98425D02*
D03*
X218504Y44291D02*
D03*
Y38386D02*
D03*
X223425D02*
D03*
Y44291D02*
D03*
X228346D02*
D03*
Y38386D02*
D03*
X233268D02*
D03*
Y44291D02*
D03*
Y54134D02*
D03*
Y48228D02*
D03*
X228346Y54134D02*
D03*
Y48228D02*
D03*
X223425Y54134D02*
D03*
Y48228D02*
D03*
X218504Y54134D02*
D03*
Y48228D02*
D03*
X233496Y99764D02*
D03*
Y93858D02*
D03*
D14*
X127165Y60492D02*
D03*
Y65492D02*
D03*
X101181Y60492D02*
D03*
Y65492D02*
D03*
Y52697D02*
D03*
Y47697D02*
D03*
X127165Y52697D02*
D03*
Y47697D02*
D03*
Y73287D02*
D03*
Y78287D02*
D03*
X101181Y73287D02*
D03*
Y78287D02*
D03*
X127165Y98878D02*
D03*
Y103878D02*
D03*
X101181Y98878D02*
D03*
Y103878D02*
D03*
Y116673D02*
D03*
Y111673D02*
D03*
X127165Y116673D02*
D03*
Y111673D02*
D03*
Y86083D02*
D03*
Y91083D02*
D03*
X101181Y86083D02*
D03*
Y91083D02*
D03*
D15*
X140748Y60039D02*
D03*
X134843D02*
D03*
X162402Y62008D02*
D03*
X156496D02*
D03*
X140748Y95472D02*
D03*
X134843D02*
D03*
X140748Y90551D02*
D03*
X134843D02*
D03*
X242543Y106811D02*
D03*
X248449D02*
D03*
X203949Y109311D02*
D03*
X198043D02*
D03*
X203949Y124311D02*
D03*
X198043D02*
D03*
X97441Y33465D02*
D03*
X91535D02*
D03*
X139764Y71850D02*
D03*
X133858D02*
D03*
X154528Y102362D02*
D03*
X148622D02*
D03*
X143701Y75787D02*
D03*
X149606D02*
D03*
X154449Y131811D02*
D03*
X148543D02*
D03*
Y126311D02*
D03*
X154449D02*
D03*
Y120811D02*
D03*
X148543D02*
D03*
Y115311D02*
D03*
X154449D02*
D03*
X159449Y38386D02*
D03*
X165354D02*
D03*
Y44291D02*
D03*
X159449D02*
D03*
X62008Y125591D02*
D03*
X56102D02*
D03*
X62008Y129921D02*
D03*
X56102D02*
D03*
X62008Y141339D02*
D03*
X56102D02*
D03*
X62008Y145669D02*
D03*
X56102D02*
D03*
X159449Y75787D02*
D03*
X153543D02*
D03*
D16*
X200394Y38386D02*
D03*
X209055D02*
D03*
D17*
X69685Y74803D02*
D03*
X60236D02*
D03*
X69685Y110236D02*
D03*
X60236D02*
D03*
D18*
X78937Y86988D02*
D03*
Y91988D02*
D03*
Y96988D02*
D03*
Y101988D02*
D03*
X56890Y86988D02*
D03*
Y91988D02*
D03*
Y96988D02*
D03*
Y101988D02*
D03*
X56890Y66555D02*
D03*
Y61555D02*
D03*
Y56555D02*
D03*
Y51555D02*
D03*
X78937Y66555D02*
D03*
Y61555D02*
D03*
Y56555D02*
D03*
Y51555D02*
D03*
D19*
X82480Y42717D02*
D03*
D20*
Y36614D02*
D03*
X73032D02*
D03*
Y44094D02*
D03*
D21*
Y40354D02*
D03*
D22*
X89764Y39370D02*
D03*
X97244D02*
D03*
X189173Y97441D02*
D03*
X196653D02*
D03*
X180315Y38386D02*
D03*
X187795D02*
D03*
X233236Y122811D02*
D03*
X225756D02*
D03*
D23*
X74803Y110236D02*
D03*
X80709Y112205D02*
D03*
Y108268D02*
D03*
X74803Y74803D02*
D03*
X80709Y76772D02*
D03*
Y72835D02*
D03*
D24*
X41339Y104134D02*
D03*
Y96653D02*
D03*
X49213Y34646D02*
D03*
Y42126D02*
D03*
X172244Y16535D02*
D03*
Y9055D02*
D03*
X41339Y65158D02*
D03*
Y72638D02*
D03*
X48228Y104134D02*
D03*
Y96653D02*
D03*
Y72638D02*
D03*
Y65158D02*
D03*
D25*
X187894Y44291D02*
D03*
X182185D02*
D03*
X193799Y91535D02*
D03*
X188091D02*
D03*
X153642Y69882D02*
D03*
X159350D02*
D03*
X56201Y80709D02*
D03*
X61909D02*
D03*
X56201Y45276D02*
D03*
X61910D02*
D03*
X207579Y83661D02*
D03*
X201870D02*
D03*
D26*
X15748Y145669D02*
D03*
X232283Y7874D02*
D03*
D27*
X15748Y145669D02*
D03*
X232283Y7874D02*
D03*
D28*
X227559Y79921D02*
D03*
X235039D02*
D03*
Y69685D02*
D03*
X231299D02*
D03*
X227559D02*
D03*
X225756Y105693D02*
D03*
X229496D02*
D03*
X233236D02*
D03*
Y115929D02*
D03*
X225756D02*
D03*
D29*
X211024Y76772D02*
D03*
X222047D02*
D03*
Y72835D02*
D03*
X211024D02*
D03*
D30*
X159252Y11811D02*
D03*
X149803D02*
D03*
D31*
X49213Y17913D02*
D03*
Y27362D02*
D03*
D32*
X171622Y129271D02*
D03*
D33*
X187370D02*
D03*
X171622Y124271D02*
D03*
X187370D02*
D03*
X171622Y119271D02*
D03*
Y114271D02*
D03*
Y109271D02*
D03*
X187370Y119271D02*
D03*
Y114271D02*
D03*
Y109271D02*
D03*
D34*
X183496Y95957D02*
Y97125D01*
X186605Y100233D01*
X165354Y38386D02*
X171260D01*
X165354Y44291D02*
X174630D01*
X220075Y67327D02*
X233268Y54134D01*
X202228Y67327D02*
X220075D01*
X217122Y65358D02*
X228346Y54134D01*
X202228Y65358D02*
X217122D01*
X214169Y63390D02*
X223425Y54134D01*
X202228Y63390D02*
X214169D01*
X211216Y61421D02*
X218504Y54134D01*
X202228Y61421D02*
X211216D01*
X196850Y49213D02*
X205807D01*
X208661Y46358D01*
Y38780D02*
Y46358D01*
Y38780D02*
X209055Y38386D01*
X196323Y49740D02*
X196850Y49213D01*
X196323Y49740D02*
Y51579D01*
X200787Y38780D02*
Y46358D01*
X200394Y38386D02*
X200787Y38780D01*
X196752Y46358D02*
X200787D01*
X194354Y48756D02*
X196752Y46358D01*
X194354Y48756D02*
Y51579D01*
X155512Y85630D02*
X163972Y77169D01*
X168764D01*
X139764Y85630D02*
X155512D01*
X165941Y79138D02*
X168764D01*
X141201Y103878D02*
X165941Y79138D01*
X127165Y103878D02*
X141201D01*
X62992Y81791D02*
X67913Y86713D01*
X61909Y80709D02*
X62992Y81791D01*
X67913Y86713D02*
Y102362D01*
X70866Y105315D01*
X74803D01*
X77756Y108268D01*
Y111221D01*
X78740Y112205D01*
X80709D01*
X61909Y80709D02*
X76772D01*
X80709Y76772D01*
X69685Y74803D02*
X74803D01*
X69685Y110236D02*
X74803D01*
X97776Y108268D02*
X101181Y111673D01*
X80709Y108268D02*
X97776D01*
X100728Y72835D02*
X101181Y73287D01*
X80709Y72835D02*
X100728D01*
X143169Y65492D02*
X155512Y53150D01*
X127165Y65492D02*
X143169D01*
X155512Y53150D02*
X173098D01*
X168764Y59453D02*
X172831D01*
X176638Y55646D01*
Y48818D02*
Y51579D01*
Y55646D01*
X174630Y44291D02*
X178606Y48267D01*
Y51579D01*
X171260Y38386D02*
X180575Y47701D01*
X173228Y47244D02*
X175064D01*
X180575Y47701D02*
Y51579D01*
X175064Y47244D02*
X176638Y48818D01*
X190417Y34905D02*
Y51579D01*
X181102Y27559D02*
X183071D01*
X190417Y34905D01*
X149606Y50197D02*
X170276D01*
X147106Y52697D02*
X149606Y50197D01*
X127165Y52697D02*
X147106D01*
X170276Y50197D02*
X173228Y47244D01*
X181841Y44931D02*
X182543Y45634D01*
X163386Y65945D02*
X164768Y67327D01*
X168764D01*
X159350Y69882D02*
X159937Y69295D01*
X168764D01*
X173626Y71264D02*
X174213Y71850D01*
X168764Y71264D02*
X173626D01*
X134843Y90551D02*
X139764Y85630D01*
X196881Y78735D02*
X201808Y83661D01*
X65945Y147638D02*
X130905D01*
X64567Y149016D02*
X65945Y147638D01*
X124563Y145122D02*
X137795Y131890D01*
X62555Y145122D02*
X124563D01*
X137795Y131890D02*
X148543D01*
X124016Y142717D02*
X140421Y126311D01*
X63386Y142717D02*
X124016D01*
X140421Y126311D02*
X148543D01*
X142968Y120811D02*
X148543D01*
X72835Y140748D02*
X123031D01*
X142968Y120811D01*
X76657Y138779D02*
X122047D01*
X145516Y115311D01*
X148543D01*
X162402Y62008D02*
X164957Y59453D01*
X168764D01*
X173098Y53150D02*
X174669Y51579D01*
X154130Y57484D02*
X168764D01*
X139764Y71850D02*
X154130Y57484D01*
X159449Y75787D02*
X160035Y75201D01*
X168764D01*
X134311Y91083D02*
X134843Y90551D01*
X184055Y56102D02*
X184512Y55646D01*
Y51579D02*
Y55646D01*
X191102Y27559D02*
X192386Y28842D01*
Y51579D01*
X182543Y45634D02*
Y51579D01*
X172244Y13780D02*
Y16535D01*
X172831Y77169D02*
X177165Y72835D01*
X168764Y77169D02*
X172831D01*
X157996Y106811D02*
X176638Y88169D01*
X171260Y82677D02*
Y86614D01*
Y82677D02*
X179134Y74803D01*
X188976D01*
X185039Y79724D02*
X186480Y81165D01*
X186024Y76772D02*
X188449Y79197D01*
X186480Y81165D02*
Y85043D01*
X188976Y74803D02*
X192386Y78213D01*
X180118Y79724D02*
X183071Y76772D01*
X186024D01*
X188449Y79197D02*
Y85043D01*
X159996Y108311D02*
X175492Y92815D01*
X161996Y109311D02*
X172882Y98425D01*
X174213D01*
X159996Y108311D02*
Y120811D01*
X178606Y94265D02*
Y126921D01*
X180956Y129271D01*
X174669Y85043D02*
Y87138D01*
X154496Y107311D02*
Y115311D01*
Y107311D02*
X174669Y87138D01*
X176638Y85043D02*
Y88169D01*
X157996Y106811D02*
Y117311D01*
X178606Y85043D02*
Y94265D01*
X196653Y92716D02*
X196850Y92520D01*
X196653Y92716D02*
Y97441D01*
X195866Y91535D02*
X196850Y92520D01*
X193799Y91535D02*
X195866D01*
X188091Y96358D02*
X189173Y97441D01*
X188091Y91535D02*
Y96358D01*
X184512Y87957D02*
X188091Y91535D01*
X184512Y85043D02*
Y87957D01*
X177165Y72835D02*
X190945D01*
X194354Y76244D01*
X192386Y78213D02*
Y85043D01*
X196923Y78693D02*
Y78735D01*
X194354Y76244D02*
Y85043D01*
X196923Y78693D02*
X198446Y77169D01*
X194882Y104331D02*
X198043Y107492D01*
Y109311D01*
X192913Y95473D02*
Y97441D01*
X190945Y93504D02*
X192913Y95473D01*
X190945Y89567D02*
Y93504D01*
X190417Y89039D02*
X190945Y89567D01*
X190417Y85043D02*
Y89039D01*
X201808Y83661D02*
X201870D01*
X198446Y77169D02*
X202228D01*
X180575Y85043D02*
Y122890D01*
X181956Y124271D01*
X161996Y109311D02*
Y123811D01*
X186605Y100233D02*
X187749Y101378D01*
X182543Y95004D02*
X183496Y95957D01*
X182543Y85043D02*
Y95004D01*
X207579Y81791D02*
Y83661D01*
Y81791D02*
X207677Y81693D01*
X205122Y79138D02*
X207677Y81693D01*
X202228Y79138D02*
X205122D01*
X215063Y101378D02*
X217496Y103811D01*
X187749Y101378D02*
X215063D01*
X209458Y75206D02*
X211024Y76772D01*
X208573Y75206D02*
X209458D01*
X202228Y75201D02*
X208567D01*
X208573Y75206D01*
X210626Y73232D02*
X211024Y72835D01*
X202228Y73232D02*
X210626D01*
X223024Y73811D02*
X232291D01*
X235039Y69685D02*
Y71063D01*
X232291Y73811D02*
X235039Y71063D01*
X238189Y76772D02*
X244291D01*
X235039Y79921D02*
X238189Y76772D01*
X244291D02*
X249213Y71850D01*
X231972Y75787D02*
X235039Y78854D01*
Y79921D01*
X222047Y72835D02*
X223024Y73811D01*
X222047Y76772D02*
X223031Y75787D01*
X231972D01*
X62008Y141339D02*
X63386Y142717D01*
X63468Y125591D02*
X76657Y138779D01*
X62008Y129921D02*
X72835Y140748D01*
X62008Y145669D02*
X62555Y145122D01*
X151496Y134311D02*
X151496Y98504D01*
X187370Y124271D02*
X187410Y124311D01*
X198043D01*
X187370Y109271D02*
X187410Y109311D01*
X198043D01*
X203949D02*
Y124311D01*
Y130358D01*
X183496Y101665D02*
Y104811D01*
X56102Y141339D02*
Y145669D01*
Y125591D02*
Y129921D01*
Y141339D01*
X62008Y125591D02*
X63468D01*
X59449Y149016D02*
X64567D01*
X56102Y145669D02*
X59449Y149016D01*
X154575Y131232D02*
X161996Y123811D01*
X151496Y134311D02*
X153496Y136311D01*
X154449Y126311D02*
X154496D01*
X159996Y120811D01*
X154472Y120835D02*
X157996Y117311D01*
X164996Y121311D02*
X167956Y124271D01*
X171622D01*
X164996Y121311D02*
X167036Y119271D01*
X171622D01*
X164996Y112311D02*
X168036Y109271D01*
X171622D01*
X164996Y112311D02*
Y121311D01*
X181956Y124271D02*
X187370D01*
X180956Y129271D02*
X187370D01*
X201496Y132811D02*
X203949Y130358D01*
X179496Y132811D02*
X201496D01*
X175956Y129271D02*
X179496Y132811D01*
X171622Y129271D02*
X175956D01*
X235736Y70193D02*
X237394Y71850D01*
X241339D01*
X211842Y76638D02*
X211984Y76780D01*
X48425Y125197D02*
X50262D01*
X49343D01*
Y130707D01*
X48425Y129788D01*
Y145537D02*
X49343Y146455D01*
X51180D01*
X52099Y145537D01*
Y141863D01*
X51180Y140945D01*
X49343D01*
X48425Y141863D01*
Y145537D01*
X162598Y128150D02*
X164173Y129724D01*
X162598Y131298D01*
X46457Y53347D02*
X48293D01*
X47375D01*
Y58856D01*
X46457Y57938D01*
Y91403D02*
X47375Y92321D01*
X49212D01*
X50130Y91403D01*
Y87729D01*
X49212Y86811D01*
X47375D01*
X46457Y87729D01*
Y91403D01*
D72*
X49213Y34646D02*
X55315D01*
X61910Y41240D02*
Y45276D01*
X55315Y34646D02*
X61910Y41240D01*
X200787Y52067D02*
X200886Y52165D01*
X204724D01*
X208563D02*
X208661Y52067D01*
X204724Y52165D02*
X208563D01*
X53150Y80709D02*
X56201D01*
X52165Y45079D02*
Y45276D01*
X49213Y42126D02*
X52165Y45079D01*
Y45276D02*
X56201D01*
X60650Y66555D02*
X61024Y66929D01*
X56890Y66555D02*
X60650D01*
X48228Y72638D02*
X50394Y74803D01*
X60236D01*
X41339Y72638D02*
Y75787D01*
X48228Y65158D02*
X51831Y61555D01*
X56890D01*
X41339Y65158D02*
X48228D01*
X41142Y64961D02*
X41339Y65158D01*
X37402Y64961D02*
X41142D01*
X30984Y71378D02*
X37402Y64961D01*
X17500Y71378D02*
X30984D01*
X41339Y91535D02*
Y96653D01*
X31969Y82165D02*
X41339Y91535D01*
X17500Y82165D02*
X31969D01*
X48228Y96653D02*
X48563Y96988D01*
X41339Y96653D02*
X48228D01*
X48563Y96988D02*
X56890D01*
X41339Y104134D02*
Y107283D01*
X48228Y104134D02*
X54331Y110236D01*
X60236D01*
X60650Y101988D02*
X61024Y102362D01*
X56890Y101988D02*
X60650D01*
X62992Y81791D02*
Y90551D01*
X61555Y91988D02*
X62992Y90551D01*
X56890Y91988D02*
X61555D01*
X61909Y80709D02*
X64961Y77658D01*
Y56102D02*
Y77658D01*
X63976Y55118D02*
X64961Y56102D01*
X61910Y45276D02*
X63976Y47343D01*
Y55118D01*
X62539Y56555D02*
X63976Y55118D01*
X56890Y56555D02*
X62539D01*
X51279Y34646D02*
X64173D01*
X49213D02*
X51279D01*
X64173D02*
X66929Y37402D01*
X49213Y27362D02*
Y34646D01*
X77756Y40354D02*
X80118Y42717D01*
X82480D01*
X73032Y40354D02*
X77756D01*
X66929Y43307D02*
X67716Y44094D01*
X73032D01*
X66929Y37402D02*
X67716Y36614D01*
X73032D01*
X87008D02*
X89764Y39370D01*
X82480Y36614D02*
X87008D01*
X97244Y33661D02*
X97441Y33465D01*
X97244Y33661D02*
Y39370D01*
X88583Y33465D02*
X91535D01*
X91083Y47697D02*
X101181D01*
X87224Y51555D02*
X91083Y47697D01*
X89764Y39370D02*
X94685Y44291D01*
X103347D01*
X105315Y46260D01*
X78937Y51555D02*
X87224D01*
X100650Y52165D02*
X101181Y52697D01*
X93504Y52165D02*
X100650D01*
X97441Y116142D02*
X97972Y116673D01*
X101181D01*
X97441Y103347D02*
X97972Y103878D01*
X101181D01*
X87598Y98425D02*
X88051Y98878D01*
X101181D01*
X84035Y101988D02*
X87598Y98425D01*
X78937Y101988D02*
X84035D01*
X100728Y85630D02*
X101181Y86083D01*
X89567Y85630D02*
X100728D01*
X88209Y86988D02*
X89567Y85630D01*
X78937Y86988D02*
X88209D01*
X97972Y91083D02*
X101181D01*
X96457Y89567D02*
X97972Y91083D01*
X93504Y89567D02*
X96457D01*
X97441Y77756D02*
X97972Y78287D01*
X101181D01*
X97441Y64961D02*
X97972Y65492D01*
X101181D01*
X96988Y60492D02*
X101181D01*
X94488Y62992D02*
X96988Y60492D01*
X87598Y62992D02*
X94488D01*
X84035Y66555D02*
X87598Y62992D01*
X78937Y66555D02*
X84035D01*
X105315Y54134D02*
Y93504D01*
X103347Y95473D02*
X105315Y93504D01*
X93504Y95473D02*
X103347D01*
X90551Y92520D02*
X93504Y95473D01*
X87598Y92520D02*
X90551D01*
X87067Y91988D02*
X87598Y92520D01*
X78937Y91988D02*
X87067D01*
X92520Y57087D02*
X93504Y58071D01*
X87598Y57087D02*
X92520D01*
X87067Y56555D02*
X87598Y57087D01*
X78937Y56555D02*
X87067D01*
X105315Y46260D02*
Y54134D01*
X103347Y56102D02*
X105315Y54134D01*
X95473Y56102D02*
X103347D01*
X93504Y58071D02*
X95473Y56102D01*
X153543Y62008D02*
X156496D01*
X140748Y60039D02*
X143701D01*
X159449Y38386D02*
X159449Y38386D01*
Y41339D01*
X180315Y42421D02*
X182185Y44291D01*
X176378Y34449D02*
X180315Y38386D01*
Y42421D01*
X187795Y44193D02*
X187894Y44291D01*
X187795Y38386D02*
Y44193D01*
X185039Y38386D02*
X187795D01*
X168307Y34449D02*
X176378D01*
X165354Y31496D02*
X168307Y34449D01*
X165354Y23622D02*
Y31496D01*
Y23622D02*
X167323Y21654D01*
X156496Y62008D02*
X159350Y64862D01*
Y69882D01*
X163386Y86614D02*
Y93504D01*
X154528Y102362D02*
X163386Y93504D01*
X156496Y72736D02*
Y79724D01*
Y72736D02*
X159350Y69882D01*
X139311Y111673D02*
X148622Y102362D01*
X127165Y111673D02*
X139311D01*
X150591Y69882D02*
X153642D01*
X140748Y90551D02*
Y95472D01*
X143701D01*
X219298Y96624D02*
X243928D01*
X151496Y98504D02*
X156496Y93504D01*
X130453Y116673D02*
X130905Y117126D01*
X127165Y116673D02*
X130453D01*
X128937Y80059D02*
Y81693D01*
X127165Y78287D02*
X128937Y80059D01*
Y81693D02*
Y84311D01*
X127165Y86083D02*
X128937Y84311D01*
X134390Y60492D02*
X134843Y60039D01*
X127165Y60492D02*
X134390D01*
X218504Y44291D02*
Y48228D01*
X223425Y44291D02*
Y48228D01*
X228346Y44291D02*
Y48228D01*
X233268Y44291D02*
Y48228D01*
X218504Y38386D02*
X223425D01*
X228346D01*
X233268D01*
Y35433D02*
Y38386D01*
X130453Y47697D02*
X130905Y47244D01*
X127165Y47697D02*
X130453D01*
X132421Y73287D02*
X133858Y71850D01*
X127165Y73287D02*
X132421D01*
X140748Y75787D02*
X143701D01*
X149606D02*
X153543D01*
X131437Y98878D02*
X134843Y95472D01*
X127165Y98878D02*
X131437D01*
X127165Y91083D02*
X134311D01*
X227362Y21654D02*
X245079Y39370D01*
X167323Y21654D02*
X227362Y21654D01*
X227559Y79921D02*
Y81890D01*
X230592Y84923D01*
X231299Y65945D02*
Y69685D01*
X207579Y83661D02*
X217496Y93579D01*
Y98425D01*
X219298Y96624D01*
X243928D02*
X254921Y85630D01*
X245079Y39370D02*
Y57087D01*
X254921Y66929D01*
X217496Y98425D02*
Y103811D01*
X254921Y66929D02*
Y85630D01*
X227496Y90811D02*
Y93957D01*
X203949Y109311D02*
X214996D01*
X153496Y136311D02*
X207996D01*
X225756Y122811D02*
X225953D01*
X221496D02*
X225756D01*
X217496Y103811D02*
Y111811D01*
Y118811D01*
X214996Y109311D02*
X217496Y111811D01*
X230592Y84923D02*
X238108D01*
X207996Y136311D02*
X221496Y122811D01*
X217496Y118811D02*
X221496Y122811D01*
D73*
X159252Y11811D02*
X165354D01*
X168110Y9055D01*
X172244D01*
X149803Y11811D02*
X149803Y11811D01*
X128425Y11811D02*
X149803D01*
X124331Y5906D02*
X127953D01*
X118425Y11811D02*
X124331Y5906D01*
X172244Y9055D02*
X172441Y8858D01*
X221457D01*
X249016Y36417D01*
Y56102D02*
X258858Y65945D01*
X249016Y36417D02*
Y56102D01*
X258858Y65945D02*
Y87598D01*
X246693Y99764D02*
X258858Y87598D01*
X225756Y101406D02*
Y105693D01*
Y101406D02*
X227496Y99665D01*
X233496Y99764D02*
X246693D01*
X227496Y99665D02*
X227594Y99764D01*
X233496D01*
X238108Y84923D02*
X241339Y81693D01*
X233496Y89535D02*
X238108Y84923D01*
X238496Y106811D02*
X242543D01*
X253425D02*
X259842Y100394D01*
X248449Y106811D02*
X253425D01*
X233496Y89535D02*
Y93858D01*
D74*
X72323Y17913D02*
X78425Y11811D01*
X49213Y17913D02*
X72323D01*
X225953Y116126D02*
Y122811D01*
X229496Y110811D02*
Y119268D01*
X233039Y122811D01*
X225756Y115929D02*
X225953Y116126D01*
X229496Y105693D02*
Y110811D01*
X233236Y100024D02*
X233496Y99764D01*
X233236Y100024D02*
Y105693D01*
D75*
X118425Y11811D02*
D03*
X78425D02*
D03*
X98425D02*
D03*
D76*
X128425Y11811D02*
D03*
D77*
X191102Y27559D02*
D03*
X181102D02*
D03*
D78*
X171102D02*
D03*
D79*
X17500Y60590D02*
D03*
Y71378D02*
D03*
Y82165D02*
D03*
Y92953D02*
D03*
X27500Y55197D02*
D03*
Y65984D02*
D03*
Y76772D02*
D03*
Y87559D02*
D03*
D80*
Y98347D02*
D03*
D81*
X259842Y53150D02*
D03*
Y100394D02*
D03*
D82*
X249213Y71850D02*
D03*
Y81693D02*
D03*
X241339Y71850D02*
D03*
D83*
Y81693D02*
D03*
D84*
X77756Y40354D02*
D03*
X97441Y116142D02*
D03*
X153543Y62008D02*
D03*
X143701Y60039D02*
D03*
X159449Y41339D02*
D03*
X163386Y86614D02*
D03*
X156496Y93504D02*
D03*
X163386Y65945D02*
D03*
X156496Y79724D02*
D03*
X150591Y69882D02*
D03*
X143701Y95472D02*
D03*
X151496Y98504D02*
D03*
X128937Y81693D02*
D03*
X172244Y13780D02*
D03*
X171260Y86614D02*
D03*
X185039Y79724D02*
D03*
X180118D02*
D03*
X174213Y98425D02*
D03*
X175558Y92881D02*
D03*
X196850Y92520D02*
D03*
X196923Y78735D02*
D03*
X227496Y90811D02*
D03*
X194882Y104331D02*
D03*
X192913Y97441D02*
D03*
X233268Y35433D02*
D03*
X174213Y71850D02*
D03*
X140748Y75787D02*
D03*
X130905Y47244D02*
D03*
X97441Y64961D02*
D03*
Y77756D02*
D03*
X53150Y80709D02*
D03*
X61024Y66929D02*
D03*
Y102362D02*
D03*
X41339Y107283D02*
D03*
X97441Y103347D02*
D03*
X204724Y52165D02*
D03*
X184055Y56102D02*
D03*
X52165Y45276D02*
D03*
X130905Y147638D02*
D03*
Y117126D02*
D03*
X183496Y104811D02*
D03*
X164996Y121311D02*
D03*
X127953Y5906D02*
D03*
X88583Y33465D02*
D03*
X41339Y75787D02*
D03*
X229496Y110811D02*
D03*
X238496Y106811D02*
D03*
X231299Y65945D02*
D03*
X185039Y38386D02*
D03*
M02*
