G04*
G04 #@! TF.GenerationSoftware,Altium Limited,Altium Designer,22.3.1 (43)*
G04*
G04 Layer_Physical_Order=1*
G04 Layer_Color=255*
%FSLAX25Y25*%
%MOIN*%
G70*
G04*
G04 #@! TF.SameCoordinates,35FA6D69-FF44-446E-9FC7-5F6B5C59AE10*
G04*
G04*
G04 #@! TF.FilePolarity,Positive*
G04*
G01*
G75*
G04:AMPARAMS|DCode=10|XSize=23.62mil|YSize=31.5mil|CornerRadius=3.54mil|HoleSize=0mil|Usage=FLASHONLY|Rotation=90.000|XOffset=0mil|YOffset=0mil|HoleType=Round|Shape=RoundedRectangle|*
%AMROUNDEDRECTD10*
21,1,0.02362,0.02441,0,0,90.0*
21,1,0.01654,0.03150,0,0,90.0*
1,1,0.00709,0.01221,0.00827*
1,1,0.00709,0.01221,-0.00827*
1,1,0.00709,-0.01221,-0.00827*
1,1,0.00709,-0.01221,0.00827*
%
%ADD10ROUNDEDRECTD10*%
G04:AMPARAMS|DCode=11|XSize=33.47mil|YSize=23.62mil|CornerRadius=2.36mil|HoleSize=0mil|Usage=FLASHONLY|Rotation=90.000|XOffset=0mil|YOffset=0mil|HoleType=Round|Shape=RoundedRectangle|*
%AMROUNDEDRECTD11*
21,1,0.03347,0.01890,0,0,90.0*
21,1,0.02874,0.02362,0,0,90.0*
1,1,0.00472,0.00945,0.01437*
1,1,0.00472,0.00945,-0.01437*
1,1,0.00472,-0.00945,-0.01437*
1,1,0.00472,-0.00945,0.01437*
%
%ADD11ROUNDEDRECTD11*%
G04:AMPARAMS|DCode=12|XSize=27.56mil|YSize=43.31mil|CornerRadius=4.13mil|HoleSize=0mil|Usage=FLASHONLY|Rotation=270.000|XOffset=0mil|YOffset=0mil|HoleType=Round|Shape=RoundedRectangle|*
%AMROUNDEDRECTD12*
21,1,0.02756,0.03504,0,0,270.0*
21,1,0.01929,0.04331,0,0,270.0*
1,1,0.00827,-0.01752,-0.00965*
1,1,0.00827,-0.01752,0.00965*
1,1,0.00827,0.01752,0.00965*
1,1,0.00827,0.01752,-0.00965*
%
%ADD12ROUNDEDRECTD12*%
G04:AMPARAMS|DCode=13|XSize=23.62mil|YSize=47.24mil|CornerRadius=3.54mil|HoleSize=0mil|Usage=FLASHONLY|Rotation=270.000|XOffset=0mil|YOffset=0mil|HoleType=Round|Shape=RoundedRectangle|*
%AMROUNDEDRECTD13*
21,1,0.02362,0.04016,0,0,270.0*
21,1,0.01654,0.04724,0,0,270.0*
1,1,0.00709,-0.02008,-0.00827*
1,1,0.00709,-0.02008,0.00827*
1,1,0.00709,0.02008,0.00827*
1,1,0.00709,0.02008,-0.00827*
%
%ADD13ROUNDEDRECTD13*%
G04:AMPARAMS|DCode=14|XSize=55.12mil|YSize=35.43mil|CornerRadius=5.32mil|HoleSize=0mil|Usage=FLASHONLY|Rotation=90.000|XOffset=0mil|YOffset=0mil|HoleType=Round|Shape=RoundedRectangle|*
%AMROUNDEDRECTD14*
21,1,0.05512,0.02480,0,0,90.0*
21,1,0.04449,0.03543,0,0,90.0*
1,1,0.01063,0.01240,0.02224*
1,1,0.01063,0.01240,-0.02224*
1,1,0.01063,-0.01240,-0.02224*
1,1,0.01063,-0.01240,0.02224*
%
%ADD14ROUNDEDRECTD14*%
G04:AMPARAMS|DCode=15|XSize=19.68mil|YSize=35.43mil|CornerRadius=2.95mil|HoleSize=0mil|Usage=FLASHONLY|Rotation=90.000|XOffset=0mil|YOffset=0mil|HoleType=Round|Shape=RoundedRectangle|*
%AMROUNDEDRECTD15*
21,1,0.01968,0.02953,0,0,90.0*
21,1,0.01378,0.03543,0,0,90.0*
1,1,0.00591,0.01476,0.00689*
1,1,0.00591,0.01476,-0.00689*
1,1,0.00591,-0.01476,-0.00689*
1,1,0.00591,-0.01476,0.00689*
%
%ADD15ROUNDEDRECTD15*%
G04:AMPARAMS|DCode=16|XSize=31.5mil|YSize=35.43mil|CornerRadius=4.72mil|HoleSize=0mil|Usage=FLASHONLY|Rotation=90.000|XOffset=0mil|YOffset=0mil|HoleType=Round|Shape=RoundedRectangle|*
%AMROUNDEDRECTD16*
21,1,0.03150,0.02598,0,0,90.0*
21,1,0.02205,0.03543,0,0,90.0*
1,1,0.00945,0.01299,0.01102*
1,1,0.00945,0.01299,-0.01102*
1,1,0.00945,-0.01299,-0.01102*
1,1,0.00945,-0.01299,0.01102*
%
%ADD16ROUNDEDRECTD16*%
G04:AMPARAMS|DCode=17|XSize=33.47mil|YSize=23.62mil|CornerRadius=2.36mil|HoleSize=0mil|Usage=FLASHONLY|Rotation=0.000|XOffset=0mil|YOffset=0mil|HoleType=Round|Shape=RoundedRectangle|*
%AMROUNDEDRECTD17*
21,1,0.03347,0.01890,0,0,0.0*
21,1,0.02874,0.02362,0,0,0.0*
1,1,0.00472,0.01437,-0.00945*
1,1,0.00472,-0.01437,-0.00945*
1,1,0.00472,-0.01437,0.00945*
1,1,0.00472,0.01437,0.00945*
%
%ADD17ROUNDEDRECTD17*%
G04:AMPARAMS|DCode=18|XSize=49.21mil|YSize=27.56mil|CornerRadius=2.76mil|HoleSize=0mil|Usage=FLASHONLY|Rotation=270.000|XOffset=0mil|YOffset=0mil|HoleType=Round|Shape=RoundedRectangle|*
%AMROUNDEDRECTD18*
21,1,0.04921,0.02205,0,0,270.0*
21,1,0.04370,0.02756,0,0,270.0*
1,1,0.00551,-0.01102,-0.02185*
1,1,0.00551,-0.01102,0.02185*
1,1,0.00551,0.01102,0.02185*
1,1,0.00551,0.01102,-0.02185*
%
%ADD18ROUNDEDRECTD18*%
G04:AMPARAMS|DCode=19|XSize=13.78mil|YSize=23.62mil|CornerRadius=2.07mil|HoleSize=0mil|Usage=FLASHONLY|Rotation=270.000|XOffset=0mil|YOffset=0mil|HoleType=Round|Shape=RoundedRectangle|*
%AMROUNDEDRECTD19*
21,1,0.01378,0.01949,0,0,270.0*
21,1,0.00965,0.02362,0,0,270.0*
1,1,0.00413,-0.00974,-0.00482*
1,1,0.00413,-0.00974,0.00482*
1,1,0.00413,0.00974,0.00482*
1,1,0.00413,0.00974,-0.00482*
%
%ADD19ROUNDEDRECTD19*%
G04:AMPARAMS|DCode=20|XSize=11.81mil|YSize=59.06mil|CornerRadius=2.95mil|HoleSize=0mil|Usage=FLASHONLY|Rotation=0.000|XOffset=0mil|YOffset=0mil|HoleType=Round|Shape=RoundedRectangle|*
%AMROUNDEDRECTD20*
21,1,0.01181,0.05315,0,0,0.0*
21,1,0.00591,0.05906,0,0,0.0*
1,1,0.00591,0.00295,-0.02657*
1,1,0.00591,-0.00295,-0.02657*
1,1,0.00591,-0.00295,0.02657*
1,1,0.00591,0.00295,0.02657*
%
%ADD20ROUNDEDRECTD20*%
G04:AMPARAMS|DCode=21|XSize=11.81mil|YSize=59.06mil|CornerRadius=2.95mil|HoleSize=0mil|Usage=FLASHONLY|Rotation=90.000|XOffset=0mil|YOffset=0mil|HoleType=Round|Shape=RoundedRectangle|*
%AMROUNDEDRECTD21*
21,1,0.01181,0.05315,0,0,90.0*
21,1,0.00591,0.05906,0,0,90.0*
1,1,0.00591,0.02657,0.00295*
1,1,0.00591,0.02657,-0.00295*
1,1,0.00591,-0.02657,-0.00295*
1,1,0.00591,-0.02657,0.00295*
%
%ADD21ROUNDEDRECTD21*%
G04:AMPARAMS|DCode=22|XSize=39.37mil|YSize=35.43mil|CornerRadius=3.54mil|HoleSize=0mil|Usage=FLASHONLY|Rotation=90.000|XOffset=0mil|YOffset=0mil|HoleType=Round|Shape=RoundedRectangle|*
%AMROUNDEDRECTD22*
21,1,0.03937,0.02835,0,0,90.0*
21,1,0.03228,0.03543,0,0,90.0*
1,1,0.00709,0.01417,0.01614*
1,1,0.00709,0.01417,-0.01614*
1,1,0.00709,-0.01417,-0.01614*
1,1,0.00709,-0.01417,0.01614*
%
%ADD22ROUNDEDRECTD22*%
G04:AMPARAMS|DCode=23|XSize=31.5mil|YSize=25.59mil|CornerRadius=6.4mil|HoleSize=0mil|Usage=FLASHONLY|Rotation=90.000|XOffset=0mil|YOffset=0mil|HoleType=Round|Shape=RoundedRectangle|*
%AMROUNDEDRECTD23*
21,1,0.03150,0.01280,0,0,90.0*
21,1,0.01870,0.02559,0,0,90.0*
1,1,0.01280,0.00640,0.00935*
1,1,0.01280,0.00640,-0.00935*
1,1,0.01280,-0.00640,-0.00935*
1,1,0.01280,-0.00640,0.00935*
%
%ADD23ROUNDEDRECTD23*%
G04:AMPARAMS|DCode=24|XSize=49.21mil|YSize=27.56mil|CornerRadius=2.76mil|HoleSize=0mil|Usage=FLASHONLY|Rotation=180.000|XOffset=0mil|YOffset=0mil|HoleType=Round|Shape=RoundedRectangle|*
%AMROUNDEDRECTD24*
21,1,0.04921,0.02205,0,0,180.0*
21,1,0.04370,0.02756,0,0,180.0*
1,1,0.00551,-0.02185,0.01102*
1,1,0.00551,0.02185,0.01102*
1,1,0.00551,0.02185,-0.01102*
1,1,0.00551,-0.02185,-0.01102*
%
%ADD24ROUNDEDRECTD24*%
G04:AMPARAMS|DCode=25|XSize=31.5mil|YSize=25.59mil|CornerRadius=6.4mil|HoleSize=0mil|Usage=FLASHONLY|Rotation=0.000|XOffset=0mil|YOffset=0mil|HoleType=Round|Shape=RoundedRectangle|*
%AMROUNDEDRECTD25*
21,1,0.03150,0.01280,0,0,0.0*
21,1,0.01870,0.02559,0,0,0.0*
1,1,0.01280,0.00935,-0.00640*
1,1,0.01280,-0.00935,-0.00640*
1,1,0.01280,-0.00935,0.00640*
1,1,0.01280,0.00935,0.00640*
%
%ADD25ROUNDEDRECTD25*%
%ADD26R,0.00787X0.00787*%
%ADD27C,0.03937*%
G04:AMPARAMS|DCode=28|XSize=23.62mil|YSize=43.31mil|CornerRadius=2.36mil|HoleSize=0mil|Usage=FLASHONLY|Rotation=180.000|XOffset=0mil|YOffset=0mil|HoleType=Round|Shape=RoundedRectangle|*
%AMROUNDEDRECTD28*
21,1,0.02362,0.03858,0,0,180.0*
21,1,0.01890,0.04331,0,0,180.0*
1,1,0.00472,-0.00945,0.01929*
1,1,0.00472,0.00945,0.01929*
1,1,0.00472,0.00945,-0.01929*
1,1,0.00472,-0.00945,-0.01929*
%
%ADD28ROUNDEDRECTD28*%
G04:AMPARAMS|DCode=29|XSize=43.31mil|YSize=23.62mil|CornerRadius=3.54mil|HoleSize=0mil|Usage=FLASHONLY|Rotation=180.000|XOffset=0mil|YOffset=0mil|HoleType=Round|Shape=RoundedRectangle|*
%AMROUNDEDRECTD29*
21,1,0.04331,0.01654,0,0,180.0*
21,1,0.03622,0.02362,0,0,180.0*
1,1,0.00709,-0.01811,0.00827*
1,1,0.00709,0.01811,0.00827*
1,1,0.00709,0.01811,-0.00827*
1,1,0.00709,-0.01811,-0.00827*
%
%ADD29ROUNDEDRECTD29*%
G04:AMPARAMS|DCode=30|XSize=55.12mil|YSize=102.36mil|CornerRadius=8.27mil|HoleSize=0mil|Usage=FLASHONLY|Rotation=180.000|XOffset=0mil|YOffset=0mil|HoleType=Round|Shape=RoundedRectangle|*
%AMROUNDEDRECTD30*
21,1,0.05512,0.08583,0,0,180.0*
21,1,0.03858,0.10236,0,0,180.0*
1,1,0.01654,-0.01929,0.04291*
1,1,0.01654,0.01929,0.04291*
1,1,0.01654,0.01929,-0.04291*
1,1,0.01654,-0.01929,-0.04291*
%
%ADD30ROUNDEDRECTD30*%
G04:AMPARAMS|DCode=31|XSize=55.12mil|YSize=102.36mil|CornerRadius=8.27mil|HoleSize=0mil|Usage=FLASHONLY|Rotation=90.000|XOffset=0mil|YOffset=0mil|HoleType=Round|Shape=RoundedRectangle|*
%AMROUNDEDRECTD31*
21,1,0.05512,0.08583,0,0,90.0*
21,1,0.03858,0.10236,0,0,90.0*
1,1,0.01654,0.04291,0.01929*
1,1,0.01654,0.04291,-0.01929*
1,1,0.01654,-0.04291,-0.01929*
1,1,0.01654,-0.04291,0.01929*
%
%ADD31ROUNDEDRECTD31*%
%ADD32R,0.10630X0.02756*%
G04:AMPARAMS|DCode=33|XSize=27.56mil|YSize=106.3mil|CornerRadius=4.13mil|HoleSize=0mil|Usage=FLASHONLY|Rotation=270.000|XOffset=0mil|YOffset=0mil|HoleType=Round|Shape=RoundedRectangle|*
%AMROUNDEDRECTD33*
21,1,0.02756,0.09803,0,0,270.0*
21,1,0.01929,0.10630,0,0,270.0*
1,1,0.00827,-0.04902,-0.00965*
1,1,0.00827,-0.04902,0.00965*
1,1,0.00827,0.04902,0.00965*
1,1,0.00827,0.04902,-0.00965*
%
%ADD33ROUNDEDRECTD33*%
%ADD71C,0.01575*%
%ADD72C,0.01181*%
%ADD73C,0.02362*%
%ADD74C,0.01968*%
%ADD75C,0.00984*%
%ADD76C,0.06693*%
%ADD77R,0.06693X0.06693*%
G04:AMPARAMS|DCode=78|XSize=59.06mil|YSize=59.06mil|CornerRadius=14.76mil|HoleSize=0mil|Usage=FLASHONLY|Rotation=0.000|XOffset=0mil|YOffset=0mil|HoleType=Round|Shape=RoundedRectangle|*
%AMROUNDEDRECTD78*
21,1,0.05906,0.02953,0,0,0.0*
21,1,0.02953,0.05906,0,0,0.0*
1,1,0.02953,0.01476,-0.01476*
1,1,0.02953,-0.01476,-0.01476*
1,1,0.02953,-0.01476,0.01476*
1,1,0.02953,0.01476,0.01476*
%
%ADD78ROUNDEDRECTD78*%
%ADD79P,0.06392X8X22.5*%
%ADD80C,0.13386*%
%ADD81C,0.05512*%
G04:AMPARAMS|DCode=82|XSize=55.12mil|YSize=55.12mil|CornerRadius=13.78mil|HoleSize=0mil|Usage=FLASHONLY|Rotation=90.000|XOffset=0mil|YOffset=0mil|HoleType=Round|Shape=RoundedRectangle|*
%AMROUNDEDRECTD82*
21,1,0.05512,0.02756,0,0,90.0*
21,1,0.02756,0.05512,0,0,90.0*
1,1,0.02756,0.01378,0.01378*
1,1,0.02756,0.01378,-0.01378*
1,1,0.02756,-0.01378,-0.01378*
1,1,0.02756,-0.01378,0.01378*
%
%ADD82ROUNDEDRECTD82*%
%ADD83C,0.06299*%
G04:AMPARAMS|DCode=84|XSize=62.99mil|YSize=62.99mil|CornerRadius=15.75mil|HoleSize=0mil|Usage=FLASHONLY|Rotation=0.000|XOffset=0mil|YOffset=0mil|HoleType=Round|Shape=RoundedRectangle|*
%AMROUNDEDRECTD84*
21,1,0.06299,0.03150,0,0,0.0*
21,1,0.03150,0.06299,0,0,0.0*
1,1,0.03150,0.01575,-0.01575*
1,1,0.03150,-0.01575,-0.01575*
1,1,0.03150,-0.01575,0.01575*
1,1,0.03150,0.01575,0.01575*
%
%ADD84ROUNDEDRECTD84*%
%ADD85C,0.02756*%
D10*
X64224Y65500D02*
D03*
X54776D02*
D03*
X58724Y93000D02*
D03*
X49276D02*
D03*
D11*
X211047Y95000D02*
D03*
X216953D02*
D03*
X172453Y97500D02*
D03*
X166547D02*
D03*
X172453Y112500D02*
D03*
X166547D02*
D03*
X87453Y25000D02*
D03*
X81547D02*
D03*
X121953Y90500D02*
D03*
X116047D02*
D03*
X122953Y120000D02*
D03*
X117047D02*
D03*
Y114500D02*
D03*
X122953D02*
D03*
Y109000D02*
D03*
X117047D02*
D03*
Y103500D02*
D03*
X122953D02*
D03*
X115547Y35500D02*
D03*
X121453D02*
D03*
Y40000D02*
D03*
X115547D02*
D03*
X62008Y101969D02*
D03*
X56102D02*
D03*
X62008Y106299D02*
D03*
X56102D02*
D03*
X62008Y117717D02*
D03*
X56102D02*
D03*
X62008Y122047D02*
D03*
X56102D02*
D03*
D12*
X84008Y95500D02*
D03*
Y90500D02*
D03*
X109992Y95500D02*
D03*
Y90500D02*
D03*
Y57500D02*
D03*
Y62500D02*
D03*
X84008Y57500D02*
D03*
Y62500D02*
D03*
D13*
X85976Y84000D02*
D03*
Y79000D02*
D03*
Y74000D02*
D03*
Y69000D02*
D03*
X108024Y84000D02*
D03*
Y79000D02*
D03*
Y74000D02*
D03*
Y69000D02*
D03*
X72524Y72000D02*
D03*
Y77000D02*
D03*
Y82000D02*
D03*
Y87000D02*
D03*
X50476Y72000D02*
D03*
Y77000D02*
D03*
Y82000D02*
D03*
Y87000D02*
D03*
Y59500D02*
D03*
Y54500D02*
D03*
Y49500D02*
D03*
Y44500D02*
D03*
X72524Y59500D02*
D03*
Y54500D02*
D03*
Y49500D02*
D03*
Y44500D02*
D03*
X108024Y36000D02*
D03*
Y41000D02*
D03*
Y46000D02*
D03*
Y51000D02*
D03*
X85976Y36000D02*
D03*
Y41000D02*
D03*
Y46000D02*
D03*
Y51000D02*
D03*
D14*
X75224Y37362D02*
D03*
D15*
Y31260D02*
D03*
X65776D02*
D03*
Y38740D02*
D03*
D16*
Y35000D02*
D03*
D17*
X60500Y37953D02*
D03*
Y32047D02*
D03*
X80000Y45453D02*
D03*
Y39547D02*
D03*
X79000Y77453D02*
D03*
Y71547D02*
D03*
X115500Y48547D02*
D03*
Y54453D02*
D03*
Y64953D02*
D03*
Y59047D02*
D03*
X185000Y33953D02*
D03*
Y28047D02*
D03*
X190000D02*
D03*
Y33953D02*
D03*
X195000D02*
D03*
Y28047D02*
D03*
X200000D02*
D03*
Y33953D02*
D03*
X120000Y64953D02*
D03*
Y59047D02*
D03*
X200000Y44953D02*
D03*
Y39047D02*
D03*
X195000Y44953D02*
D03*
Y39047D02*
D03*
X190000Y44953D02*
D03*
Y39047D02*
D03*
X185000Y44953D02*
D03*
Y39047D02*
D03*
X202000Y87953D02*
D03*
Y82047D02*
D03*
D18*
X80260Y30500D02*
D03*
X87740D02*
D03*
X123760D02*
D03*
X131240D02*
D03*
X151260Y15000D02*
D03*
X158740D02*
D03*
X201740Y111000D02*
D03*
X194260D02*
D03*
X50240Y65500D02*
D03*
X42760D02*
D03*
D19*
X64547Y93500D02*
D03*
X70453Y95468D02*
D03*
Y91531D02*
D03*
X69547Y65500D02*
D03*
X75453Y67469D02*
D03*
Y63532D02*
D03*
D20*
X162795Y31559D02*
D03*
X164764D02*
D03*
X141142D02*
D03*
X135236D02*
D03*
X137205D02*
D03*
X139173D02*
D03*
X147047D02*
D03*
X143110D02*
D03*
X145079D02*
D03*
X149016D02*
D03*
X150984D02*
D03*
X152953D02*
D03*
X154921D02*
D03*
X156890D02*
D03*
X158858D02*
D03*
X160827D02*
D03*
X164764Y76441D02*
D03*
X162795D02*
D03*
X160827D02*
D03*
X158858D02*
D03*
X156890D02*
D03*
X154921D02*
D03*
X152953D02*
D03*
X150984D02*
D03*
X149016D02*
D03*
X147047D02*
D03*
X145079D02*
D03*
X143110D02*
D03*
X141142D02*
D03*
X139173D02*
D03*
X137205D02*
D03*
X135236D02*
D03*
D21*
X172441Y58921D02*
D03*
Y60890D02*
D03*
Y62858D02*
D03*
Y64827D02*
D03*
X127559Y68764D02*
D03*
Y66795D02*
D03*
Y64827D02*
D03*
Y62858D02*
D03*
Y60890D02*
D03*
Y58921D02*
D03*
Y56953D02*
D03*
Y54984D02*
D03*
Y53016D02*
D03*
Y51047D02*
D03*
Y49079D02*
D03*
Y47110D02*
D03*
Y45142D02*
D03*
Y43173D02*
D03*
Y41205D02*
D03*
Y39236D02*
D03*
X172441D02*
D03*
Y41205D02*
D03*
Y43173D02*
D03*
Y45142D02*
D03*
Y47110D02*
D03*
Y49079D02*
D03*
Y51047D02*
D03*
Y53016D02*
D03*
Y54984D02*
D03*
Y56953D02*
D03*
Y66795D02*
D03*
Y68764D02*
D03*
D22*
X178634Y24756D02*
D03*
Y19244D02*
D03*
X170366D02*
D03*
Y24756D02*
D03*
D23*
X171646Y30000D02*
D03*
X177354D02*
D03*
X156854Y21000D02*
D03*
X151146D02*
D03*
X114146Y30500D02*
D03*
X119854D02*
D03*
X113146Y70500D02*
D03*
X118854D02*
D03*
X104146Y30500D02*
D03*
X109854D02*
D03*
X165854Y21000D02*
D03*
X160146D02*
D03*
D24*
X175000Y76260D02*
D03*
Y83740D02*
D03*
X37500D02*
D03*
Y76260D02*
D03*
X50500Y40240D02*
D03*
Y32760D02*
D03*
X144500Y13240D02*
D03*
Y5760D02*
D03*
X37500Y61740D02*
D03*
Y54260D02*
D03*
X44000Y89240D02*
D03*
Y81760D02*
D03*
D25*
X152000Y84146D02*
D03*
Y89854D02*
D03*
X169500Y83354D02*
D03*
Y77646D02*
D03*
X180500Y35146D02*
D03*
Y40854D02*
D03*
X44500Y71146D02*
D03*
Y76854D02*
D03*
X43500Y53854D02*
D03*
Y48146D02*
D03*
X181000Y72146D02*
D03*
Y77854D02*
D03*
X196000Y82146D02*
D03*
Y87854D02*
D03*
D26*
X43500Y122500D02*
D03*
X192000Y15000D02*
D03*
D27*
X43500Y122500D02*
D03*
X192000Y15000D02*
D03*
D28*
X196760Y68618D02*
D03*
X204240D02*
D03*
Y58382D02*
D03*
X200500D02*
D03*
X196760D02*
D03*
X194260Y93882D02*
D03*
X198000D02*
D03*
X201740D02*
D03*
Y104118D02*
D03*
X194260D02*
D03*
D29*
X180488Y64969D02*
D03*
X191512D02*
D03*
Y61032D02*
D03*
X180488D02*
D03*
D30*
X135724Y9500D02*
D03*
X126276D02*
D03*
D31*
X41500Y32276D02*
D03*
Y41724D02*
D03*
D32*
X140126Y117460D02*
D03*
D33*
X155874D02*
D03*
X140126Y112460D02*
D03*
X155874D02*
D03*
X140126Y107460D02*
D03*
Y102460D02*
D03*
Y97460D02*
D03*
X155874Y107460D02*
D03*
Y102460D02*
D03*
Y97460D02*
D03*
D71*
X44000Y89240D02*
X47760Y93000D01*
X49276D01*
X144500Y10000D02*
Y13240D01*
X108024Y51000D02*
X112000D01*
X109854Y30500D02*
X112500Y33146D01*
Y34000D01*
X114047D01*
X115547Y35500D01*
Y40000D01*
X109854Y30500D02*
X114146D01*
X131043D02*
Y33543D01*
X116500Y68000D02*
Y68146D01*
X118854Y70500D01*
X115500Y64953D02*
X116500Y65953D01*
Y68000D01*
X113047Y62500D02*
X115500Y64953D01*
X109992Y62500D02*
X113047D01*
X108024Y84000D02*
X112000D01*
X109992Y90500D02*
X116047D01*
X109992Y95500D02*
X114000D01*
X87453Y25000D02*
X87740Y25287D01*
Y30500D01*
X78500Y25000D02*
X81547D01*
X85760Y36000D02*
X85976D01*
X80260Y30500D02*
X85760Y36000D01*
X79500Y31260D02*
X80260Y30500D01*
X75224Y31260D02*
X79500D01*
X82500Y53000D02*
X84500Y51000D01*
X85976D01*
X80500Y64500D02*
X82500Y62500D01*
X84008D01*
X72524Y59500D02*
X75500D01*
X78000Y57000D01*
Y52500D02*
Y57000D01*
Y52500D02*
X84500Y46000D01*
X85976D01*
X80000Y39547D02*
X81453Y41000D01*
X85976D01*
X75047Y44500D02*
X80000Y39547D01*
X72524Y44500D02*
X75047D01*
X78547Y72000D02*
X79000Y71547D01*
X72524Y72000D02*
X78547D01*
X79000Y71547D02*
X81453Y74000D01*
X85976D01*
X84500Y84000D02*
X85976D01*
X72524Y87000D02*
X76500D01*
X84500Y79000D01*
X85976D01*
X83000Y85500D02*
X84500Y84000D01*
X79500Y94500D02*
X80500Y95500D01*
X84008D01*
X44354Y71000D02*
X44500Y71146D01*
X41500Y71000D02*
X44354D01*
X38240Y54260D02*
X41000Y51500D01*
X37500Y54260D02*
X38240D01*
X41000Y51500D02*
X41146D01*
X43500Y53854D01*
X57000Y49500D02*
X59500Y47000D01*
X50476Y49500D02*
X57000D01*
X43500Y48146D02*
X44854Y49500D01*
X50476D01*
Y59500D02*
X54500D01*
X35327Y59567D02*
X37500Y61740D01*
X41260D01*
X48500Y54500D01*
X50476D01*
X37500Y61740D02*
X41260Y65500D01*
X42760D01*
X50240D02*
X54776D01*
X50476Y87000D02*
X54500D01*
X37500Y83740D02*
Y87000D01*
Y76260D02*
X43000Y81760D01*
X44000D01*
X44240Y82000D01*
X50476D01*
X31594Y70354D02*
X37500Y76260D01*
X71000Y35000D02*
X72862D01*
X75224Y37362D01*
X65776Y35000D02*
X71000D01*
X53370Y40240D02*
X55500Y38110D01*
Y34500D02*
Y38110D01*
Y34500D02*
X57953Y32047D01*
X60500D01*
Y37953D02*
X61287Y38740D01*
X65776D01*
X60500Y32047D02*
X61287Y31260D01*
X65776D01*
X50500Y29500D02*
Y32760D01*
X17500Y70354D02*
X31594D01*
X17500Y59567D02*
X35327D01*
X151146Y15311D02*
X151457Y15000D01*
Y13543D02*
Y15000D01*
X172453Y97500D02*
X183500D01*
X115500Y59047D02*
X120000D01*
X113039Y54453D02*
X115500D01*
X109992Y57500D02*
X113039Y54453D01*
X169500Y9000D02*
X198000D01*
X156000D02*
X169500D01*
X165854Y12646D02*
X169500Y9000D01*
X165854Y12646D02*
Y21000D01*
X159500Y15000D02*
X162000Y17500D01*
X158740Y15000D02*
X159500D01*
X160146Y19354D02*
X162000Y17500D01*
X160146Y19354D02*
Y21000D01*
X165854D02*
X169610Y24756D01*
X170366D01*
X177354Y30000D02*
X178634Y28721D01*
Y24756D02*
Y28721D01*
X170366Y19244D02*
X173122Y22000D01*
X175878D02*
X178634Y19244D01*
X174500Y22000D02*
X175878D01*
X173122D02*
X174500D01*
X180500Y40854D02*
X181646Y42000D01*
X151146Y15311D02*
Y21000D01*
X151457Y13543D02*
X156000Y9000D01*
X156854Y16689D02*
X158543Y15000D01*
X156854Y16689D02*
Y21000D01*
X131043Y33543D02*
X132000Y34500D01*
X186000Y76000D02*
Y92000D01*
Y60000D02*
Y76000D01*
X182146Y72146D02*
X186000Y76000D01*
X181000Y72146D02*
X182146D01*
X122000Y124500D02*
X176500D01*
X196000Y79000D02*
Y82146D01*
X194260Y111000D02*
X194457D01*
X190000D02*
X194260D01*
X186000Y92000D02*
Y100000D01*
Y107000D01*
X183500Y97500D02*
X186000Y100000D01*
X200112Y73112D02*
X206612D01*
X196760Y69760D02*
X200112Y73112D01*
X196760Y68618D02*
Y69760D01*
X195671Y54329D02*
X195671D01*
X189000Y57000D02*
X193000D01*
X195171Y54829D02*
X195671Y54329D01*
X193000Y57000D02*
X194191Y55809D01*
Y55780D02*
X195142Y54829D01*
X195171D01*
X194191Y55780D02*
Y55809D01*
X198000Y9000D02*
X204000Y15000D01*
Y43000D01*
X195671Y54329D02*
X204000Y46000D01*
Y43000D02*
Y46000D01*
X186000Y60000D02*
X189000Y57000D01*
X203000Y42000D02*
X204000Y43000D01*
X181646Y42000D02*
X203000D01*
X176500Y124500D02*
X190000Y111000D01*
X186000Y107000D02*
X190000Y111000D01*
D72*
X58724Y93000D02*
X59224Y93500D01*
X64547D01*
X150000Y15000D02*
X151260D01*
X129043Y16457D02*
X148543D01*
X150000Y15000D01*
X127500Y18000D02*
X129043Y16457D01*
X127500Y18000D02*
Y24500D01*
X108024Y34378D02*
Y36000D01*
X104146Y30500D02*
X108024Y34378D01*
X121953Y83547D02*
Y90500D01*
Y83547D02*
X133000Y72500D01*
Y62000D02*
Y72500D01*
X131890Y60890D02*
X133000Y62000D01*
X127559Y60890D02*
X131890D01*
X132453Y56953D02*
X133500Y58000D01*
X127559Y56953D02*
X132453D01*
X111000Y70500D02*
X113146D01*
X109500Y69000D02*
X111000Y70500D01*
X108024Y69000D02*
X109500D01*
X104146Y66500D02*
Y96146D01*
Y30500D02*
Y66500D01*
X105146Y65500D01*
X110000D01*
X113146Y68646D01*
Y70500D01*
X119000Y99500D02*
X120000Y100500D01*
X107500Y99500D02*
X119000D01*
X104146Y96146D02*
X107500Y99500D01*
X59500Y74250D02*
Y83500D01*
X67500Y91500D02*
Y94000D01*
X59500Y83500D02*
X67500Y91500D01*
X75453Y63532D02*
X81484Y57500D01*
X84008D01*
X75953Y49500D02*
X80000Y45453D01*
X72524Y49500D02*
X75953D01*
X90000Y42000D02*
Y68000D01*
Y37000D02*
Y42000D01*
X88500Y43500D02*
X90000Y42000D01*
X81953Y43500D02*
X88500D01*
X80000Y45453D02*
X81953Y43500D01*
X78547Y77000D02*
X79000Y77453D01*
X72524Y77000D02*
X78547D01*
X79953Y76500D02*
X89500D01*
X79000Y77453D02*
X79953Y76500D01*
X90000Y68000D02*
Y76000D01*
X89000Y69000D02*
X90000Y68000D01*
X85976Y69000D02*
X89000D01*
X89500Y76500D02*
X90000Y76000D01*
X89000Y36000D02*
X90000Y37000D01*
X85976Y36000D02*
X89000D01*
X64224Y65500D02*
X69547D01*
X64500Y72500D02*
X69532Y67469D01*
X75453D01*
X61000Y72500D02*
X64500D01*
X67500Y94000D02*
X68968Y95468D01*
X70453D01*
X79500Y90500D02*
X84008D01*
X78469Y91531D02*
X79500Y90500D01*
X70453Y91531D02*
X78469D01*
X59500Y71000D02*
X61000Y72500D01*
X155874Y112460D02*
X155914Y112500D01*
X166547D01*
X155874Y97460D02*
X155914Y97500D01*
X166547D01*
Y94547D02*
Y97500D01*
X163000Y91000D02*
X166547Y94547D01*
X172453Y97500D02*
Y112500D01*
X123760Y30500D02*
X123957D01*
X119854D02*
X123760D01*
X172453Y112500D02*
Y118547D01*
X175000Y76260D02*
Y79500D01*
Y74500D02*
Y76260D01*
X120000Y64953D02*
X120126Y64827D01*
X127559D01*
X123000Y68000D02*
Y71500D01*
Y68000D02*
X124205Y66795D01*
X127559D01*
X115500Y48547D02*
X116937Y47110D01*
X127559D01*
X121453Y35500D02*
X125189Y39236D01*
X127559D01*
X121453Y40000D02*
X122658Y41205D01*
X127559D01*
X108024Y41000D02*
X110000D01*
X112173Y43173D02*
X123827D01*
X110000Y41000D02*
X112173Y43173D01*
X108024Y46000D02*
X111000D01*
X111858Y45142D02*
X127559D01*
X111000Y46000D02*
X111858Y45142D01*
X123827Y43173D02*
X127559D01*
X131016Y54984D02*
X132000Y54000D01*
X131957Y38500D02*
X132000D01*
Y54000D01*
X127559Y54984D02*
X131016D01*
X123957Y30500D02*
X131957Y38500D01*
X120500Y74000D02*
X123000Y71500D01*
X108024Y74000D02*
X120500D01*
X119500Y79000D02*
X127559Y70941D01*
X108024Y79000D02*
X119500D01*
X127559Y68764D02*
Y70941D01*
X123000Y95500D02*
X135236Y83264D01*
Y76441D02*
Y83264D01*
X123000Y95500D02*
Y103500D01*
X126500Y95000D02*
Y105500D01*
X137205Y76441D02*
Y84295D01*
X126500Y95000D02*
X137205Y84295D01*
X128500Y96500D02*
Y109000D01*
X139173Y76441D02*
Y85827D01*
X128500Y96500D02*
X139173Y85827D01*
X130500Y97500D02*
X141142Y86858D01*
X130500Y97500D02*
Y112000D01*
X141142Y76441D02*
Y86858D01*
X171646Y30000D02*
Y31854D01*
X167000Y36500D02*
X171646Y31854D01*
X163500Y36500D02*
X167000D01*
X162795Y35795D02*
X163500Y36500D01*
X162795Y31559D02*
Y35795D01*
X180149Y41205D02*
X180500Y40854D01*
X172441Y41205D02*
X180149D01*
X177000Y38000D02*
X179854Y35146D01*
X180500D01*
X175764Y39236D02*
X177000Y38000D01*
X172441Y39236D02*
X175764D01*
X143110Y27890D02*
X150000Y21000D01*
X151146D01*
X143110Y27890D02*
Y31559D01*
X145000Y37000D02*
X145079Y36921D01*
Y31559D02*
Y36921D01*
X119854Y27646D02*
Y30500D01*
Y27646D02*
X121000Y26500D01*
X125500D01*
X127500Y24500D01*
X213256Y64500D02*
X217717Y60039D01*
X204240Y67260D02*
X207000Y64500D01*
X213256D01*
X152000Y89854D02*
Y93000D01*
Y84146D02*
X155354Y87500D01*
X150984Y83130D02*
X152000Y84146D01*
X169500Y77646D02*
X171354Y79500D01*
X175000D01*
X179354D02*
X181000Y77854D01*
X175000Y79500D02*
X179354D01*
X172500Y72000D02*
X175000Y74500D01*
X177618Y68764D02*
X181000Y72146D01*
X172441Y68764D02*
X177618D01*
X169500Y74500D02*
Y77646D01*
X166500Y71500D02*
X169500Y74500D01*
X70709Y115000D02*
X111047D01*
X62008Y106299D02*
X70709Y115000D01*
X111047D02*
X117047Y109000D01*
X74000Y112500D02*
X108047D01*
X117047Y103500D01*
X63468Y101969D02*
X74000Y112500D01*
X56102Y117717D02*
Y122047D01*
Y101969D02*
Y106299D01*
Y117717D01*
X62008Y101969D02*
X63468D01*
X113831Y117717D02*
X117047Y114500D01*
X62008Y117717D02*
X113831D01*
X115547Y121500D02*
X117047Y120000D01*
X62555Y121500D02*
X115547D01*
X62008Y122047D02*
X62555Y121500D01*
X107606Y125394D02*
X108500Y124500D01*
X59449Y125394D02*
X107606D01*
X56102Y122047D02*
X59449Y125394D01*
X123079Y119421D02*
X130500Y112000D01*
X120000Y122500D02*
X120000Y100500D01*
X120000Y122500D02*
X122000Y124500D01*
X122953Y114500D02*
X123000D01*
X128500Y109000D01*
X122976Y109024D02*
X126500Y105500D01*
X156000Y71500D02*
X166500D01*
X181500Y87500D02*
X186000Y92000D01*
X155354Y87500D02*
X181500D01*
X158858Y80858D02*
X160000Y82000D01*
X158858Y76441D02*
Y80858D01*
X150984Y76441D02*
Y83130D01*
X133500Y109500D02*
X136460Y112460D01*
X140126D01*
X133500Y109500D02*
X135540Y107460D01*
X140126D01*
X133500Y100500D02*
X136540Y97460D01*
X140126D01*
X133500Y100500D02*
Y109500D01*
X150460Y112460D02*
X155874D01*
X149016Y111016D02*
X150460Y112460D01*
X149016Y76441D02*
Y111016D01*
X149460Y117460D02*
X155874D01*
X147047Y115047D02*
X149460Y117460D01*
X147047Y76441D02*
Y115047D01*
X170000Y121000D02*
X172453Y118547D01*
X148000Y121000D02*
X170000D01*
X144460Y117460D02*
X148000Y121000D01*
X140126Y117460D02*
X144460D01*
X154921Y72579D02*
X156000Y71500D01*
X154921Y72579D02*
Y76441D01*
X170000Y72000D02*
X172500D01*
X168000Y70000D02*
X170000Y72000D01*
X168000Y68000D02*
Y70000D01*
Y68000D02*
X169205Y66795D01*
X172441D01*
X204240Y67740D02*
Y68618D01*
Y67260D02*
Y67740D01*
X201468Y64969D02*
X204240Y67740D01*
X191512Y64969D02*
X201468D01*
X204240Y58382D02*
X205898Y60039D01*
X209842D01*
X204240Y58382D02*
Y60260D01*
X202500Y62000D02*
X204240Y60260D01*
X195000Y62000D02*
X202500D01*
X194032Y61032D02*
X195000Y62000D01*
X191512Y61032D02*
X194032D01*
X137205Y25795D02*
X142000Y21000D01*
X137205Y25795D02*
Y31559D01*
X132000Y21000D02*
X135236Y24236D01*
Y31559D01*
X185000Y25000D02*
Y28047D01*
X180457Y61000D02*
X180488Y61032D01*
X178000Y61000D02*
X180457D01*
X176142Y62858D02*
X178000Y61000D01*
X172441Y62858D02*
X176142D01*
X180347Y64827D02*
X180488Y64969D01*
X172441Y64827D02*
X180347D01*
X191937Y53016D02*
X200000Y44953D01*
X172441Y53016D02*
X191937D01*
X188906Y51047D02*
X195000Y44953D01*
X172441Y51047D02*
X188906D01*
X185874Y49079D02*
X190000Y44953D01*
X172441Y49079D02*
X185874D01*
X182843Y47110D02*
X185000Y44953D01*
X172441Y47110D02*
X182843D01*
X185000Y33953D02*
Y39047D01*
X190000Y33953D02*
Y39047D01*
X195000Y33953D02*
Y39047D01*
X200000Y33953D02*
Y39047D01*
X195000Y28047D02*
X200000D01*
X190000D02*
X195000D01*
X185000D02*
X190000D01*
D73*
X124776Y8000D02*
X126276Y9500D01*
X108000Y8000D02*
X124776D01*
X135724Y9500D02*
X139465Y5760D01*
X144500D01*
X144760Y5500D01*
X200500D01*
X208000Y13000D01*
X194260Y89595D02*
X196000Y87854D01*
X194260Y89595D02*
Y93882D01*
X196000Y87854D02*
X196098Y87953D01*
X202000D01*
X104500Y14500D02*
X108500D01*
X98000Y8000D02*
X104500Y14500D01*
X206612Y73112D02*
X209842Y69882D01*
X202000Y77724D02*
X206612Y73112D01*
X208000Y40000D02*
X224000Y56000D01*
X208000Y13000D02*
Y40000D01*
X224000Y56000D02*
Y74000D01*
X207000Y95000D02*
X211047D01*
X221929D02*
X228346Y88583D01*
X216953Y95000D02*
X221929D01*
X210047Y87953D02*
X224000Y74000D01*
X202000Y87953D02*
X210047D01*
X202000Y77724D02*
Y82047D01*
D74*
X59500Y47000D02*
Y71000D01*
Y43500D02*
Y47000D01*
X50331Y76854D02*
X50476Y77000D01*
X44500Y76854D02*
X50331D01*
X59500Y71000D02*
Y74250D01*
X56750Y77000D02*
X59500Y74250D01*
X50476Y77000D02*
X56750D01*
X53370Y40240D02*
X56240D01*
X50500D02*
X53370D01*
X41500Y24500D02*
Y32276D01*
Y24500D02*
X58000Y8000D01*
X42984Y40240D02*
X50500D01*
X41500Y41724D02*
X42984Y40240D01*
X56240D02*
X59500Y43500D01*
X194457Y104315D02*
Y111000D01*
X200500Y54000D02*
Y58382D01*
X198000Y99000D02*
Y107457D01*
X201543Y111000D01*
X194260Y104118D02*
X194457Y104315D01*
X198000Y93882D02*
Y99000D01*
X201740Y88213D02*
X202000Y87953D01*
X201740Y88213D02*
Y93882D01*
D75*
X174811Y83354D02*
X175000Y83543D01*
X169500Y83354D02*
X174811D01*
X167854Y85000D02*
X169500Y83354D01*
X159000Y85000D02*
X167854D01*
X156890Y82890D02*
X159000Y85000D01*
X156890Y76441D02*
Y82890D01*
D76*
X17500Y48779D02*
D03*
Y59567D02*
D03*
Y70354D02*
D03*
Y81142D02*
D03*
X27500Y43386D02*
D03*
Y54173D02*
D03*
Y64961D02*
D03*
Y75748D02*
D03*
D77*
Y86535D02*
D03*
D78*
X122000Y21000D02*
D03*
D79*
X132000D02*
D03*
X142000D02*
D03*
D80*
X228346Y41339D02*
D03*
Y88583D02*
D03*
D81*
X217717Y60039D02*
D03*
Y69882D02*
D03*
X209842Y60039D02*
D03*
D82*
Y69882D02*
D03*
D83*
X78000Y8000D02*
D03*
X58000D02*
D03*
X98000D02*
D03*
D84*
X108000Y8000D02*
D03*
D85*
X144500Y10000D02*
D03*
X133500Y58000D02*
D03*
X116500Y68000D02*
D03*
X112000Y51000D02*
D03*
Y84000D02*
D03*
X82500Y53000D02*
D03*
X80500Y64500D02*
D03*
X83000Y85500D02*
D03*
X41500Y71000D02*
D03*
X54500Y59500D02*
D03*
Y87000D02*
D03*
X37500D02*
D03*
X79500Y94500D02*
D03*
X174500Y22000D02*
D03*
X145000Y37000D02*
D03*
X132000Y34500D02*
D03*
X112500Y34000D02*
D03*
X50500Y29500D02*
D03*
X108500Y124500D02*
D03*
X114000Y95500D02*
D03*
X160000Y82000D02*
D03*
X163000Y91000D02*
D03*
X152000Y93000D02*
D03*
X133500Y109500D02*
D03*
X108500Y14500D02*
D03*
X196000Y79000D02*
D03*
X78500Y25000D02*
D03*
X41000Y51500D02*
D03*
X185000Y25000D02*
D03*
X175000Y79500D02*
D03*
X177000Y38000D02*
D03*
X198000Y99000D02*
D03*
X207000Y95000D02*
D03*
X200500Y54000D02*
D03*
X162000Y17500D02*
D03*
X71000Y35000D02*
D03*
M02*
