G04*
G04 #@! TF.GenerationSoftware,Altium Limited,Altium Designer,22.6.1 (34)*
G04*
G04 Layer_Color=8388736*
%FSLAX25Y25*%
%MOIN*%
G70*
G04*
G04 #@! TF.SameCoordinates,92C09A27-C496-4622-AF52-00FCEC43516E*
G04*
G04*
G04 #@! TF.FilePolarity,Negative*
G04*
G01*
G75*
%ADD34C,0.01181*%
%ADD35R,0.07874X0.86614*%
G04:AMPARAMS|DCode=36|XSize=37.47mil|YSize=27.62mil|CornerRadius=4.36mil|HoleSize=0mil|Usage=FLASHONLY|Rotation=180.000|XOffset=0mil|YOffset=0mil|HoleType=Round|Shape=RoundedRectangle|*
%AMROUNDEDRECTD36*
21,1,0.03747,0.01890,0,0,180.0*
21,1,0.02874,0.02762,0,0,180.0*
1,1,0.00872,-0.01437,0.00945*
1,1,0.00872,0.01437,0.00945*
1,1,0.00872,0.01437,-0.00945*
1,1,0.00872,-0.01437,-0.00945*
%
%ADD36ROUNDEDRECTD36*%
G04:AMPARAMS|DCode=37|XSize=47.31mil|YSize=27.62mil|CornerRadius=5.54mil|HoleSize=0mil|Usage=FLASHONLY|Rotation=180.000|XOffset=0mil|YOffset=0mil|HoleType=Round|Shape=RoundedRectangle|*
%AMROUNDEDRECTD37*
21,1,0.04731,0.01654,0,0,180.0*
21,1,0.03622,0.02762,0,0,180.0*
1,1,0.01109,-0.01811,0.00827*
1,1,0.01109,0.01811,0.00827*
1,1,0.01109,0.01811,-0.00827*
1,1,0.01109,-0.01811,-0.00827*
%
%ADD37ROUNDEDRECTD37*%
G04:AMPARAMS|DCode=38|XSize=35.5mil|YSize=29.59mil|CornerRadius=8.4mil|HoleSize=0mil|Usage=FLASHONLY|Rotation=90.000|XOffset=0mil|YOffset=0mil|HoleType=Round|Shape=RoundedRectangle|*
%AMROUNDEDRECTD38*
21,1,0.03550,0.01280,0,0,90.0*
21,1,0.01870,0.02959,0,0,90.0*
1,1,0.01680,0.00640,0.00935*
1,1,0.01680,0.00640,-0.00935*
1,1,0.01680,-0.00640,-0.00935*
1,1,0.01680,-0.00640,0.00935*
%
%ADD38ROUNDEDRECTD38*%
G04:AMPARAMS|DCode=39|XSize=110.3mil|YSize=70.93mil|CornerRadius=8.69mil|HoleSize=0mil|Usage=FLASHONLY|Rotation=270.000|XOffset=0mil|YOffset=0mil|HoleType=Round|Shape=RoundedRectangle|*
%AMROUNDEDRECTD39*
21,1,0.11030,0.05354,0,0,270.0*
21,1,0.09291,0.07093,0,0,270.0*
1,1,0.01739,-0.02677,-0.04646*
1,1,0.01739,-0.02677,0.04646*
1,1,0.01739,0.02677,0.04646*
1,1,0.01739,0.02677,-0.04646*
%
%ADD39ROUNDEDRECTD39*%
G04:AMPARAMS|DCode=40|XSize=35.5mil|YSize=29.59mil|CornerRadius=8.4mil|HoleSize=0mil|Usage=FLASHONLY|Rotation=180.000|XOffset=0mil|YOffset=0mil|HoleType=Round|Shape=RoundedRectangle|*
%AMROUNDEDRECTD40*
21,1,0.03550,0.01280,0,0,180.0*
21,1,0.01870,0.02959,0,0,180.0*
1,1,0.01680,-0.00935,0.00640*
1,1,0.01680,0.00935,0.00640*
1,1,0.01680,0.00935,-0.00640*
1,1,0.01680,-0.00935,-0.00640*
%
%ADD40ROUNDEDRECTD40*%
G04:AMPARAMS|DCode=41|XSize=27.62mil|YSize=51.24mil|CornerRadius=5.54mil|HoleSize=0mil|Usage=FLASHONLY|Rotation=270.000|XOffset=0mil|YOffset=0mil|HoleType=Round|Shape=RoundedRectangle|*
%AMROUNDEDRECTD41*
21,1,0.02762,0.04016,0,0,270.0*
21,1,0.01654,0.05124,0,0,270.0*
1,1,0.01109,-0.02008,-0.00827*
1,1,0.01109,-0.02008,0.00827*
1,1,0.01109,0.02008,0.00827*
1,1,0.01109,0.02008,-0.00827*
%
%ADD41ROUNDEDRECTD41*%
G04:AMPARAMS|DCode=42|XSize=15.81mil|YSize=63.06mil|CornerRadius=4.95mil|HoleSize=0mil|Usage=FLASHONLY|Rotation=90.000|XOffset=0mil|YOffset=0mil|HoleType=Round|Shape=RoundedRectangle|*
%AMROUNDEDRECTD42*
21,1,0.01581,0.05315,0,0,90.0*
21,1,0.00591,0.06306,0,0,90.0*
1,1,0.00991,0.02657,0.00295*
1,1,0.00991,0.02657,-0.00295*
1,1,0.00991,-0.02657,-0.00295*
1,1,0.00991,-0.02657,0.00295*
%
%ADD42ROUNDEDRECTD42*%
G04:AMPARAMS|DCode=43|XSize=53.21mil|YSize=31.56mil|CornerRadius=4.76mil|HoleSize=0mil|Usage=FLASHONLY|Rotation=180.000|XOffset=0mil|YOffset=0mil|HoleType=Round|Shape=RoundedRectangle|*
%AMROUNDEDRECTD43*
21,1,0.05321,0.02205,0,0,180.0*
21,1,0.04370,0.03156,0,0,180.0*
1,1,0.00951,-0.02185,0.01102*
1,1,0.00951,0.02185,0.01102*
1,1,0.00951,0.02185,-0.01102*
1,1,0.00951,-0.02185,-0.01102*
%
%ADD43ROUNDEDRECTD43*%
G04:AMPARAMS|DCode=44|XSize=15.81mil|YSize=63.06mil|CornerRadius=4.95mil|HoleSize=0mil|Usage=FLASHONLY|Rotation=0.000|XOffset=0mil|YOffset=0mil|HoleType=Round|Shape=RoundedRectangle|*
%AMROUNDEDRECTD44*
21,1,0.01581,0.05315,0,0,0.0*
21,1,0.00591,0.06306,0,0,0.0*
1,1,0.00991,0.00295,-0.02657*
1,1,0.00991,-0.00295,-0.02657*
1,1,0.00991,-0.00295,0.02657*
1,1,0.00991,0.00295,0.02657*
%
%ADD44ROUNDEDRECTD44*%
G04:AMPARAMS|DCode=45|XSize=31.56mil|YSize=110.3mil|CornerRadius=6.13mil|HoleSize=0mil|Usage=FLASHONLY|Rotation=270.000|XOffset=0mil|YOffset=0mil|HoleType=Round|Shape=RoundedRectangle|*
%AMROUNDEDRECTD45*
21,1,0.03156,0.09803,0,0,270.0*
21,1,0.01929,0.11030,0,0,270.0*
1,1,0.01227,-0.04902,-0.00965*
1,1,0.01227,-0.04902,0.00965*
1,1,0.01227,0.04902,0.00965*
1,1,0.01227,0.04902,-0.00965*
%
%ADD45ROUNDEDRECTD45*%
G04:AMPARAMS|DCode=46|XSize=27.62mil|YSize=35.5mil|CornerRadius=5.54mil|HoleSize=0mil|Usage=FLASHONLY|Rotation=90.000|XOffset=0mil|YOffset=0mil|HoleType=Round|Shape=RoundedRectangle|*
%AMROUNDEDRECTD46*
21,1,0.02762,0.02441,0,0,90.0*
21,1,0.01654,0.03550,0,0,90.0*
1,1,0.01109,0.01221,0.00827*
1,1,0.01109,0.01221,-0.00827*
1,1,0.01109,-0.01221,-0.00827*
1,1,0.01109,-0.01221,0.00827*
%
%ADD46ROUNDEDRECTD46*%
G04:AMPARAMS|DCode=47|XSize=37.47mil|YSize=27.62mil|CornerRadius=4.36mil|HoleSize=0mil|Usage=FLASHONLY|Rotation=90.000|XOffset=0mil|YOffset=0mil|HoleType=Round|Shape=RoundedRectangle|*
%AMROUNDEDRECTD47*
21,1,0.03747,0.01890,0,0,90.0*
21,1,0.02874,0.02762,0,0,90.0*
1,1,0.00872,0.00945,0.01437*
1,1,0.00872,0.00945,-0.01437*
1,1,0.00872,-0.00945,-0.01437*
1,1,0.00872,-0.00945,0.01437*
%
%ADD47ROUNDEDRECTD47*%
G04:AMPARAMS|DCode=48|XSize=31.56mil|YSize=47.31mil|CornerRadius=6.13mil|HoleSize=0mil|Usage=FLASHONLY|Rotation=270.000|XOffset=0mil|YOffset=0mil|HoleType=Round|Shape=RoundedRectangle|*
%AMROUNDEDRECTD48*
21,1,0.03156,0.03504,0,0,270.0*
21,1,0.01929,0.04731,0,0,270.0*
1,1,0.01227,-0.01752,-0.00965*
1,1,0.01227,-0.01752,0.00965*
1,1,0.01227,0.01752,0.00965*
1,1,0.01227,0.01752,-0.00965*
%
%ADD48ROUNDEDRECTD48*%
G04:AMPARAMS|DCode=49|XSize=59.12mil|YSize=39.43mil|CornerRadius=7.32mil|HoleSize=0mil|Usage=FLASHONLY|Rotation=90.000|XOffset=0mil|YOffset=0mil|HoleType=Round|Shape=RoundedRectangle|*
%AMROUNDEDRECTD49*
21,1,0.05912,0.02480,0,0,90.0*
21,1,0.04449,0.03943,0,0,90.0*
1,1,0.01463,0.01240,0.02224*
1,1,0.01463,0.01240,-0.02224*
1,1,0.01463,-0.01240,-0.02224*
1,1,0.01463,-0.01240,0.02224*
%
%ADD49ROUNDEDRECTD49*%
G04:AMPARAMS|DCode=50|XSize=23.68mil|YSize=39.43mil|CornerRadius=4.95mil|HoleSize=0mil|Usage=FLASHONLY|Rotation=90.000|XOffset=0mil|YOffset=0mil|HoleType=Round|Shape=RoundedRectangle|*
%AMROUNDEDRECTD50*
21,1,0.02368,0.02953,0,0,90.0*
21,1,0.01378,0.03943,0,0,90.0*
1,1,0.00991,0.01476,0.00689*
1,1,0.00991,0.01476,-0.00689*
1,1,0.00991,-0.01476,-0.00689*
1,1,0.00991,-0.01476,0.00689*
%
%ADD50ROUNDEDRECTD50*%
G04:AMPARAMS|DCode=51|XSize=35.5mil|YSize=39.43mil|CornerRadius=6.72mil|HoleSize=0mil|Usage=FLASHONLY|Rotation=90.000|XOffset=0mil|YOffset=0mil|HoleType=Round|Shape=RoundedRectangle|*
%AMROUNDEDRECTD51*
21,1,0.03550,0.02598,0,0,90.0*
21,1,0.02205,0.03943,0,0,90.0*
1,1,0.01345,0.01299,0.01102*
1,1,0.01345,0.01299,-0.01102*
1,1,0.01345,-0.01299,-0.01102*
1,1,0.01345,-0.01299,0.01102*
%
%ADD51ROUNDEDRECTD51*%
G04:AMPARAMS|DCode=52|XSize=53.21mil|YSize=31.56mil|CornerRadius=4.76mil|HoleSize=0mil|Usage=FLASHONLY|Rotation=270.000|XOffset=0mil|YOffset=0mil|HoleType=Round|Shape=RoundedRectangle|*
%AMROUNDEDRECTD52*
21,1,0.05321,0.02205,0,0,270.0*
21,1,0.04370,0.03156,0,0,270.0*
1,1,0.00951,-0.01102,-0.02185*
1,1,0.00951,-0.01102,0.02185*
1,1,0.00951,0.01102,0.02185*
1,1,0.00951,0.01102,-0.02185*
%
%ADD52ROUNDEDRECTD52*%
G04:AMPARAMS|DCode=53|XSize=17.78mil|YSize=27.62mil|CornerRadius=4.07mil|HoleSize=0mil|Usage=FLASHONLY|Rotation=270.000|XOffset=0mil|YOffset=0mil|HoleType=Round|Shape=RoundedRectangle|*
%AMROUNDEDRECTD53*
21,1,0.01778,0.01949,0,0,270.0*
21,1,0.00965,0.02762,0,0,270.0*
1,1,0.00813,-0.00974,-0.00482*
1,1,0.00813,-0.00974,0.00482*
1,1,0.00813,0.00974,0.00482*
1,1,0.00813,0.00974,-0.00482*
%
%ADD53ROUNDEDRECTD53*%
%ADD54R,0.08661X0.08661*%
%ADD55C,0.04337*%
G04:AMPARAMS|DCode=56|XSize=27.62mil|YSize=47.31mil|CornerRadius=4.36mil|HoleSize=0mil|Usage=FLASHONLY|Rotation=180.000|XOffset=0mil|YOffset=0mil|HoleType=Round|Shape=RoundedRectangle|*
%AMROUNDEDRECTD56*
21,1,0.02762,0.03858,0,0,180.0*
21,1,0.01890,0.04731,0,0,180.0*
1,1,0.00872,-0.00945,0.01929*
1,1,0.00872,0.00945,0.01929*
1,1,0.00872,0.00945,-0.01929*
1,1,0.00872,-0.00945,-0.01929*
%
%ADD56ROUNDEDRECTD56*%
G04:AMPARAMS|DCode=57|XSize=63.12mil|YSize=110.36mil|CornerRadius=12.27mil|HoleSize=0mil|Usage=FLASHONLY|Rotation=180.000|XOffset=0mil|YOffset=0mil|HoleType=Round|Shape=RoundedRectangle|*
%AMROUNDEDRECTD57*
21,1,0.06312,0.08583,0,0,180.0*
21,1,0.03858,0.11036,0,0,180.0*
1,1,0.02454,-0.01929,0.04291*
1,1,0.02454,0.01929,0.04291*
1,1,0.02454,0.01929,-0.04291*
1,1,0.02454,-0.01929,-0.04291*
%
%ADD57ROUNDEDRECTD57*%
G04:AMPARAMS|DCode=58|XSize=59.12mil|YSize=106.36mil|CornerRadius=10.27mil|HoleSize=0mil|Usage=FLASHONLY|Rotation=180.000|XOffset=0mil|YOffset=0mil|HoleType=Round|Shape=RoundedRectangle|*
%AMROUNDEDRECTD58*
21,1,0.05912,0.08583,0,0,180.0*
21,1,0.03858,0.10636,0,0,180.0*
1,1,0.02054,-0.01929,0.04291*
1,1,0.02054,0.01929,0.04291*
1,1,0.02054,0.01929,-0.04291*
1,1,0.02054,-0.01929,-0.04291*
%
%ADD58ROUNDEDRECTD58*%
G04:AMPARAMS|DCode=59|XSize=63.12mil|YSize=110.36mil|CornerRadius=12.27mil|HoleSize=0mil|Usage=FLASHONLY|Rotation=90.000|XOffset=0mil|YOffset=0mil|HoleType=Round|Shape=RoundedRectangle|*
%AMROUNDEDRECTD59*
21,1,0.06312,0.08583,0,0,90.0*
21,1,0.03858,0.11036,0,0,90.0*
1,1,0.02454,0.04291,0.01929*
1,1,0.02454,0.04291,-0.01929*
1,1,0.02454,-0.04291,-0.01929*
1,1,0.02454,-0.04291,0.01929*
%
%ADD59ROUNDEDRECTD59*%
G04:AMPARAMS|DCode=60|XSize=59.12mil|YSize=106.36mil|CornerRadius=10.27mil|HoleSize=0mil|Usage=FLASHONLY|Rotation=90.000|XOffset=0mil|YOffset=0mil|HoleType=Round|Shape=RoundedRectangle|*
%AMROUNDEDRECTD60*
21,1,0.05912,0.08583,0,0,90.0*
21,1,0.03858,0.10636,0,0,90.0*
1,1,0.02054,0.04291,0.01929*
1,1,0.02054,0.04291,-0.01929*
1,1,0.02054,-0.04291,-0.01929*
1,1,0.02054,-0.04291,0.01929*
%
%ADD60ROUNDEDRECTD60*%
%ADD61R,0.11030X0.03156*%
%ADD62R,0.07093X0.07093*%
%ADD63C,0.07093*%
%ADD64C,0.00400*%
%ADD65C,0.06699*%
G04:AMPARAMS|DCode=66|XSize=66.99mil|YSize=66.99mil|CornerRadius=17.75mil|HoleSize=0mil|Usage=FLASHONLY|Rotation=0.000|XOffset=0mil|YOffset=0mil|HoleType=Round|Shape=RoundedRectangle|*
%AMROUNDEDRECTD66*
21,1,0.06699,0.03150,0,0,0.0*
21,1,0.03150,0.06699,0,0,0.0*
1,1,0.03550,0.01575,-0.01575*
1,1,0.03550,-0.01575,-0.01575*
1,1,0.03550,-0.01575,0.01575*
1,1,0.03550,0.01575,0.01575*
%
%ADD66ROUNDEDRECTD66*%
G04:AMPARAMS|DCode=67|XSize=63.06mil|YSize=63.06mil|CornerRadius=16.76mil|HoleSize=0mil|Usage=FLASHONLY|Rotation=0.000|XOffset=0mil|YOffset=0mil|HoleType=Round|Shape=RoundedRectangle|*
%AMROUNDEDRECTD67*
21,1,0.06306,0.02953,0,0,0.0*
21,1,0.02953,0.06306,0,0,0.0*
1,1,0.03353,0.01476,-0.01476*
1,1,0.03353,-0.01476,-0.01476*
1,1,0.03353,-0.01476,0.01476*
1,1,0.03353,0.01476,0.01476*
%
%ADD67ROUNDEDRECTD67*%
%ADD68P,0.06825X8X22.5*%
%ADD69C,0.13786*%
%ADD70C,0.05912*%
G04:AMPARAMS|DCode=71|XSize=59.12mil|YSize=59.12mil|CornerRadius=15.78mil|HoleSize=0mil|Usage=FLASHONLY|Rotation=90.000|XOffset=0mil|YOffset=0mil|HoleType=Round|Shape=RoundedRectangle|*
%AMROUNDEDRECTD71*
21,1,0.05912,0.02756,0,0,90.0*
21,1,0.02756,0.05912,0,0,90.0*
1,1,0.03156,0.01378,0.01378*
1,1,0.03156,0.01378,-0.01378*
1,1,0.03156,-0.01378,-0.01378*
1,1,0.03156,-0.01378,0.01378*
%
%ADD71ROUNDEDRECTD71*%
D34*
X47441Y53347D02*
X49278D01*
X48359D01*
Y58856D01*
X47441Y57938D01*
X46457Y91403D02*
X47375Y92321D01*
X49212D01*
X50130Y91403D01*
Y87729D01*
X49212Y86811D01*
X47375D01*
X46457Y87729D01*
Y91403D01*
X156693Y128150D02*
X158267Y129724D01*
X156693Y131298D01*
X48425Y145537D02*
X49343Y146455D01*
X51180D01*
X52099Y145537D01*
Y141863D01*
X51180Y140945D01*
X49343D01*
X48425Y141863D01*
Y145537D01*
Y125197D02*
X50262D01*
X49343D01*
Y130707D01*
X48425Y129788D01*
D35*
X114173Y74803D02*
D03*
D36*
X146653Y69882D02*
D03*
Y75787D02*
D03*
Y87598D02*
D03*
X141732Y60039D02*
D03*
X65945Y43307D02*
D03*
Y37402D02*
D03*
X88583Y47244D02*
D03*
Y53150D02*
D03*
X92520Y81693D02*
D03*
Y87598D02*
D03*
X141732Y65945D02*
D03*
X146653Y93504D02*
D03*
X141732Y75787D02*
D03*
Y69882D02*
D03*
X214567Y47244D02*
D03*
Y41339D02*
D03*
X220472D02*
D03*
Y47244D02*
D03*
X226378D02*
D03*
Y41339D02*
D03*
X232283D02*
D03*
Y47244D02*
D03*
Y58071D02*
D03*
Y52165D02*
D03*
X226378Y58071D02*
D03*
Y52165D02*
D03*
X220472Y58071D02*
D03*
Y52165D02*
D03*
X214567Y58071D02*
D03*
Y52165D02*
D03*
X231299Y98425D02*
D03*
Y92520D02*
D03*
D37*
X209055Y73819D02*
D03*
X220079D02*
D03*
Y77756D02*
D03*
X209055D02*
D03*
D38*
X91634Y77756D02*
D03*
X97342D02*
D03*
X181004Y33465D02*
D03*
X175295D02*
D03*
X131004Y78740D02*
D03*
X136713D02*
D03*
X56201Y80709D02*
D03*
X61910D02*
D03*
X130020Y42323D02*
D03*
X135728D02*
D03*
X56201Y45276D02*
D03*
X61910D02*
D03*
D39*
X196457Y30512D02*
D03*
X205118D02*
D03*
D40*
X196850Y44193D02*
D03*
X202756Y38484D02*
D03*
X196850D02*
D03*
X181102Y96555D02*
D03*
Y102264D02*
D03*
X158465Y38484D02*
D03*
Y44193D02*
D03*
X195866Y95374D02*
D03*
Y89665D02*
D03*
X206693Y47343D02*
D03*
Y53051D02*
D03*
X209646Y84744D02*
D03*
Y90453D02*
D03*
X225394Y92618D02*
D03*
Y98327D02*
D03*
X202756Y44193D02*
D03*
D41*
X125197Y86083D02*
D03*
Y91083D02*
D03*
Y81083D02*
D03*
Y96083D02*
D03*
X103150D02*
D03*
Y81083D02*
D03*
X125197Y50650D02*
D03*
Y55650D02*
D03*
X56890Y96988D02*
D03*
Y61555D02*
D03*
X103150Y86083D02*
D03*
Y91083D02*
D03*
X78937Y86988D02*
D03*
Y91988D02*
D03*
Y96988D02*
D03*
Y101988D02*
D03*
X56890Y86988D02*
D03*
Y91988D02*
D03*
Y101988D02*
D03*
Y66555D02*
D03*
Y56555D02*
D03*
Y51555D02*
D03*
X78937Y66555D02*
D03*
Y61555D02*
D03*
Y56555D02*
D03*
Y51555D02*
D03*
X125197Y45650D02*
D03*
Y60650D02*
D03*
X103150Y45650D02*
D03*
Y50650D02*
D03*
Y55650D02*
D03*
Y60650D02*
D03*
D42*
X154724Y78740D02*
D03*
Y80709D02*
D03*
Y72835D02*
D03*
Y59055D02*
D03*
Y55118D02*
D03*
Y57087D02*
D03*
X199606Y70866D02*
D03*
Y72835D02*
D03*
Y74803D02*
D03*
Y76772D02*
D03*
X154724D02*
D03*
Y74803D02*
D03*
Y70866D02*
D03*
Y68898D02*
D03*
Y66929D02*
D03*
Y64961D02*
D03*
Y62992D02*
D03*
Y61024D02*
D03*
Y53150D02*
D03*
Y51181D02*
D03*
X199606D02*
D03*
Y53150D02*
D03*
Y55118D02*
D03*
Y57087D02*
D03*
Y59055D02*
D03*
Y61024D02*
D03*
Y62992D02*
D03*
Y64961D02*
D03*
Y66929D02*
D03*
Y68898D02*
D03*
Y78740D02*
D03*
Y80709D02*
D03*
D43*
X48228Y96653D02*
D03*
X41339D02*
D03*
X48228Y65158D02*
D03*
X41339D02*
D03*
X152559Y44094D02*
D03*
Y36614D02*
D03*
X201772Y88779D02*
D03*
Y96260D02*
D03*
X41339Y104134D02*
D03*
X49213Y33661D02*
D03*
Y41142D02*
D03*
X183071Y15551D02*
D03*
Y8071D02*
D03*
X41339Y72638D02*
D03*
X48228Y104134D02*
D03*
Y72638D02*
D03*
D44*
X191929Y43504D02*
D03*
X172244Y88386D02*
D03*
X189961Y43504D02*
D03*
X168307D02*
D03*
X162401D02*
D03*
X164370D02*
D03*
X166339D02*
D03*
X174213D02*
D03*
X170275D02*
D03*
X172244D02*
D03*
X176181D02*
D03*
X178149D02*
D03*
X180118D02*
D03*
X182087D02*
D03*
X184055D02*
D03*
X186024D02*
D03*
X187992D02*
D03*
X191929Y88386D02*
D03*
X189961D02*
D03*
X187992D02*
D03*
X186024D02*
D03*
X184055D02*
D03*
X182087D02*
D03*
X180118D02*
D03*
X178149D02*
D03*
X176181D02*
D03*
X174213D02*
D03*
X170275D02*
D03*
X168307D02*
D03*
X166339D02*
D03*
X164370D02*
D03*
X162401D02*
D03*
D45*
X183071Y120039D02*
D03*
Y130039D02*
D03*
X167323Y125039D02*
D03*
X183071D02*
D03*
X167323Y120039D02*
D03*
Y115039D02*
D03*
Y110039D02*
D03*
X183071Y115039D02*
D03*
Y110039D02*
D03*
D46*
X69685Y72835D02*
D03*
X60236D02*
D03*
X67716Y108268D02*
D03*
X58268D02*
D03*
D47*
X244094Y107283D02*
D03*
X250000D02*
D03*
X200787Y110236D02*
D03*
X194882D02*
D03*
X200787Y125000D02*
D03*
X194882D02*
D03*
X97441Y38386D02*
D03*
X103347D02*
D03*
X137795Y136811D02*
D03*
X131890D02*
D03*
Y131890D02*
D03*
X137795D02*
D03*
Y126969D02*
D03*
X131890D02*
D03*
Y122047D02*
D03*
X137795D02*
D03*
X138779Y46260D02*
D03*
X144685D02*
D03*
Y51181D02*
D03*
X138779D02*
D03*
X62008Y125197D02*
D03*
X56102D02*
D03*
X62008Y129921D02*
D03*
X56102D02*
D03*
X62008Y140945D02*
D03*
X56102D02*
D03*
X62008Y145669D02*
D03*
X56102D02*
D03*
D48*
X101181Y108799D02*
D03*
Y103799D02*
D03*
X127165Y108799D02*
D03*
Y103799D02*
D03*
Y68366D02*
D03*
Y73366D02*
D03*
X101181Y68366D02*
D03*
Y73366D02*
D03*
D49*
X80512Y42717D02*
D03*
D50*
Y36614D02*
D03*
X71063D02*
D03*
Y44094D02*
D03*
D51*
Y40354D02*
D03*
D52*
X85827Y38386D02*
D03*
X93307D02*
D03*
X175394Y27559D02*
D03*
X182874D02*
D03*
X233071Y124016D02*
D03*
X225590D02*
D03*
D53*
X74803Y108268D02*
D03*
X80709Y110236D02*
D03*
Y106299D02*
D03*
X74803Y72835D02*
D03*
X80709Y74803D02*
D03*
Y70866D02*
D03*
D54*
X15748Y145669D02*
D03*
X232283Y7874D02*
D03*
D55*
X15748Y145669D02*
D03*
X232283Y7874D02*
D03*
D56*
X225590Y80905D02*
D03*
X233071D02*
D03*
Y70669D02*
D03*
X229331D02*
D03*
X225590D02*
D03*
X225590Y106102D02*
D03*
X229331D02*
D03*
X233071D02*
D03*
Y116339D02*
D03*
X225590D02*
D03*
D57*
X168110Y10827D02*
D03*
D58*
X158661D02*
D03*
D59*
X49213Y16929D02*
D03*
D60*
Y26378D02*
D03*
D61*
X167323Y130039D02*
D03*
D62*
X27500Y98347D02*
D03*
D63*
Y87559D02*
D03*
Y76772D02*
D03*
Y65984D02*
D03*
Y55197D02*
D03*
X17500Y92953D02*
D03*
Y82165D02*
D03*
Y71378D02*
D03*
Y60590D02*
D03*
D64*
X22500Y125984D02*
D03*
Y27559D02*
D03*
X255906Y15748D02*
D03*
Y137795D02*
D03*
D65*
X122362Y10827D02*
D03*
X82362D02*
D03*
X102362D02*
D03*
X92362D02*
D03*
X72362D02*
D03*
D66*
X132362Y10827D02*
D03*
D67*
X147480Y29528D02*
D03*
D68*
X157480D02*
D03*
X167480D02*
D03*
D69*
X259842Y53150D02*
D03*
Y100394D02*
D03*
D70*
X249213Y71850D02*
D03*
Y81693D02*
D03*
X241339Y71850D02*
D03*
D71*
Y81693D02*
D03*
M02*
