M48
;Layer_Color=9474304
;FILE_FORMAT=2:5
INCH,LZ
;TYPE=PLATED
T1F00S00C0.01181
T2F00S00C0.03543
T3F00S00C0.03937
T4F00S00C0.09055
%
T01
X0187992Y0015748
X0236221Y0041339
X0229331Y0066929
X0225394Y0089567
X0209646Y0093504
X0229331Y0110236
X0241142Y0107283
X0187992Y0103347
X0181102Y0105315
X017126
X0160433Y0120079
X0190945
X0187992Y0093504
X0195866Y0086614
X0199803Y0047244
X0172244Y0048228
X0152559Y003937
X0135827Y004626
X013189Y0060039
Y0072835
X0139764Y007874
X013189Y0095472
Y0108268
X0096457
Y0095472
Y0072835
Y0061024
X0103347Y0034449
X0075787Y0040354
X0052165Y0045276
X0061024Y0066929
X005315Y0080709
X0061024Y0102362
X0129921Y0147638
X0161417Y0068898
X0186024Y0027559
X0041339Y0075787
Y0107283
T02
X0241339Y007185
X0249213
Y0081693
X0241339
X016748Y0029528
X015748
X014748
X00275Y0055197
Y0065984
Y0076772
Y0087559
Y0098347
X00175Y0092953
Y0082165
Y0071378
Y006059
T03
X0072362Y0010827
X0082362
X0092362
X0102362
X0122362
X0132362Y0010827
T04
X0259842Y005315
Y0100394
M30
