G04*
G04 #@! TF.GenerationSoftware,Altium Limited,Altium Designer,22.6.1 (34)*
G04*
G04 Layer_Color=16711935*
%FSLAX25Y25*%
%MOIN*%
G70*
G04*
G04 #@! TF.SameCoordinates,92C09A27-C496-4622-AF52-00FCEC43516E*
G04*
G04*
G04 #@! TF.FilePolarity,Negative*
G04*
G01*
G75*
%ADD35R,0.07874X0.86614*%
%ADD62R,0.07093X0.07093*%
%ADD63C,0.07093*%
%ADD64C,0.00400*%
%ADD65C,0.06699*%
G04:AMPARAMS|DCode=66|XSize=66.99mil|YSize=66.99mil|CornerRadius=17.75mil|HoleSize=0mil|Usage=FLASHONLY|Rotation=0.000|XOffset=0mil|YOffset=0mil|HoleType=Round|Shape=RoundedRectangle|*
%AMROUNDEDRECTD66*
21,1,0.06699,0.03150,0,0,0.0*
21,1,0.03150,0.06699,0,0,0.0*
1,1,0.03550,0.01575,-0.01575*
1,1,0.03550,-0.01575,-0.01575*
1,1,0.03550,-0.01575,0.01575*
1,1,0.03550,0.01575,0.01575*
%
%ADD66ROUNDEDRECTD66*%
G04:AMPARAMS|DCode=67|XSize=63.06mil|YSize=63.06mil|CornerRadius=16.76mil|HoleSize=0mil|Usage=FLASHONLY|Rotation=0.000|XOffset=0mil|YOffset=0mil|HoleType=Round|Shape=RoundedRectangle|*
%AMROUNDEDRECTD67*
21,1,0.06306,0.02953,0,0,0.0*
21,1,0.02953,0.06306,0,0,0.0*
1,1,0.03353,0.01476,-0.01476*
1,1,0.03353,-0.01476,-0.01476*
1,1,0.03353,-0.01476,0.01476*
1,1,0.03353,0.01476,0.01476*
%
%ADD67ROUNDEDRECTD67*%
%ADD68P,0.06825X8X22.5*%
%ADD69C,0.13786*%
%ADD70C,0.05912*%
G04:AMPARAMS|DCode=71|XSize=59.12mil|YSize=59.12mil|CornerRadius=15.78mil|HoleSize=0mil|Usage=FLASHONLY|Rotation=90.000|XOffset=0mil|YOffset=0mil|HoleType=Round|Shape=RoundedRectangle|*
%AMROUNDEDRECTD71*
21,1,0.05912,0.02756,0,0,90.0*
21,1,0.02756,0.05912,0,0,90.0*
1,1,0.03156,0.01378,0.01378*
1,1,0.03156,0.01378,-0.01378*
1,1,0.03156,-0.01378,-0.01378*
1,1,0.03156,-0.01378,0.01378*
%
%ADD71ROUNDEDRECTD71*%
D35*
X114173Y74803D02*
D03*
D62*
X27500Y98347D02*
D03*
D63*
Y87559D02*
D03*
Y76772D02*
D03*
Y65984D02*
D03*
Y55197D02*
D03*
X17500Y92953D02*
D03*
Y82165D02*
D03*
Y71378D02*
D03*
Y60590D02*
D03*
D64*
X22500Y125984D02*
D03*
Y27559D02*
D03*
X255906Y15748D02*
D03*
Y137795D02*
D03*
D65*
X122362Y10827D02*
D03*
X82362D02*
D03*
X102362D02*
D03*
X92362D02*
D03*
X72362D02*
D03*
D66*
X132362Y10827D02*
D03*
D67*
X147480Y29528D02*
D03*
D68*
X157480D02*
D03*
X167480D02*
D03*
D69*
X259842Y53150D02*
D03*
Y100394D02*
D03*
D70*
X249213Y71850D02*
D03*
Y81693D02*
D03*
X241339Y71850D02*
D03*
D71*
Y81693D02*
D03*
M02*
