G04*
G04 #@! TF.GenerationSoftware,Altium Limited,Altium Designer,22.3.1 (43)*
G04*
G04 Layer_Color=8388736*
%FSLAX25Y25*%
%MOIN*%
G70*
G04*
G04 #@! TF.SameCoordinates,35FA6D69-FF44-446E-9FC7-5F6B5C59AE10*
G04*
G04*
G04 #@! TF.FilePolarity,Negative*
G04*
G01*
G75*
%ADD34R,0.10500X0.76000*%
G04:AMPARAMS|DCode=35|XSize=27.62mil|YSize=35.5mil|CornerRadius=5.54mil|HoleSize=0mil|Usage=FLASHONLY|Rotation=90.000|XOffset=0mil|YOffset=0mil|HoleType=Round|Shape=RoundedRectangle|*
%AMROUNDEDRECTD35*
21,1,0.02762,0.02441,0,0,90.0*
21,1,0.01654,0.03550,0,0,90.0*
1,1,0.01109,0.01221,0.00827*
1,1,0.01109,0.01221,-0.00827*
1,1,0.01109,-0.01221,-0.00827*
1,1,0.01109,-0.01221,0.00827*
%
%ADD35ROUNDEDRECTD35*%
G04:AMPARAMS|DCode=36|XSize=37.47mil|YSize=27.62mil|CornerRadius=4.36mil|HoleSize=0mil|Usage=FLASHONLY|Rotation=90.000|XOffset=0mil|YOffset=0mil|HoleType=Round|Shape=RoundedRectangle|*
%AMROUNDEDRECTD36*
21,1,0.03747,0.01890,0,0,90.0*
21,1,0.02874,0.02762,0,0,90.0*
1,1,0.00872,0.00945,0.01437*
1,1,0.00872,0.00945,-0.01437*
1,1,0.00872,-0.00945,-0.01437*
1,1,0.00872,-0.00945,0.01437*
%
%ADD36ROUNDEDRECTD36*%
G04:AMPARAMS|DCode=37|XSize=31.56mil|YSize=47.31mil|CornerRadius=6.13mil|HoleSize=0mil|Usage=FLASHONLY|Rotation=270.000|XOffset=0mil|YOffset=0mil|HoleType=Round|Shape=RoundedRectangle|*
%AMROUNDEDRECTD37*
21,1,0.03156,0.03504,0,0,270.0*
21,1,0.01929,0.04731,0,0,270.0*
1,1,0.01227,-0.01752,-0.00965*
1,1,0.01227,-0.01752,0.00965*
1,1,0.01227,0.01752,0.00965*
1,1,0.01227,0.01752,-0.00965*
%
%ADD37ROUNDEDRECTD37*%
G04:AMPARAMS|DCode=38|XSize=27.62mil|YSize=51.24mil|CornerRadius=5.54mil|HoleSize=0mil|Usage=FLASHONLY|Rotation=270.000|XOffset=0mil|YOffset=0mil|HoleType=Round|Shape=RoundedRectangle|*
%AMROUNDEDRECTD38*
21,1,0.02762,0.04016,0,0,270.0*
21,1,0.01654,0.05124,0,0,270.0*
1,1,0.01109,-0.02008,-0.00827*
1,1,0.01109,-0.02008,0.00827*
1,1,0.01109,0.02008,0.00827*
1,1,0.01109,0.02008,-0.00827*
%
%ADD38ROUNDEDRECTD38*%
G04:AMPARAMS|DCode=39|XSize=59.12mil|YSize=39.43mil|CornerRadius=7.32mil|HoleSize=0mil|Usage=FLASHONLY|Rotation=90.000|XOffset=0mil|YOffset=0mil|HoleType=Round|Shape=RoundedRectangle|*
%AMROUNDEDRECTD39*
21,1,0.05912,0.02480,0,0,90.0*
21,1,0.04449,0.03943,0,0,90.0*
1,1,0.01463,0.01240,0.02224*
1,1,0.01463,0.01240,-0.02224*
1,1,0.01463,-0.01240,-0.02224*
1,1,0.01463,-0.01240,0.02224*
%
%ADD39ROUNDEDRECTD39*%
G04:AMPARAMS|DCode=40|XSize=23.68mil|YSize=39.43mil|CornerRadius=4.95mil|HoleSize=0mil|Usage=FLASHONLY|Rotation=90.000|XOffset=0mil|YOffset=0mil|HoleType=Round|Shape=RoundedRectangle|*
%AMROUNDEDRECTD40*
21,1,0.02368,0.02953,0,0,90.0*
21,1,0.01378,0.03943,0,0,90.0*
1,1,0.00991,0.01476,0.00689*
1,1,0.00991,0.01476,-0.00689*
1,1,0.00991,-0.01476,-0.00689*
1,1,0.00991,-0.01476,0.00689*
%
%ADD40ROUNDEDRECTD40*%
G04:AMPARAMS|DCode=41|XSize=35.5mil|YSize=39.43mil|CornerRadius=6.72mil|HoleSize=0mil|Usage=FLASHONLY|Rotation=90.000|XOffset=0mil|YOffset=0mil|HoleType=Round|Shape=RoundedRectangle|*
%AMROUNDEDRECTD41*
21,1,0.03550,0.02598,0,0,90.0*
21,1,0.02205,0.03943,0,0,90.0*
1,1,0.01345,0.01299,0.01102*
1,1,0.01345,0.01299,-0.01102*
1,1,0.01345,-0.01299,-0.01102*
1,1,0.01345,-0.01299,0.01102*
%
%ADD41ROUNDEDRECTD41*%
G04:AMPARAMS|DCode=42|XSize=37.47mil|YSize=27.62mil|CornerRadius=4.36mil|HoleSize=0mil|Usage=FLASHONLY|Rotation=0.000|XOffset=0mil|YOffset=0mil|HoleType=Round|Shape=RoundedRectangle|*
%AMROUNDEDRECTD42*
21,1,0.03747,0.01890,0,0,0.0*
21,1,0.02874,0.02762,0,0,0.0*
1,1,0.00872,0.01437,-0.00945*
1,1,0.00872,-0.01437,-0.00945*
1,1,0.00872,-0.01437,0.00945*
1,1,0.00872,0.01437,0.00945*
%
%ADD42ROUNDEDRECTD42*%
G04:AMPARAMS|DCode=43|XSize=53.21mil|YSize=31.56mil|CornerRadius=4.76mil|HoleSize=0mil|Usage=FLASHONLY|Rotation=270.000|XOffset=0mil|YOffset=0mil|HoleType=Round|Shape=RoundedRectangle|*
%AMROUNDEDRECTD43*
21,1,0.05321,0.02205,0,0,270.0*
21,1,0.04370,0.03156,0,0,270.0*
1,1,0.00951,-0.01102,-0.02185*
1,1,0.00951,-0.01102,0.02185*
1,1,0.00951,0.01102,0.02185*
1,1,0.00951,0.01102,-0.02185*
%
%ADD43ROUNDEDRECTD43*%
G04:AMPARAMS|DCode=44|XSize=17.78mil|YSize=27.62mil|CornerRadius=4.07mil|HoleSize=0mil|Usage=FLASHONLY|Rotation=270.000|XOffset=0mil|YOffset=0mil|HoleType=Round|Shape=RoundedRectangle|*
%AMROUNDEDRECTD44*
21,1,0.01778,0.01949,0,0,270.0*
21,1,0.00965,0.02762,0,0,270.0*
1,1,0.00813,-0.00974,-0.00482*
1,1,0.00813,-0.00974,0.00482*
1,1,0.00813,0.00974,0.00482*
1,1,0.00813,0.00974,-0.00482*
%
%ADD44ROUNDEDRECTD44*%
G04:AMPARAMS|DCode=45|XSize=15.81mil|YSize=63.06mil|CornerRadius=4.95mil|HoleSize=0mil|Usage=FLASHONLY|Rotation=0.000|XOffset=0mil|YOffset=0mil|HoleType=Round|Shape=RoundedRectangle|*
%AMROUNDEDRECTD45*
21,1,0.01581,0.05315,0,0,0.0*
21,1,0.00591,0.06306,0,0,0.0*
1,1,0.00991,0.00295,-0.02657*
1,1,0.00991,-0.00295,-0.02657*
1,1,0.00991,-0.00295,0.02657*
1,1,0.00991,0.00295,0.02657*
%
%ADD45ROUNDEDRECTD45*%
G04:AMPARAMS|DCode=46|XSize=15.81mil|YSize=63.06mil|CornerRadius=4.95mil|HoleSize=0mil|Usage=FLASHONLY|Rotation=90.000|XOffset=0mil|YOffset=0mil|HoleType=Round|Shape=RoundedRectangle|*
%AMROUNDEDRECTD46*
21,1,0.01581,0.05315,0,0,90.0*
21,1,0.00591,0.06306,0,0,90.0*
1,1,0.00991,0.02657,0.00295*
1,1,0.00991,0.02657,-0.00295*
1,1,0.00991,-0.02657,-0.00295*
1,1,0.00991,-0.02657,0.00295*
%
%ADD46ROUNDEDRECTD46*%
G04:AMPARAMS|DCode=47|XSize=43.37mil|YSize=39.43mil|CornerRadius=5.54mil|HoleSize=0mil|Usage=FLASHONLY|Rotation=90.000|XOffset=0mil|YOffset=0mil|HoleType=Round|Shape=RoundedRectangle|*
%AMROUNDEDRECTD47*
21,1,0.04337,0.02835,0,0,90.0*
21,1,0.03228,0.03943,0,0,90.0*
1,1,0.01109,0.01417,0.01614*
1,1,0.01109,0.01417,-0.01614*
1,1,0.01109,-0.01417,-0.01614*
1,1,0.01109,-0.01417,0.01614*
%
%ADD47ROUNDEDRECTD47*%
G04:AMPARAMS|DCode=48|XSize=35.5mil|YSize=29.59mil|CornerRadius=8.4mil|HoleSize=0mil|Usage=FLASHONLY|Rotation=90.000|XOffset=0mil|YOffset=0mil|HoleType=Round|Shape=RoundedRectangle|*
%AMROUNDEDRECTD48*
21,1,0.03550,0.01280,0,0,90.0*
21,1,0.01870,0.02959,0,0,90.0*
1,1,0.01680,0.00640,0.00935*
1,1,0.01680,0.00640,-0.00935*
1,1,0.01680,-0.00640,-0.00935*
1,1,0.01680,-0.00640,0.00935*
%
%ADD48ROUNDEDRECTD48*%
G04:AMPARAMS|DCode=49|XSize=53.21mil|YSize=31.56mil|CornerRadius=4.76mil|HoleSize=0mil|Usage=FLASHONLY|Rotation=180.000|XOffset=0mil|YOffset=0mil|HoleType=Round|Shape=RoundedRectangle|*
%AMROUNDEDRECTD49*
21,1,0.05321,0.02205,0,0,180.0*
21,1,0.04370,0.03156,0,0,180.0*
1,1,0.00951,-0.02185,0.01102*
1,1,0.00951,0.02185,0.01102*
1,1,0.00951,0.02185,-0.01102*
1,1,0.00951,-0.02185,-0.01102*
%
%ADD49ROUNDEDRECTD49*%
G04:AMPARAMS|DCode=50|XSize=35.5mil|YSize=29.59mil|CornerRadius=8.4mil|HoleSize=0mil|Usage=FLASHONLY|Rotation=0.000|XOffset=0mil|YOffset=0mil|HoleType=Round|Shape=RoundedRectangle|*
%AMROUNDEDRECTD50*
21,1,0.03550,0.01280,0,0,0.0*
21,1,0.01870,0.02959,0,0,0.0*
1,1,0.01680,0.00935,-0.00640*
1,1,0.01680,-0.00935,-0.00640*
1,1,0.01680,-0.00935,0.00640*
1,1,0.01680,0.00935,0.00640*
%
%ADD50ROUNDEDRECTD50*%
%ADD51R,0.08661X0.08661*%
%ADD52C,0.04337*%
G04:AMPARAMS|DCode=53|XSize=27.62mil|YSize=47.31mil|CornerRadius=4.36mil|HoleSize=0mil|Usage=FLASHONLY|Rotation=180.000|XOffset=0mil|YOffset=0mil|HoleType=Round|Shape=RoundedRectangle|*
%AMROUNDEDRECTD53*
21,1,0.02762,0.03858,0,0,180.0*
21,1,0.01890,0.04731,0,0,180.0*
1,1,0.00872,-0.00945,0.01929*
1,1,0.00872,0.00945,0.01929*
1,1,0.00872,0.00945,-0.01929*
1,1,0.00872,-0.00945,-0.01929*
%
%ADD53ROUNDEDRECTD53*%
G04:AMPARAMS|DCode=54|XSize=47.31mil|YSize=27.62mil|CornerRadius=5.54mil|HoleSize=0mil|Usage=FLASHONLY|Rotation=180.000|XOffset=0mil|YOffset=0mil|HoleType=Round|Shape=RoundedRectangle|*
%AMROUNDEDRECTD54*
21,1,0.04731,0.01654,0,0,180.0*
21,1,0.03622,0.02762,0,0,180.0*
1,1,0.01109,-0.01811,0.00827*
1,1,0.01109,0.01811,0.00827*
1,1,0.01109,0.01811,-0.00827*
1,1,0.01109,-0.01811,-0.00827*
%
%ADD54ROUNDEDRECTD54*%
G04:AMPARAMS|DCode=55|XSize=63.12mil|YSize=110.36mil|CornerRadius=12.27mil|HoleSize=0mil|Usage=FLASHONLY|Rotation=180.000|XOffset=0mil|YOffset=0mil|HoleType=Round|Shape=RoundedRectangle|*
%AMROUNDEDRECTD55*
21,1,0.06312,0.08583,0,0,180.0*
21,1,0.03858,0.11036,0,0,180.0*
1,1,0.02454,-0.01929,0.04291*
1,1,0.02454,0.01929,0.04291*
1,1,0.02454,0.01929,-0.04291*
1,1,0.02454,-0.01929,-0.04291*
%
%ADD55ROUNDEDRECTD55*%
G04:AMPARAMS|DCode=56|XSize=59.12mil|YSize=106.36mil|CornerRadius=10.27mil|HoleSize=0mil|Usage=FLASHONLY|Rotation=180.000|XOffset=0mil|YOffset=0mil|HoleType=Round|Shape=RoundedRectangle|*
%AMROUNDEDRECTD56*
21,1,0.05912,0.08583,0,0,180.0*
21,1,0.03858,0.10636,0,0,180.0*
1,1,0.02054,-0.01929,0.04291*
1,1,0.02054,0.01929,0.04291*
1,1,0.02054,0.01929,-0.04291*
1,1,0.02054,-0.01929,-0.04291*
%
%ADD56ROUNDEDRECTD56*%
G04:AMPARAMS|DCode=57|XSize=63.12mil|YSize=110.36mil|CornerRadius=12.27mil|HoleSize=0mil|Usage=FLASHONLY|Rotation=90.000|XOffset=0mil|YOffset=0mil|HoleType=Round|Shape=RoundedRectangle|*
%AMROUNDEDRECTD57*
21,1,0.06312,0.08583,0,0,90.0*
21,1,0.03858,0.11036,0,0,90.0*
1,1,0.02454,0.04291,0.01929*
1,1,0.02454,0.04291,-0.01929*
1,1,0.02454,-0.04291,-0.01929*
1,1,0.02454,-0.04291,0.01929*
%
%ADD57ROUNDEDRECTD57*%
G04:AMPARAMS|DCode=58|XSize=59.12mil|YSize=106.36mil|CornerRadius=10.27mil|HoleSize=0mil|Usage=FLASHONLY|Rotation=90.000|XOffset=0mil|YOffset=0mil|HoleType=Round|Shape=RoundedRectangle|*
%AMROUNDEDRECTD58*
21,1,0.05912,0.08583,0,0,90.0*
21,1,0.03858,0.10636,0,0,90.0*
1,1,0.02054,0.04291,0.01929*
1,1,0.02054,0.04291,-0.01929*
1,1,0.02054,-0.04291,-0.01929*
1,1,0.02054,-0.04291,0.01929*
%
%ADD58ROUNDEDRECTD58*%
%ADD59R,0.11030X0.03156*%
G04:AMPARAMS|DCode=60|XSize=31.56mil|YSize=110.3mil|CornerRadius=6.13mil|HoleSize=0mil|Usage=FLASHONLY|Rotation=270.000|XOffset=0mil|YOffset=0mil|HoleType=Round|Shape=RoundedRectangle|*
%AMROUNDEDRECTD60*
21,1,0.03156,0.09803,0,0,270.0*
21,1,0.01929,0.11030,0,0,270.0*
1,1,0.01227,-0.04902,-0.00965*
1,1,0.01227,-0.04902,0.00965*
1,1,0.01227,0.04902,0.00965*
1,1,0.01227,0.04902,-0.00965*
%
%ADD60ROUNDEDRECTD60*%
%ADD61C,0.00400*%
%ADD62C,0.07093*%
%ADD63R,0.07093X0.07093*%
G04:AMPARAMS|DCode=64|XSize=63.06mil|YSize=63.06mil|CornerRadius=16.76mil|HoleSize=0mil|Usage=FLASHONLY|Rotation=0.000|XOffset=0mil|YOffset=0mil|HoleType=Round|Shape=RoundedRectangle|*
%AMROUNDEDRECTD64*
21,1,0.06306,0.02953,0,0,0.0*
21,1,0.02953,0.06306,0,0,0.0*
1,1,0.03353,0.01476,-0.01476*
1,1,0.03353,-0.01476,-0.01476*
1,1,0.03353,-0.01476,0.01476*
1,1,0.03353,0.01476,0.01476*
%
%ADD64ROUNDEDRECTD64*%
%ADD65P,0.06825X8X22.5*%
%ADD66C,0.13786*%
%ADD67C,0.05912*%
G04:AMPARAMS|DCode=68|XSize=59.12mil|YSize=59.12mil|CornerRadius=15.78mil|HoleSize=0mil|Usage=FLASHONLY|Rotation=90.000|XOffset=0mil|YOffset=0mil|HoleType=Round|Shape=RoundedRectangle|*
%AMROUNDEDRECTD68*
21,1,0.05912,0.02756,0,0,90.0*
21,1,0.02756,0.05912,0,0,90.0*
1,1,0.03156,0.01378,0.01378*
1,1,0.03156,0.01378,-0.01378*
1,1,0.03156,-0.01378,-0.01378*
1,1,0.03156,-0.01378,0.01378*
%
%ADD68ROUNDEDRECTD68*%
%ADD69C,0.06699*%
G04:AMPARAMS|DCode=70|XSize=66.99mil|YSize=66.99mil|CornerRadius=17.75mil|HoleSize=0mil|Usage=FLASHONLY|Rotation=0.000|XOffset=0mil|YOffset=0mil|HoleType=Round|Shape=RoundedRectangle|*
%AMROUNDEDRECTD70*
21,1,0.06699,0.03150,0,0,0.0*
21,1,0.03150,0.06699,0,0,0.0*
1,1,0.03550,0.01575,-0.01575*
1,1,0.03550,-0.01575,-0.01575*
1,1,0.03550,-0.01575,0.01575*
1,1,0.03550,0.01575,0.01575*
%
%ADD70ROUNDEDRECTD70*%
D34*
X97750Y62000D02*
D03*
D35*
X64224Y65500D02*
D03*
X54776D02*
D03*
X58724Y93000D02*
D03*
X49276D02*
D03*
D36*
X211047Y95000D02*
D03*
X216953D02*
D03*
X172453Y97500D02*
D03*
X166547D02*
D03*
X172453Y112500D02*
D03*
X166547D02*
D03*
X87453Y25000D02*
D03*
X81547D02*
D03*
X121953Y90500D02*
D03*
X116047D02*
D03*
X122953Y120000D02*
D03*
X117047D02*
D03*
Y114500D02*
D03*
X122953D02*
D03*
Y109000D02*
D03*
X117047D02*
D03*
Y103500D02*
D03*
X122953D02*
D03*
X115547Y35500D02*
D03*
X121453D02*
D03*
Y40000D02*
D03*
X115547D02*
D03*
X62008Y101969D02*
D03*
X56102D02*
D03*
X62008Y106299D02*
D03*
X56102D02*
D03*
X62008Y117717D02*
D03*
X56102D02*
D03*
X62008Y122047D02*
D03*
X56102D02*
D03*
D37*
X84008Y95500D02*
D03*
Y90500D02*
D03*
X109992Y95500D02*
D03*
Y90500D02*
D03*
Y57500D02*
D03*
Y62500D02*
D03*
X84008Y57500D02*
D03*
Y62500D02*
D03*
D38*
X85976Y84000D02*
D03*
Y79000D02*
D03*
Y74000D02*
D03*
Y69000D02*
D03*
X108024Y84000D02*
D03*
Y79000D02*
D03*
Y74000D02*
D03*
Y69000D02*
D03*
X72524Y72000D02*
D03*
Y77000D02*
D03*
Y82000D02*
D03*
Y87000D02*
D03*
X50476Y72000D02*
D03*
Y77000D02*
D03*
Y82000D02*
D03*
Y87000D02*
D03*
Y59500D02*
D03*
Y54500D02*
D03*
Y49500D02*
D03*
Y44500D02*
D03*
X72524Y59500D02*
D03*
Y54500D02*
D03*
Y49500D02*
D03*
Y44500D02*
D03*
X108024Y36000D02*
D03*
Y41000D02*
D03*
Y46000D02*
D03*
Y51000D02*
D03*
X85976Y36000D02*
D03*
Y41000D02*
D03*
Y46000D02*
D03*
Y51000D02*
D03*
D39*
X75224Y37362D02*
D03*
D40*
Y31260D02*
D03*
X65776D02*
D03*
Y38740D02*
D03*
D41*
Y35000D02*
D03*
D42*
X60500Y37953D02*
D03*
Y32047D02*
D03*
X80000Y45453D02*
D03*
Y39547D02*
D03*
X79000Y77453D02*
D03*
Y71547D02*
D03*
X115500Y48547D02*
D03*
Y54453D02*
D03*
Y64953D02*
D03*
Y59047D02*
D03*
X185000Y33953D02*
D03*
Y28047D02*
D03*
X190000D02*
D03*
Y33953D02*
D03*
X195000D02*
D03*
Y28047D02*
D03*
X200000D02*
D03*
Y33953D02*
D03*
X120000Y64953D02*
D03*
Y59047D02*
D03*
X200000Y44953D02*
D03*
Y39047D02*
D03*
X195000Y44953D02*
D03*
Y39047D02*
D03*
X190000Y44953D02*
D03*
Y39047D02*
D03*
X185000Y44953D02*
D03*
Y39047D02*
D03*
X202000Y87953D02*
D03*
Y82047D02*
D03*
D43*
X80260Y30500D02*
D03*
X87740D02*
D03*
X123760D02*
D03*
X131240D02*
D03*
X151260Y15000D02*
D03*
X158740D02*
D03*
X201740Y111000D02*
D03*
X194260D02*
D03*
X50240Y65500D02*
D03*
X42760D02*
D03*
D44*
X64547Y93500D02*
D03*
X70453Y95468D02*
D03*
Y91531D02*
D03*
X69547Y65500D02*
D03*
X75453Y67469D02*
D03*
Y63532D02*
D03*
D45*
X162795Y31559D02*
D03*
X164764D02*
D03*
X141142D02*
D03*
X135236D02*
D03*
X137205D02*
D03*
X139173D02*
D03*
X147047D02*
D03*
X143110D02*
D03*
X145079D02*
D03*
X149016D02*
D03*
X150984D02*
D03*
X152953D02*
D03*
X154921D02*
D03*
X156890D02*
D03*
X158858D02*
D03*
X160827D02*
D03*
X164764Y76441D02*
D03*
X162795D02*
D03*
X160827D02*
D03*
X158858D02*
D03*
X156890D02*
D03*
X154921D02*
D03*
X152953D02*
D03*
X150984D02*
D03*
X149016D02*
D03*
X147047D02*
D03*
X145079D02*
D03*
X143110D02*
D03*
X141142D02*
D03*
X139173D02*
D03*
X137205D02*
D03*
X135236D02*
D03*
D46*
X172441Y58921D02*
D03*
Y60890D02*
D03*
Y62858D02*
D03*
Y64827D02*
D03*
X127559Y68764D02*
D03*
Y66795D02*
D03*
Y64827D02*
D03*
Y62858D02*
D03*
Y60890D02*
D03*
Y58921D02*
D03*
Y56953D02*
D03*
Y54984D02*
D03*
Y53016D02*
D03*
Y51047D02*
D03*
Y49079D02*
D03*
Y47110D02*
D03*
Y45142D02*
D03*
Y43173D02*
D03*
Y41205D02*
D03*
Y39236D02*
D03*
X172441D02*
D03*
Y41205D02*
D03*
Y43173D02*
D03*
Y45142D02*
D03*
Y47110D02*
D03*
Y49079D02*
D03*
Y51047D02*
D03*
Y53016D02*
D03*
Y54984D02*
D03*
Y56953D02*
D03*
Y66795D02*
D03*
Y68764D02*
D03*
D47*
X178634Y24756D02*
D03*
Y19244D02*
D03*
X170366D02*
D03*
Y24756D02*
D03*
D48*
X171646Y30000D02*
D03*
X177354D02*
D03*
X156854Y21000D02*
D03*
X151146D02*
D03*
X114146Y30500D02*
D03*
X119854D02*
D03*
X113146Y70500D02*
D03*
X118854D02*
D03*
X104146Y30500D02*
D03*
X109854D02*
D03*
X165854Y21000D02*
D03*
X160146D02*
D03*
D49*
X175000Y76260D02*
D03*
Y83740D02*
D03*
X37500D02*
D03*
Y76260D02*
D03*
X50500Y40240D02*
D03*
Y32760D02*
D03*
X144500Y13240D02*
D03*
Y5760D02*
D03*
X37500Y61740D02*
D03*
Y54260D02*
D03*
X44000Y89240D02*
D03*
Y81760D02*
D03*
D50*
X152000Y84146D02*
D03*
Y89854D02*
D03*
X169500Y83354D02*
D03*
Y77646D02*
D03*
X180500Y35146D02*
D03*
Y40854D02*
D03*
X44500Y71146D02*
D03*
Y76854D02*
D03*
X43500Y53854D02*
D03*
Y48146D02*
D03*
X181000Y72146D02*
D03*
Y77854D02*
D03*
X196000Y82146D02*
D03*
Y87854D02*
D03*
D51*
X43500Y122500D02*
D03*
X192000Y15000D02*
D03*
D52*
X43500Y122500D02*
D03*
X192000Y15000D02*
D03*
D53*
X196760Y68618D02*
D03*
X204240D02*
D03*
Y58382D02*
D03*
X200500D02*
D03*
X196760D02*
D03*
X194260Y93882D02*
D03*
X198000D02*
D03*
X201740D02*
D03*
Y104118D02*
D03*
X194260D02*
D03*
D54*
X180488Y64969D02*
D03*
X191512D02*
D03*
Y61032D02*
D03*
X180488D02*
D03*
D55*
X135724Y9500D02*
D03*
D56*
X126276D02*
D03*
D57*
X41500Y32276D02*
D03*
D58*
Y41724D02*
D03*
D59*
X140126Y117460D02*
D03*
D60*
X155874D02*
D03*
X140126Y112460D02*
D03*
X155874D02*
D03*
X140126Y107460D02*
D03*
Y102460D02*
D03*
Y97460D02*
D03*
X155874Y107460D02*
D03*
Y102460D02*
D03*
Y97460D02*
D03*
D61*
X22500Y15748D02*
D03*
Y114173D02*
D03*
X224410Y15748D02*
D03*
Y114173D02*
D03*
D62*
X17500Y48779D02*
D03*
Y59567D02*
D03*
Y70354D02*
D03*
Y81142D02*
D03*
X27500Y43386D02*
D03*
Y54173D02*
D03*
Y64961D02*
D03*
Y75748D02*
D03*
D63*
Y86535D02*
D03*
D64*
X122000Y21000D02*
D03*
D65*
X132000D02*
D03*
X142000D02*
D03*
D66*
X228346Y41339D02*
D03*
Y88583D02*
D03*
D67*
X217717Y60039D02*
D03*
Y69882D02*
D03*
X209842Y60039D02*
D03*
D68*
Y69882D02*
D03*
D69*
X78000Y8000D02*
D03*
X58000D02*
D03*
X98000D02*
D03*
D70*
X108000Y8000D02*
D03*
M02*
