M48
;Layer_Color=9474304
;FILE_FORMAT=2:5
INCH,LZ
;TYPE=PLATED
T1F00S00C0.01181
T2F00S00C0.03543
T3F00S00C0.03937
T4F00S00C0.09055
%
T01
X00785Y0025
X0071Y0035
X00825Y0053
X00805Y00645
X0083Y00855
X00795Y00945
X00545Y0087
Y00595
X0112Y0051
X01125Y0034
X0132Y00345
X0145Y0037
X01445Y001
X0162Y00175
X01745Y0022
X0185Y0025
X0177Y0038
X02005Y0054
X0196Y0079
X0175Y00795
X016Y0082
X0163Y0091
X0152Y0093
X01335Y01095
X0114Y00955
X0112Y0084
X01165Y0068
X01335Y0058
X01085Y00145
Y01245
X0198Y0099
X0207Y0095
X00375Y0087
X00415Y0071
X0041Y00515
X00505Y00295
T02
X0209842Y0060039
X0217717
Y0069882
X0209842
X0142Y0021
X0132
X0122
X00275Y0043386
Y0054173
Y0064961
Y0075748
Y0086535
X00175Y0081142
Y0070354
Y0059567
Y0048779
T03
X0058Y0008
X0078
X0098
X0108Y0008
T04
X0228346Y0041339
Y0088583
M30
